<mxfile host="app.diagrams.net" modified="2023-11-21T06:49:31.695Z" agent="Mozilla/5.0 (Windows NT 10.0; Win64; x64) AppleWebKit/537.36 (KHTML, like Gecko) Chrome/119.0.0.0 Safari/537.36" etag="2TI8q51L4RAC4Vdk4Jwx" version="22.1.3" type="device">
  <diagram name="Page-1" id="z1sIUQLmpsv2TXnOtT5Z">
    <mxGraphModel dx="3597" dy="2006" grid="0" gridSize="10" guides="1" tooltips="1" connect="1" arrows="1" fold="1" page="1" pageScale="1" pageWidth="1920" pageHeight="1200" math="0" shadow="0">
      <root>
        <mxCell id="0" />
        <mxCell id="1" parent="0" />
        <mxCell id="r0GoYTCdLAr58T-955c1-13" value="" style="group" parent="1" vertex="1" connectable="0">
          <mxGeometry x="129.5" y="635.39" width="80" height="80" as="geometry" />
        </mxCell>
        <mxCell id="r0GoYTCdLAr58T-955c1-9" value="" style="ellipse;whiteSpace=wrap;html=1;aspect=fixed;fillColor=#ffe6cc;strokeColor=#d79b00;" parent="r0GoYTCdLAr58T-955c1-13" vertex="1">
          <mxGeometry width="80" height="80" as="geometry" />
        </mxCell>
        <mxCell id="r0GoYTCdLAr58T-955c1-12" value="" style="shape=image;verticalLabelPosition=bottom;labelBackgroundColor=default;verticalAlign=top;aspect=fixed;imageAspect=0;image=data:image/svg+xml,PHN2ZyB4bWxuczp4bGluaz0iaHR0cDovL3d3dy53My5vcmcvMTk5OS94bGluayIgeG1sbnM9Imh0dHA6Ly93d3cudzMub3JnLzIwMDAvc3ZnIiB4bWw6c3BhY2U9InByZXNlcnZlIiB2aWV3Qm94PSIwIDAgNjQgNjQiIGhlaWdodD0iODAwcHgiIHdpZHRoPSI4MDBweCIgaWQ9IkxheWVyXzEiIHZlcnNpb249IjEuMCI+JiN4YTs8Zz4mI3hhOwk8cmVjdCBoZWlnaHQ9IjgiIHdpZHRoPSI2MCIgZmlsbD0iIzUwNkM3RiIgeT0iMjAiIHg9IjIiLz4mI3hhOwk8Zz4mI3hhOwkJPHBhdGggZD0iTTIsNTJjMCwxLjEwNCwwLjg5NiwyLDIsMmg1NmMxLjEwNCwwLDItMC44OTYsMi0yVjMwSDJWNTJ6IiBmaWxsPSIjQjRDQ0I5Ii8+JiN4YTsJCTxwYXRoIGQ9Ik02MCwxMEg0Yy0xLjEwNCwwLTIsMC44OTUtMiwydjZoNjB2LTZDNjIsMTAuODk1LDYxLjEwNCwxMCw2MCwxMHoiIGZpbGw9IiNCNENDQjkiLz4mI3hhOwk8L2c+JiN4YTsJPHBhdGggZD0iTTYwLDhINGMtMi4yMTEsMC00LDEuNzg5LTQsNHY0MGMwLDIuMjExLDEuNzg5LDQsNCw0aDU2YzIuMjExLDAsNC0xLjc4OSw0LTRWMTJDNjQsOS43ODksNjIuMjExLDgsNjAsOHomIzEwOyYjOTsmIzk7IE02Miw1MmMwLDEuMTA0LTAuODk2LDItMiwySDRjLTEuMTA0LDAtMi0wLjg5Ni0yLTJWMzBoNjBWNTJ6IE02MiwyOEgydi04aDYwVjI4eiBNNjIsMThIMnYtNmMwLTEuMTA1LDAuODk2LTIsMi0yaDU2JiMxMDsmIzk7JiM5O2MxLjEwNCwwLDIsMC44OTUsMiwyVjE4eiIgZmlsbD0iIzM5NDI0MCIvPiYjeGE7CTxwYXRoIGQ9Ik0xMSw0MGgxNGMwLjU1MywwLDEtMC40NDcsMS0xcy0wLjQ0Ny0xLTEtMUgxMWMtMC41NTMsMC0xLDAuNDQ3LTEsMVMxMC40NDcsNDAsMTEsNDB6IiBmaWxsPSIjMzk0MjQwIi8+JiN4YTsJPHBhdGggZD0iTTI5LDQwaDZjMC41NTMsMCwxLTAuNDQ3LDEtMXMtMC40NDctMS0xLTFoLTZjLTAuNTUzLDAtMSwwLjQ0Ny0xLDFTMjguNDQ3LDQwLDI5LDQweiIgZmlsbD0iIzM5NDI0MCIvPiYjeGE7CTxwYXRoIGQ9Ik0xMSw0NmgxMGMwLjU1MywwLDEtMC40NDcsMS0xcy0wLjQ0Ny0xLTEtMUgxMWMtMC41NTMsMC0xLDAuNDQ3LTEsMVMxMC40NDcsNDYsMTEsNDZ6IiBmaWxsPSIjMzk0MjQwIi8+JiN4YTsJPHBhdGggZD0iTTQ1LDQ2aDhjMC41NTMsMCwxLTAuNDQ3LDEtMXYtNmMwLTAuNTUzLTAuNDQ3LTEtMS0xaC04Yy0wLjU1MywwLTEsMC40NDctMSwxdjZDNDQsNDUuNTUzLDQ0LjQ0Nyw0Niw0NSw0NiYjMTA7JiM5OyYjOTt6IE00Niw0MGg2djRoLTZWNDB6IiBmaWxsPSIjMzk0MjQwIi8+JiN4YTsJPHJlY3QgaGVpZ2h0PSI0IiB3aWR0aD0iNiIgZmlsbD0iI0Y5RUJCMiIgeT0iNDAiIHg9IjQ2Ii8+JiN4YTs8L2c+JiN4YTs8L3N2Zz4=;" parent="r0GoYTCdLAr58T-955c1-13" vertex="1">
          <mxGeometry x="15" y="15" width="50" height="50" as="geometry" />
        </mxCell>
        <mxCell id="r0GoYTCdLAr58T-955c1-14" value="" style="group" parent="1" vertex="1" connectable="0">
          <mxGeometry x="131.5" y="475.39" width="80" height="80" as="geometry" />
        </mxCell>
        <mxCell id="r0GoYTCdLAr58T-955c1-8" value="" style="ellipse;whiteSpace=wrap;html=1;aspect=fixed;fillColor=#ffe6cc;strokeColor=#d79b00;" parent="r0GoYTCdLAr58T-955c1-14" vertex="1">
          <mxGeometry width="80" height="80" as="geometry" />
        </mxCell>
        <mxCell id="r0GoYTCdLAr58T-955c1-11" value="" style="shape=image;verticalLabelPosition=bottom;labelBackgroundColor=default;verticalAlign=top;aspect=fixed;imageAspect=0;image=data:image/svg+xml,PHN2ZyB4bWxuczp4bGluaz0iaHR0cDovL3d3dy53My5vcmcvMTk5OS94bGluayIgeG1sbnM9Imh0dHA6Ly93d3cudzMub3JnLzIwMDAvc3ZnIiB4bWw6c3BhY2U9InByZXNlcnZlIiB2aWV3Qm94PSIwIDAgNjQgNjQiIGhlaWdodD0iODAwcHgiIHdpZHRoPSI4MDBweCIgaWQ9IkxheWVyXzEiIHZlcnNpb249IjEuMCI+JiN4YTs8Zz4mI3hhOwk8Zz4mI3hhOwkJPHBhdGggZD0iTTI3LDhoMTBjMTcuNDk1LDAsMTgsMjEuNTQ0LDE4LDI0aDJjMC0yLjY2MS0wLjUzMy0yNi0xOS0yNkgyNkMxOC45MDQsNiw3LDkuMzc4LDcsMzJoMiYjMTA7JiM5OyYjOTsmIzk7QzksMTYuNTIzLDE1LjM5Myw4LDI3LDh6IiBmaWxsPSIjNDVBQUI4Ii8+JiN4YTsJCTxwYXRoIGQ9Ik01OCwzNEg2Yy0yLjIwNiwwLTQsMS43OTQtNCw0djEwYzAsMi4yMDYsMS43OTQsNCw0LDRoNTJjMi4yMDYsMCw0LTEuNzk0LDQtNFYzOCYjMTA7JiM5OyYjOTsmIzk7QzYyLDM1Ljc5NCw2MC4yMDYsMzQsNTgsMzR6IiBmaWxsPSIjNDVBQUI4Ii8+JiN4YTsJPC9nPiYjeGE7CTxnPiYjeGE7CQk8cGF0aCBkPSJNNTAuNTgxLDE5LjM5NEM0Ny45MDksMTMuMTYsNDMuMzQsMTAsMzcsMTBIMjdjLTcuMjk5LDAtMTYsMy44MTYtMTYsMjJoNWMwLTQuNDE4LDMuNTgyLTgsOC04JiMxMDsmIzk7JiM5OyYjOTtzOCwzLjU4Miw4LDhoMjFDNTMsMzAuMzY3LDUyLjgyNSwyNC42MzIsNTAuNTgxLDE5LjM5NHoiIGZpbGw9IiNGOUVCQjIiLz4mI3hhOwkJPHBhdGggZD0iTTI0LDI2Yy0zLjMxMywwLTYsMi42ODctNiw2aDEyQzMwLDI4LjY4NywyNy4zMTMsMjYsMjQsMjZ6IiBmaWxsPSIjRjlFQkIyIi8+JiN4YTsJPC9nPiYjeGE7CTxnPiYjeGE7CQk8cGF0aCBkPSJNNTguOTgyLDMyLjA4OEM1OC45ODUsMzIuMDU3LDU5LDMyLjAzMSw1OSwzMmMwLTIuODY2LTAuNTg5LTI4LTIxLTI4SDI2QzEyLjY1NCw0LDUsMTQuMjA2LDUsMzImIzEwOyYjOTsmIzk7JiM5O2MwLDAuMDMxLDAuMDE1LDAuMDU3LDAuMDE4LDAuMDg4QzIuMTc2LDMyLjU1OSwwLDM1LjAyNywwLDM4djEwYzAsMy4zMDksMi42OTEsNiw2LDZ2NWMwLDAuNTUzLDAuNDQ3LDEsMSwxaDgmIzEwOyYjOTsmIzk7JiM5O2MwLjU1MywwLDEtMC40NDcsMS0xdi01aDMydjVjMCwwLjU1MywwLjQ0NywxLDEsMWg4YzAuNTUzLDAsMS0wLjQ0NywxLTF2LTVjMy4zMDksMCw2LTIuNjkxLDYtNlYzOCYjMTA7JiM5OyYjOTsmIzk7QzY0LDM1LjAyNyw2MS44MjQsMzIuNTU5LDU4Ljk4MiwzMi4wODh6IE0yNiw2aDEyYzE4LjQ2NywwLDE5LDIzLjMzOSwxOSwyNmgtMmMwLTIuNDU2LTAuNTA1LTI0LTE4LTI0SDI3QzE1LjM5Myw4LDksMTYuNTIzLDksMzImIzEwOyYjOTsmIzk7JiM5O0g3QzcsOS4zNzgsMTguOTA0LDYsMjYsNnogTTI0LDI0Yy00LjQxOCwwLTgsMy41ODItOCw4aC01YzAtMTguMTg0LDguNzAxLTIyLDE2LTIyaDEwYzYuMzQsMCwxMC45MDksMy4xNiwxMy41ODEsOS4zOTQmIzEwOyYjOTsmIzk7JiM5O0M1Mi44MjUsMjQuNjMyLDUzLDMwLjM2Nyw1MywzMkgzMkMzMiwyNy41ODIsMjguNDE4LDI0LDI0LDI0eiBNMzAsMzJIMThjMC0zLjMxMywyLjY4Ny02LDYtNlMzMCwyOC42ODcsMzAsMzJ6IE0xNCw1OEg4di00aDZWNTh6JiMxMDsmIzk7JiM5OyYjOTsgTTU2LDU4aC02di00aDZWNTh6IE02Miw0OGMwLDIuMjA2LTEuNzk0LDQtNCw0SDZjLTIuMjA2LDAtNC0xLjc5NC00LTRWMzhjMC0yLjIwNiwxLjc5NC00LDQtNGg1MmMyLjIwNiwwLDQsMS43OTQsNCw0VjQ4eiIgZmlsbD0iIzM5NDI0MCIvPiYjeGE7CQk8cGF0aCBkPSJNMTEsMzljLTIuMjA2LDAtNCwxLjc5NC00LDRzMS43OTQsNCw0LDRzNC0xLjc5NCw0LTRTMTMuMjA2LDM5LDExLDM5eiBNMTEsNDVjLTEuMTAzLDAtMi0wLjg5Ny0yLTImIzEwOyYjOTsmIzk7JiM5O3MwLjg5Ny0yLDItMnMyLDAuODk3LDIsMlMxMi4xMDMsNDUsMTEsNDV6IiBmaWxsPSIjMzk0MjQwIi8+JiN4YTsJCTxwYXRoIGQ9Ik01MywzOWMtMi4yMDYsMC00LDEuNzk0LTQsNHMxLjc5NCw0LDQsNHM0LTEuNzk0LDQtNFM1NS4yMDYsMzksNTMsMzl6IE01Myw0NWMtMS4xMDMsMC0yLTAuODk3LTItMiYjMTA7JiM5OyYjOTsmIzk7czAuODk3LTIsMi0yczIsMC44OTcsMiwyUzU0LjEwMyw0NSw1Myw0NXoiIGZpbGw9IiMzOTQyNDAiLz4mI3hhOwkJPHBhdGggZD0iTTQzLDQwSDIxYy0wLjU1MywwLTEsMC40NDctMSwxczAuNDQ3LDEsMSwxaDIyYzAuNTUzLDAsMS0wLjQ0NywxLTFTNDMuNTUzLDQwLDQzLDQweiIgZmlsbD0iIzM5NDI0MCIvPiYjeGE7CQk8cGF0aCBkPSJNNDMsNDRIMjFjLTAuNTUzLDAtMSwwLjQ0Ny0xLDFzMC40NDcsMSwxLDFoMjJjMC41NTMsMCwxLTAuNDQ3LDEtMVM0My41NTMsNDQsNDMsNDR6IiBmaWxsPSIjMzk0MjQwIi8+JiN4YTsJCTxwYXRoIGQ9Ik00My4yOTMsMTguNzA4YzAuMTk1LDAuMTk1LDAuNDUxLDAuMjkzLDAuNzA3LDAuMjkzczAuNTEyLTAuMDk4LDAuNzA3LTAuMjkzJiMxMDsmIzk7JiM5OyYjOTtjMC4zOTEtMC4zOTEsMC4zOTEtMS4wMjMsMC0xLjQxNGwtMi0yYy0wLjM5MS0wLjM5MS0xLjAyMy0wLjM5MS0xLjQxNCwwcy0wLjM5MSwxLjAyMywwLDEuNDE0TDQzLjI5MywxOC43MDh6IiBmaWxsPSIjMzk0MjQwIi8+JiN4YTsJCTxwYXRoIGQ9Ik00My4yOTMsMjMuNzA3QzQzLjQ4OCwyMy45MDIsNDMuNzQ0LDI0LDQ0LDI0czAuNTEyLTAuMDk4LDAuNzA3LTAuMjkzYzAuMzkxLTAuMzkxLDAuMzkxLTEuMDIzLDAtMS40MTQmIzEwOyYjOTsmIzk7JiM5O2wtNy03Yy0wLjM5MS0wLjM5MS0xLjAyMy0wLjM5MS0xLjQxNCwwcy0wLjM5MSwxLjAyMywwLDEuNDE0TDQzLjI5MywyMy43MDd6IiBmaWxsPSIjMzk0MjQwIi8+JiN4YTsJPC9nPiYjeGE7CTxnPiYjeGE7CQk8cmVjdCBoZWlnaHQ9IjQiIHdpZHRoPSI2IiBmaWxsPSIjNTA2QzdGIiB5PSI1NCIgeD0iOCIvPiYjeGE7CQk8cmVjdCBoZWlnaHQ9IjQiIHdpZHRoPSI2IiBmaWxsPSIjNTA2QzdGIiB5PSI1NCIgeD0iNTAiLz4mI3hhOwk8L2c+JiN4YTsJPGc+JiN4YTsJCTxjaXJjbGUgcj0iMiIgY3k9IjQzIiBjeD0iMTEiIGZpbGw9IiNGOUVCQjIiLz4mI3hhOwkJPGNpcmNsZSByPSIyIiBjeT0iNDMiIGN4PSI1MyIgZmlsbD0iI0Y5RUJCMiIvPiYjeGE7CTwvZz4mI3hhOwk8cGF0aCBkPSJNMzAsMzJIMThjMC0zLjMxMywyLjY4Ny02LDYtNlMzMCwyOC42ODcsMzAsMzJ6IiBmaWxsPSIjMjMxRjIwIiBvcGFjaXR5PSIwLjE1Ii8+JiN4YTs8L2c+JiN4YTs8L3N2Zz4=;" parent="r0GoYTCdLAr58T-955c1-14" vertex="1">
          <mxGeometry x="15" y="15" width="50" height="50" as="geometry" />
        </mxCell>
        <mxCell id="r0GoYTCdLAr58T-955c1-15" value="" style="group" parent="1" vertex="1" connectable="0">
          <mxGeometry x="130" y="275.39" width="80" height="80" as="geometry" />
        </mxCell>
        <mxCell id="r0GoYTCdLAr58T-955c1-7" value="" style="ellipse;whiteSpace=wrap;html=1;aspect=fixed;fillColor=#ffe6cc;strokeColor=#d79b00;" parent="r0GoYTCdLAr58T-955c1-15" vertex="1">
          <mxGeometry width="80" height="80" as="geometry" />
        </mxCell>
        <mxCell id="r0GoYTCdLAr58T-955c1-10" value="" style="shape=image;verticalLabelPosition=bottom;labelBackgroundColor=default;verticalAlign=top;aspect=fixed;imageAspect=0;image=data:image/svg+xml,PHN2ZyB4bWxuczp4bGluaz0iaHR0cDovL3d3dy53My5vcmcvMTk5OS94bGluayIgeG1sbnM9Imh0dHA6Ly93d3cudzMub3JnLzIwMDAvc3ZnIiB4bWw6c3BhY2U9InByZXNlcnZlIiB2aWV3Qm94PSIwIDAgNjQgNjQiIGhlaWdodD0iODAwcHgiIHdpZHRoPSI4MDBweCIgaWQ9IkxheWVyXzEiIHZlcnNpb249IjEuMCI+JiN4YTs8Zz4mI3hhOwk8cGF0aCBkPSJNNTYsNjBjMCwxLjEwNC0wLjg5NiwyLTIsMkgzOFY0N2MwLTAuNTUzLTAuNDQ3LTEtMS0xSDI3Yy0wLjU1MywwLTEsMC40NDctMSwxdjE1SDEwYy0xLjEwNCwwLTItMC44OTYtMi0yJiMxMDsmIzk7JiM5O1YzMS40MTFMMzIuMDA5LDcuNDAzTDU2LDMxLjM5NFY2MHoiIGZpbGw9IiNGOUVCQjIiLz4mI3hhOwk8cG9seWdvbiBwb2ludHM9IjE0LDYgMTgsNiAxOCwxMi42MDEgMTQsMTYuNTkzIiBmaWxsPSIjRjc2RDU3Ii8+JiN4YTsJPHJlY3QgaGVpZ2h0PSIxNCIgd2lkdGg9IjgiIGZpbGw9IiNGOUVCQjIiIHk9IjQ4IiB4PSIyOCIvPiYjeGE7CTxwYXRoIGQ9Ik02MSwzM2MtMC4yNzYsMC0wLjYwMi0wLjAzNi0wLjc4Mi0wLjIxN0wzMi43MTYsNS4yODFjLTAuMTk1LTAuMTk1LTAuNDUxLTAuMjkzLTAuNzA3LTAuMjkzJiMxMDsmIzk7JiM5O3MtMC41MTIsMC4wOTgtMC43MDcsMC4yOTNMMy43OTEsMzIuNzkzQzMuNjEsMzIuOTc0LDMuMjc2LDMzLDMsMzNjLTAuNTUzLDAtMS0wLjQ0Ny0xLTFjMC0wLjI3NiwwLjAxNi0wLjYyMiwwLjE5Ny0wLjgwMyYjMTA7JiM5OyYjOTtMMzEuMDM1LDIuNDFjMCwwLDAuMzczLTAuNDEsMC45NzQtMC40MXMwLjk4MiwwLjM5OCwwLjk4MiwwLjM5OGwyOC44MDYsMjguODA1QzYxLjk3OCwzMS4zODQsNjIsMzEuNzI0LDYyLDMyJiMxMDsmIzk7JiM5O0M2MiwzMi41NTIsNjEuNTUzLDMzLDYxLDMzeiIgZmlsbD0iI0Y3NkQ1NyIvPiYjeGE7CTxnPiYjeGE7CQk8cGF0aCBkPSJNNjMuMjExLDI5Ljc4OUwzNC40MzgsMS4wMTVjMCwwLTAuOTM3LTEuMDE1LTIuNDMtMS4wMTVzLTIuMzc2LDAuOTkxLTIuMzc2LDAuOTkxTDIwLDEwLjYwNFY1JiMxMDsmIzk7JiM5OyYjOTtjMC0wLjU1My0wLjQ0Ny0xLTEtMWgtNmMtMC41NTMsMC0xLDAuNDQ3LTEsMXYxMy41ODlMMC43ODMsMjkuNzgzQzAuMjQsMzAuMzI2LDAsMzEuMTcyLDAsMzJjMCwxLjY1NiwxLjM0MywzLDMsMyYjMTA7JiM5OyYjOTsmIzk7YzAuODI4LDAsMS42NjItMC4yNTEsMi4yMDUtMC43OTRMNiwzMy40MTFWNjBjMCwyLjIxMSwxLjc4OSw0LDQsNGg0NGMyLjIxMSwwLDQtMS43ODksNC00VjMzLjM5NGwwLjgwNCwwLjgwNCYjMTA7JiM5OyYjOTsmIzk7QzU5LjM0NywzNC43MzksNjAuMTcyLDM1LDYxLDM1YzEuNjU3LDAsMy0xLjM0MywzLTNDNjQsMzEuMTcxLDYzLjc1NCwzMC4zMzIsNjMuMjExLDI5Ljc4OXogTTE0LDZoNHY2LjYwMWwtNCwzLjk5MlY2eiBNMzYsNjJoLTgmIzEwOyYjOTsmIzk7JiM5O1Y0OGg4VjYyeiBNNTYsNjBjMCwxLjEwNC0wLjg5NiwyLTIsMkgzOFY0N2MwLTAuNTUzLTAuNDQ3LTEtMS0xSDI3Yy0wLjU1MywwLTEsMC40NDctMSwxdjE1SDEwYy0xLjEwNCwwLTItMC44OTYtMi0yVjMxLjQxMSYjMTA7JiM5OyYjOTsmIzk7TDMyLjAwOSw3LjQwM0w1NiwzMS4zOTRWNjB6IE02MSwzM2MtMC4yNzYsMC0wLjYwMi0wLjAzNi0wLjc4Mi0wLjIxN0wzMi43MTYsNS4yODFjLTAuMTk1LTAuMTk1LTAuNDUxLTAuMjkzLTAuNzA3LTAuMjkzJiMxMDsmIzk7JiM5OyYjOTtzLTAuNTEyLDAuMDk4LTAuNzA3LDAuMjkzTDMuNzkxLDMyLjc5M0MzLjYxLDMyLjk3NCwzLjI3NiwzMywzLDMzYy0wLjU1MywwLTEtMC40NDctMS0xYzAtMC4yNzYsMC4wMTYtMC42MjIsMC4xOTctMC44MDMmIzEwOyYjOTsmIzk7JiM5O0wzMS4wMzUsMi40MWMwLDAsMC4zNzMtMC40MSwwLjk3NC0wLjQxczAuOTgyLDAuMzk4LDAuOTgyLDAuMzk4bDI4LjgwNiwyOC44MDVDNjEuOTc4LDMxLjM4NCw2MiwzMS43MjQsNjIsMzImIzEwOyYjOTsmIzk7JiM5O0M2MiwzMi41NTIsNjEuNTUzLDMzLDYxLDMzeiIgZmlsbD0iIzM5NDI0MCIvPiYjeGE7CQk8cGF0aCBkPSJNMjMsMzJoLThjLTAuNTUzLDAtMSwwLjQ0Ny0xLDF2OGMwLDAuNTUzLDAuNDQ3LDEsMSwxaDhjMC41NTMsMCwxLTAuNDQ3LDEtMXYtOCYjMTA7JiM5OyYjOTsmIzk7QzI0LDMyLjQ0NywyMy41NTMsMzIsMjMsMzJ6IE0yMiw0MGgtNnYtNmg2VjQweiIgZmlsbD0iIzM5NDI0MCIvPiYjeGE7CQk8cGF0aCBkPSJNNDEsNDJoOGMwLjU1MywwLDEtMC40NDcsMS0xdi04YzAtMC41NTMtMC40NDctMS0xLTFoLThjLTAuNTUzLDAtMSwwLjQ0Ny0xLDF2OCYjMTA7JiM5OyYjOTsmIzk7QzQwLDQxLjU1Myw0MC40NDcsNDIsNDEsNDJ6IE00MiwzNGg2djZoLTZWMzR6IiBmaWxsPSIjMzk0MjQwIi8+JiN4YTsJPC9nPiYjeGE7CTxyZWN0IGhlaWdodD0iMTQiIHdpZHRoPSI4IiBmaWxsPSIjNTA2QzdGIiB5PSI0OCIgeD0iMjgiLz4mI3hhOwk8Zz4mI3hhOwkJPHJlY3QgaGVpZ2h0PSI2IiB3aWR0aD0iNiIgZmlsbD0iIzQ1QUFCOCIgeT0iMzQiIHg9IjE2Ii8+JiN4YTsJCTxyZWN0IGhlaWdodD0iNiIgd2lkdGg9IjYiIGZpbGw9IiM0NUFBQjgiIHk9IjM0IiB4PSI0MiIvPiYjeGE7CTwvZz4mI3hhOzwvZz4mI3hhOzwvc3ZnPg==;" parent="r0GoYTCdLAr58T-955c1-15" vertex="1">
          <mxGeometry x="15" y="15" width="50" height="50" as="geometry" />
        </mxCell>
        <mxCell id="r0GoYTCdLAr58T-955c1-16" value="" style="group" parent="1" vertex="1" connectable="0">
          <mxGeometry x="130.5" y="109.38999999999999" width="80" height="80" as="geometry" />
        </mxCell>
        <mxCell id="r0GoYTCdLAr58T-955c1-6" value="" style="ellipse;whiteSpace=wrap;html=1;aspect=fixed;fillColor=#ffe6cc;strokeColor=#d79b00;" parent="r0GoYTCdLAr58T-955c1-16" vertex="1">
          <mxGeometry width="80" height="80" as="geometry" />
        </mxCell>
        <mxCell id="r0GoYTCdLAr58T-955c1-2" value="" style="shape=image;verticalLabelPosition=bottom;labelBackgroundColor=default;verticalAlign=top;aspect=fixed;imageAspect=0;image=data:image/svg+xml,PHN2ZyB4bWxuczp4bGluaz0iaHR0cDovL3d3dy53My5vcmcvMTk5OS94bGluayIgeG1sbnM9Imh0dHA6Ly93d3cudzMub3JnLzIwMDAvc3ZnIiB4bWw6c3BhY2U9InByZXNlcnZlIiB2aWV3Qm94PSIwIDAgNjQgNjQiIGhlaWdodD0iODAwcHgiIHdpZHRoPSI4MDBweCIgaWQ9IkxheWVyXzEiIHZlcnNpb249IjEuMCI+JiN4YTs8Zz4mI3hhOwk8cGF0aCBkPSJNNjIuNzQzLDI2LjE0M2wtMjIuMDk5LTguODRsMC4zNDktMy4xMzdjMC4wNjUtMC43ODEsMC41MzItNy43NDktMy4wNjEtMTEuNjU0QzM2LjQyLDAuODY4LDM0LjM2OSwwLDMyLDAmIzEwOyYjOTsmIzk7cy00LjQyLDAuODY4LTUuOTMzLDIuNTEyYy0zLjU5MywzLjkwNS0zLjEyNiwxMC44NzMtMy4wNTUsMTEuNzA5bDAuNTIsNC42NzdsLTAuMTQ5LTEuMzQzbC0yMi4xNzgsOS42MSYjMTA7JiM5OyYjOTtDMC40NzQsMjcuNDgxLDAsMjguMjAzLDAsMjl2NWMwLDEuMTA0LDAuODk2LDIsMiwyaDIzLjQzM2wxLjQ5OSwxMy40OTRsLTYuMTgxLDQuOTQ0QzIwLjI3Niw1NC44MTcsMjAsNTUuMzkzLDIwLDU2djImIzEwOyYjOTsmIzk7YzAsMS4xMDQsMC44OTYsMiwyLDJoNi4xM2MwLjQxNiwyLjEwMSwxLjY5NSw0LDMuODcsNGMyLjE4NiwwLDMuNDY1LTEuOTE2LDMuODcxLTRINDJjMS4xMDQsMCwyLTAuODk2LDItMnYtMiYjMTA7JiM5OyYjOTtjMC0wLjYwNy0wLjI3Ni0xLjE4My0wLjc1MS0xLjU2MmwtNi4xODEtNC45NDRsMS41NDYtMTMuOTE0TDM4LjU2NywzNkg2MmMxLjEwNCwwLDItMC44OTYsMi0ydi02JiMxMDsmIzk7JiM5O0M2NCwyNy4xODMsNjMuNTAyLDI2LjQ0Niw2Mi43NDMsMjYuMTQzeiBNMiwyOWwyMS42MTQtOS4zNjZMMjQuNzY2LDMwSDJWMjl6IE0yNS4yMSwzNEgydi0yaDIyLjk4OGwwLjM0MSwzLjA3MkwyNS4yMSwzNHogTTIyLDU2JiMxMDsmIzk7JiM5O2w1LjE5My00LjE1NEwyNy44NzcsNThIMjJWNTZ6IE0zMy45OTUsNTkuMDQyQzMzLjkwMyw2MC4wNjQsMzMuMzY4LDYyLDMyLDYyYy0xLjM2NywwLTEuOTA2LTEuOTYzLTIuMDA1LTMuMDRsLTQuOTkxLTQ0LjkzMyYjMTA7JiM5OyYjOTtjLTAuMDQxLTAuNTA4LTAuNDgzLTYuODgxLDIuNTM1LTEwLjE2MUMyOC42NzksMi42MjgsMzAuMTgsMiwzMiwyczMuMzIxLDAuNjI4LDQuNDYxLDEuODY2YzMuMDA4LDMuMjcsMi41ODEsOS41OTYsMi41NDEsMTAuMTA4JiMxMDsmIzk7JiM5O0wzMy45OTUsNTkuMDQyeiBNNDIsNTZ2MmgtNS44NzdsMC42ODQtNi4xNTRMNDIsNTZ6IE02MiwzNEgzOC43ODlsMC4yMjMtMkg2MlYzNHogTTYyLDMwSDM5LjIzNGwxLjE4MS0xMC42MzRMNjIsMjhWMzB6IiBmaWxsPSIjMzk0MjQwIi8+JiN4YTsJPHBhdGggZD0iTTMzLjk5NSw1OS4wNDJDMzMuOTAzLDYwLjA2NCwzMy4zNjgsNjIsMzIsNjJjLTEuMzY3LDAtMS45MDYtMS45NjMtMi4wMDUtMy4wNGwtNC45OTEtNDQuOTMzJiMxMDsmIzk7JiM5O2MtMC4wNDEtMC41MDgtMC40ODMtNi44ODEsMi41MzUtMTAuMTYxQzI4LjY3OSwyLjYyOCwzMC4xOCwyLDMyLDJzMy4zMjEsMC42MjgsNC40NjEsMS44NjZjMy4wMDgsMy4yNywyLjU4MSw5LjU5NiwyLjU0MSwxMC4xMDgmIzEwOyYjOTsmIzk7TDMzLjk5NSw1OS4wNDJ6IiBmaWxsPSIjRjc2RDU3Ii8+JiN4YTsJPGc+JiN4YTsJCTxwb2x5Z29uIHBvaW50cz0iMjIsNTYgMjIsNTggMjcuODc3LDU4IDI3LjE5Myw1MS44NDYiIGZpbGw9IiNCNENDQjkiLz4mI3hhOwkJPHBvbHlnb24gcG9pbnRzPSIzNi4xMjMsNTggNDIsNTggNDIsNTYgMzYuODA3LDUxLjg0NiIgZmlsbD0iI0I0Q0NCOSIvPiYjeGE7CQk8cG9seWdvbiBwb2ludHM9IjIzLjYxNCwxOS42MzQgMiwyOSAyLDMwIDI0Ljc2NiwzMCIgZmlsbD0iI0I0Q0NCOSIvPiYjeGE7CQk8cG9seWdvbiBwb2ludHM9IjI1LjMyOSwzNS4wNzIgMjQuOTg4LDMyIDIsMzIgMiwzNCAyNS4yMSwzNCIgZmlsbD0iI0I0Q0NCOSIvPiYjeGE7CQk8cG9seWdvbiBwb2ludHM9IjM4Ljc4OSwzNCA2MiwzNCA2MiwzMiAzOS4wMTIsMzIiIGZpbGw9IiNCNENDQjkiLz4mI3hhOwkJPHBvbHlnb24gcG9pbnRzPSI0MC40MTUsMTkuMzY2IDM5LjIzNCwzMCA2MiwzMCA2MiwyOCIgZmlsbD0iI0I0Q0NCOSIvPiYjeGE7CTwvZz4mI3hhOwk8ZyBvcGFjaXR5PSIwLjE1Ij4mI3hhOwkJPHBvbHlnb24gcG9pbnRzPSIyLDMyIDIsMzQgMjUuMjEsMzQgMjUuMzI5LDM1LjA3MiAyNC45ODgsMzIiIGZpbGw9IiMyMzFGMjAiLz4mI3hhOwkJPHBvbHlnb24gcG9pbnRzPSIzOS4wMTIsMzIgMzguNzg5LDM0IDYyLDM0IDYyLDMyIiBmaWxsPSIjMjMxRjIwIi8+JiN4YTsJPC9nPiYjeGE7PC9nPiYjeGE7PC9zdmc+;rotation=70;" parent="r0GoYTCdLAr58T-955c1-16" vertex="1">
          <mxGeometry x="15" y="15" width="50" height="50" as="geometry" />
        </mxCell>
        <mxCell id="r0GoYTCdLAr58T-955c1-44" value="" style="rounded=1;whiteSpace=wrap;html=1;rotation=0;fillColor=#f5f5f5;strokeColor=#666666;fontColor=#333333;" parent="1" vertex="1">
          <mxGeometry x="223.5" y="433.39" width="286.5" height="183" as="geometry" />
        </mxCell>
        <mxCell id="r0GoYTCdLAr58T-955c1-47" value="" style="shape=image;verticalLabelPosition=bottom;labelBackgroundColor=default;verticalAlign=top;aspect=fixed;imageAspect=0;image=data:image/svg+xml,PHN2ZyB4bWxuczp4bGluaz0iaHR0cDovL3d3dy53My5vcmcvMTk5OS94bGluayIgeG1sbnM9Imh0dHA6Ly93d3cudzMub3JnLzIwMDAvc3ZnIiB4bWw6c3BhY2U9InByZXNlcnZlIiB2aWV3Qm94PSIwIDAgNjQgNjQiIGhlaWdodD0iODAwcHgiIHdpZHRoPSI4MDBweCIgaWQ9IkxheWVyXzEiIHZlcnNpb249IjEuMCI+JiN4YTs8Zz4mI3hhOwk8cGF0aCBkPSJNNTguOTgyLDMyLjA4OEM1OC45ODUsMzIuMDU3LDU5LDMyLjAzMSw1OSwzMmMwLTIuODY2LTAuNTg5LTI4LTIxLTI4SDI2QzEyLjY1NCw0LDUsMTQuMjA2LDUsMzImIzEwOyYjOTsmIzk7YzAsMC4wMzEsMC4wMTUsMC4wNTcsMC4wMTgsMC4wODhDMi4xNzYsMzIuNTU5LDAsMzUuMDI3LDAsMzh2MTBjMCwzLjMwOSwyLjY5MSw2LDYsNnY1YzAsMC41NTMsMC40NDcsMSwxLDFoOGMwLjU1MywwLDEtMC40NDcsMS0xJiMxMDsmIzk7JiM5O3YtNWgzMnY1YzAsMC41NTMsMC40NDcsMSwxLDFoOGMwLjU1MywwLDEtMC40NDcsMS0xdi01YzMuMzA5LDAsNi0yLjY5MSw2LTZWMzhDNjQsMzUuMDI3LDYxLjgyNCwzMi41NTksNTguOTgyLDMyLjA4OHogTTI2LDZoMTImIzEwOyYjOTsmIzk7YzE4LjQ2NywwLDE5LDIzLjMzOSwxOSwyNmgtMmMwLTIuNDU2LTAuNTA1LTI0LTE4LTI0SDI3QzE1LjM5Myw4LDksMTYuNTIzLDksMzJIN0M3LDkuMzc4LDE4LjkwNCw2LDI2LDZ6IE0yNCwyNCYjMTA7JiM5OyYjOTtjLTQuNDE4LDAtOCwzLjU4Mi04LDhoLTVjMC0xOC4xODQsOC43MDEtMjIsMTYtMjJoMTBjNi4zNCwwLDEwLjkwOSwzLjE2LDEzLjU4MSw5LjM5NEM1Mi44MjUsMjQuNjMyLDUzLDMwLjM2Nyw1MywzMkgzMiYjMTA7JiM5OyYjOTtDMzIsMjcuNTgyLDI4LjQxOCwyNCwyNCwyNHogTTMwLDMySDE4YzAtMy4zMTMsMi42ODctNiw2LTZTMzAsMjguNjg3LDMwLDMyeiBNMTQsNThIOHYtNGg2VjU4eiBNNTYsNThoLTZ2LTRoNlY1OHogTTYyLDQ4JiMxMDsmIzk7JiM5O2MwLDIuMjA2LTEuNzk0LDQtNCw0SDZjLTIuMjA2LDAtNC0xLjc5NC00LTRWMzhjMC0yLjIwNiwxLjc5NC00LDQtNGg1MmMyLjIwNiwwLDQsMS43OTQsNCw0VjQ4eiIgZmlsbD0iIzIzMUYyMCIvPiYjeGE7CTxwYXRoIGQ9Ik0xMSwzOWMtMi4yMDYsMC00LDEuNzk0LTQsNHMxLjc5NCw0LDQsNHM0LTEuNzk0LDQtNFMxMy4yMDYsMzksMTEsMzl6IE0xMSw0NWMtMS4xMDMsMC0yLTAuODk3LTItMiYjMTA7JiM5OyYjOTtzMC44OTctMiwyLTJzMiwwLjg5NywyLDJTMTIuMTAzLDQ1LDExLDQ1eiIgZmlsbD0iIzIzMUYyMCIvPiYjeGE7CTxwYXRoIGQ9Ik01MywzOWMtMi4yMDYsMC00LDEuNzk0LTQsNHMxLjc5NCw0LDQsNHM0LTEuNzk0LDQtNFM1NS4yMDYsMzksNTMsMzl6IE01Myw0NWMtMS4xMDMsMC0yLTAuODk3LTItMiYjMTA7JiM5OyYjOTtzMC44OTctMiwyLTJzMiwwLjg5NywyLDJTNTQuMTAzLDQ1LDUzLDQ1eiIgZmlsbD0iIzIzMUYyMCIvPiYjeGE7CTxwYXRoIGQ9Ik00Myw0MEgyMWMtMC41NTMsMC0xLDAuNDQ3LTEsMXMwLjQ0NywxLDEsMWgyMmMwLjU1MywwLDEtMC40NDcsMS0xUzQzLjU1Myw0MCw0Myw0MHoiIGZpbGw9IiMyMzFGMjAiLz4mI3hhOwk8cGF0aCBkPSJNNDMsNDRIMjFjLTAuNTUzLDAtMSwwLjQ0Ny0xLDFzMC40NDcsMSwxLDFoMjJjMC41NTMsMCwxLTAuNDQ3LDEtMVM0My41NTMsNDQsNDMsNDR6IiBmaWxsPSIjMjMxRjIwIi8+JiN4YTsJPHBhdGggZD0iTTQyLjcwNywxNS4yOTRjLTAuMzkxLTAuMzkxLTEuMDIzLTAuMzkxLTEuNDE0LDBzLTAuMzkxLDEuMDIzLDAsMS40MTRsMiwyJiMxMDsmIzk7JiM5O2MwLjE5NSwwLjE5NSwwLjQ1MSwwLjI5MywwLjcwNywwLjI5M3MwLjUxMi0wLjA5OCwwLjcwNy0wLjI5M2MwLjM5MS0wLjM5MSwwLjM5MS0xLjAyMywwLTEuNDE0TDQyLjcwNywxNS4yOTR6IiBmaWxsPSIjMjMxRjIwIi8+JiN4YTsJPHBhdGggZD0iTTM3LjcwNywxNS4yOTNjLTAuMzkxLTAuMzkxLTEuMDIzLTAuMzkxLTEuNDE0LDBzLTAuMzkxLDEuMDIzLDAsMS40MTRsNyw3QzQzLjQ4OCwyMy45MDIsNDMuNzQ0LDI0LDQ0LDI0JiMxMDsmIzk7JiM5O3MwLjUxMi0wLjA5OCwwLjcwNy0wLjI5M2MwLjM5MS0wLjM5MSwwLjM5MS0xLjAyMywwLTEuNDE0TDM3LjcwNywxNS4yOTN6IiBmaWxsPSIjMjMxRjIwIi8+JiN4YTs8L2c+JiN4YTs8L3N2Zz4=;rotation=0;" parent="1" vertex="1">
          <mxGeometry x="255.5" y="453.5328571428571" width="35.714285714285715" height="35.714285714285715" as="geometry" />
        </mxCell>
        <mxCell id="r0GoYTCdLAr58T-955c1-50" value="" style="rounded=1;whiteSpace=wrap;html=1;rotation=0;fillColor=#f5f5f5;strokeColor=#666666;fontColor=#333333;" parent="1" vertex="1">
          <mxGeometry x="223.5" y="241.39" width="399" height="181" as="geometry" />
        </mxCell>
        <mxCell id="r0GoYTCdLAr58T-955c1-52" value="" style="shape=image;verticalLabelPosition=bottom;labelBackgroundColor=default;verticalAlign=top;aspect=fixed;imageAspect=0;image=data:image/svg+xml,PHN2ZyB4bWxuczp4bGluaz0iaHR0cDovL3d3dy53My5vcmcvMTk5OS94bGluayIgeG1sbnM9Imh0dHA6Ly93d3cudzMub3JnLzIwMDAvc3ZnIiBzdHJva2U9IiMwMDAwMDAiIGZpbGw9IiMwMDAwMDAiIHhtbDpzcGFjZT0icHJlc2VydmUiIHZpZXdCb3g9IjAgMCA2NCA2NCIgaGVpZ2h0PSI4MDBweCIgd2lkdGg9IjgwMHB4IiBpZD0iTGF5ZXJfMSIgdmVyc2lvbj0iMS4wIj4mI3hhOyYjeGE7PGcgc3Ryb2tlLXdpZHRoPSIwIiBpZD0iU1ZHUmVwb19iZ0NhcnJpZXIiLz4mI3hhOyYjeGE7PGcgc3Ryb2tlLWxpbmVqb2luPSJyb3VuZCIgc3Ryb2tlLWxpbmVjYXA9InJvdW5kIiBpZD0iU1ZHUmVwb190cmFjZXJDYXJyaWVyIi8+JiN4YTsmI3hhOzxnIGlkPSJTVkdSZXBvX2ljb25DYXJyaWVyIj4gPGc+IDxyZWN0IGhlaWdodD0iNiIgd2lkdGg9IjYiIGZpbGw9IiNmZmZmZmYiIHk9IjM0IiB4PSIxNiIvPiA8cmVjdCBoZWlnaHQ9IjYiIHdpZHRoPSI2IiBmaWxsPSIjZmZmZmZmIiB5PSIzNCIgeD0iNDIiLz4gPHBhdGggZD0iTTYzLjIxMSwyOS43ODlMMzQuNDM4LDEuMDE1YzAsMC0wLjkzNy0xLjAxNS0yLjQzLTEuMDE1cy0yLjM3NiwwLjk5MS0yLjM3NiwwLjk5MUwyMCwxMC42MDRWNSBjMC0wLjU1My0wLjQ0Ny0xLTEtMWgtNmMtMC41NTMsMC0xLDAuNDQ3LTEsMXYxMy41ODlMMC43ODMsMjkuNzgzQzAuMjQsMzAuMzI2LDAsMzEuMTcyLDAsMzJjMCwxLjY1NiwxLjM0MywzLDMsMyBjMC44MjgsMCwxLjY2Mi0wLjI1MSwyLjIwNS0wLjc5NEw2LDMzLjQxMVY2MGMwLDIuMjExLDEuNzg5LDQsNCw0aDQ0YzIuMjExLDAsNC0xLjc4OSw0LTRWMzMuMzk0bDAuODA0LDAuODA0IEM1OS4zNDcsMzQuNzM5LDYwLjE3MiwzNSw2MSwzNWMxLjY1NywwLDMtMS4zNDMsMy0zQzY0LDMxLjE3MSw2My43NTQsMzAuMzMyLDYzLjIxMSwyOS43ODl6IE0yNCw0MWMwLDAuNTUzLTAuNDQ3LDEtMSwxaC04IGMtMC41NTMsMC0xLTAuNDQ3LTEtMXYtOGMwLTAuNTUzLDAuNDQ3LTEsMS0xaDhjMC41NTMsMCwxLDAuNDQ3LDEsMVY0MXogTTM4LDYyLjAwMkgyNnYtMTVjMC0wLjU1MywwLjQ0Ny0xLDEtMWgxMCBjMC41NTMsMCwxLDAuNDQ3LDEsMVY2Mi4wMDJ6IE01MCw0MWMwLDAuNTUzLTAuNDQ3LDEtMSwxaC04Yy0wLjU1MywwLTEtMC40NDctMS0xdi04YzAtMC41NTMsMC40NDctMSwxLTFoOGMwLjU1MywwLDEsMC40NDcsMSwxIFY0MXogTTYxLDMzYy0wLjI3NiwwLTAuNjAyLTAuMDM2LTAuNzgyLTAuMjE3TDMyLjcxNiw1LjI4MWMtMC4xOTUtMC4xOTUtMC40NTEtMC4yOTMtMC43MDctMC4yOTNzLTAuNTEyLDAuMDk4LTAuNzA3LDAuMjkzIEwzLjc5MSwzMi43OTNDMy42MSwzMi45NzQsMy4yNzYsMzMsMywzM2MtMC41NTMsMC0xLTAuNDQ3LTEtMWMwLTAuMjc2LDAuMDE2LTAuNjIyLDAuMTk3LTAuODAzTDMxLjAzNSwyLjQxIGMwLDAsMC4zNzMtMC40MSwwLjk3NC0wLjQxczAuOTgyLDAuMzk4LDAuOTgyLDAuMzk4bDI4LjgwNiwyOC44MDVDNjEuOTc4LDMxLjM4NCw2MiwzMS43MjQsNjIsMzJDNjIsMzIuNTUyLDYxLjU1MywzMyw2MSwzM3oiIGZpbGw9IiNmZmZmZmYiLz4gPC9nPiA8L2c+JiN4YTsmI3hhOzwvc3ZnPg==;rotation=0;" parent="1" vertex="1">
          <mxGeometry x="255.5" y="263.5328571428571" width="35.714285714285715" height="35.714285714285715" as="geometry" />
        </mxCell>
        <mxCell id="r0GoYTCdLAr58T-955c1-56" value="" style="rounded=1;whiteSpace=wrap;html=1;rotation=0;fillColor=#f5f5f5;strokeColor=#666666;fontColor=#333333;" parent="1" vertex="1">
          <mxGeometry x="223.5" y="88.39" width="160.5" height="137" as="geometry" />
        </mxCell>
        <mxCell id="r0GoYTCdLAr58T-955c1-57" value="" style="shape=image;verticalLabelPosition=bottom;labelBackgroundColor=default;verticalAlign=top;aspect=fixed;imageAspect=0;image=data:image/svg+xml,PHN2ZyB4bWxuczp4bGluaz0iaHR0cDovL3d3dy53My5vcmcvMTk5OS94bGluayIgeG1sbnM9Imh0dHA6Ly93d3cudzMub3JnLzIwMDAvc3ZnIiB4bWw6c3BhY2U9InByZXNlcnZlIiB2aWV3Qm94PSIwIDAgNjQgNjQiIGhlaWdodD0iODAwcHgiIHdpZHRoPSI4MDBweCIgaWQ9IkxheWVyXzEiIHZlcnNpb249IjEuMCI+JiN4YTs8cGF0aCBkPSJNNjIuNzQzLDI2LjE0M2wtMjIuMDk5LTguODRsMC4zNDktMy4xMzdjMC4wNjUtMC43ODEsMC41MzItNy43NDktMy4wNjEtMTEuNjU0QzM2LjQyLDAuODY4LDM0LjM2OSwwLDMyLDAmIzEwOyYjOTtzLTQuNDIsMC44NjgtNS45MzMsMi41MTJjLTMuNTkzLDMuOTA1LTMuMTI2LDEwLjg3My0zLjA1NSwxMS43MDlsMC4zNywzLjMzNGwtMjIuMTc4LDkuNjFDMC40NzQsMjcuNDgxLDAsMjguMjAzLDAsMjl2NSYjMTA7JiM5O2MwLDEuMTA0LDAuODk2LDIsMiwyaDIzLjQzM2wxLjQ5OSwxMy40OTRsLTYuMTgxLDQuOTQ0QzIwLjI3Niw1NC44MTcsMjAsNTUuMzkzLDIwLDU2djJjMCwxLjEwNCwwLjg5NiwyLDIsMmg2LjEzJiMxMDsmIzk7YzAuNDE2LDIuMTAxLDEuNjk1LDQsMy44Nyw0YzIuMTg2LDAsMy40NjUtMS45MTYsMy44NzEtNEg0MmMxLjEwNCwwLDItMC44OTYsMi0ydi0yYzAtMC42MDctMC4yNzYtMS4xODMtMC43NTEtMS41NjJsLTYuMTgxLTQuOTQ0JiMxMDsmIzk7TDM4LjU2NywzNkg2MmMxLjEwNCwwLDItMC44OTYsMi0ydi02QzY0LDI3LjE4Myw2My41MDIsMjYuNDQ2LDYyLjc0MywyNi4xNDN6IE0yLDI5bDIxLjYxNC05LjM2NkwyNC43NjYsMzBIMlYyOXogTTI1LjIxLDM0SDJ2LTImIzEwOyYjOTtoMjIuOTg4TDI1LjIxLDM0eiBNMjIsNTh2LTJsNS4xOTMtNC4xNTRMMjcuODc3LDU4SDIyeiBNNDIsNTZ2MmgtNS44NzdsMC42ODQtNi4xNTRMNDIsNTZ6IE0zMy45OTUsNTkuMDQyJiMxMDsmIzk7QzMzLjkwMyw2MC4wNjQsMzMuMzY4LDYyLDMyLDYyYy0xLjM2NywwLTEuOTA2LTEuOTYzLTIuMDA1LTMuMDRsLTQuOTkxLTQ0LjkzM2MtMC4wNDEtMC41MDgtMC40ODMtNi44ODEsMi41MzUtMTAuMTYxJiMxMDsmIzk7QzI4LjY3OSwyLjYyOCwzMC4xOCwyLDMyLDJzMy4zMjEsMC42MjgsNC40NjEsMS44NjZjMy4wMDgsMy4yNywyLjU4MSw5LjU5NiwyLjU0MSwxMC4xMDhMMzMuOTk1LDU5LjA0MnogTTYyLDM0SDM4Ljc4OWwwLjIyMy0ySDYyJiMxMDsmIzk7VjM0eiBNNjIsMzBIMzkuMjM0bDEuMTgxLTEwLjYzNEw2MiwyOFYzMHoiIGZpbGw9IiMyMzFGMjAiLz4mI3hhOzwvc3ZnPg==;rotation=60;" parent="1" vertex="1">
          <mxGeometry x="245" y="103.39285714285717" width="35.714285714285715" height="35.714285714285715" as="geometry" />
        </mxCell>
        <mxCell id="r0GoYTCdLAr58T-955c1-65" value="" style="shape=image;verticalLabelPosition=bottom;labelBackgroundColor=default;verticalAlign=top;aspect=fixed;imageAspect=0;image=data:image/svg+xml,PHN2ZyB4bWxuczp4bGluaz0iaHR0cDovL3d3dy53My5vcmcvMTk5OS94bGluayIgeG1sbnM9Imh0dHA6Ly93d3cudzMub3JnLzIwMDAvc3ZnIiBmaWxsPSIjMDAwMDAwIiB4bWw6c3BhY2U9InByZXNlcnZlIiB2aWV3Qm94PSIwIDAgNjQgNjQiIGhlaWdodD0iODAwcHgiIHdpZHRoPSI4MDBweCIgaWQ9IkxheWVyXzEiIHZlcnNpb249IjEuMCI+JiN4YTsmI3hhOzxnIHN0cm9rZS13aWR0aD0iMCIgaWQ9IlNWR1JlcG9fYmdDYXJyaWVyIi8+JiN4YTsmI3hhOzxnIHN0cm9rZS1saW5lam9pbj0icm91bmQiIHN0cm9rZS1saW5lY2FwPSJyb3VuZCIgaWQ9IlNWR1JlcG9fdHJhY2VyQ2FycmllciIvPiYjeGE7JiN4YTs8ZyBpZD0iU1ZHUmVwb19pY29uQ2FycmllciI+IDxnPiA8Zz4gPGc+IDxwYXRoIGQ9Ik01MCwyYy0wLjU1MywwLTEsMC40NDctMSwxdjF2MnY0YzAsMC41NTMsMC40NDcsMSwxLDFzMS0wLjQ0NywxLTFWNlY0VjNDNTEsMi40NDcsNTAuNTUzLDIsNTAsMnoiIGZpbGw9IiNmZmZmZmYiLz4gPHBhdGggZD0iTTE0LDJjLTAuNTUzLDAtMSwwLjQ0Ny0xLDF2MXYydjRjMCwwLjU1MywwLjQ0NywxLDEsMXMxLTAuNDQ3LDEtMVY2VjRWM0MxNSwyLjQ0NywxNC41NTMsMiwxNCwyeiIgZmlsbD0iI2ZmZmZmZiIvPiA8L2c+IDxwYXRoIGQ9Ik02Miw2MGMwLDEuMTA0LTAuODk2LDItMiwySDRjLTEuMTA0LDAtMi0wLjg5Ni0yLTJWMTdoNjBWNjB6IiBmaWxsPSIjZmZmZmZmIi8+IDxwYXRoIGQ9Ik02MiwxNUgyVjhjMC0xLjEwNCwwLjg5Ni0yLDItMmg3djRjMCwxLjY1NywxLjM0MywzLDMsM3MzLTEuMzQzLDMtM1Y2aDMwdjRjMCwxLjY1NywxLjM0MywzLDMsMyBzMy0xLjM0MywzLTNWNmg3YzEuMTA0LDAsMiwwLjg5NiwyLDJWMTV6IiBmaWxsPSIjZmZmZmZmIi8+IDxnPiA8cGF0aCBkPSJNMTEsNTRoNmMwLjU1MywwLDEtMC40NDcsMS0xdi01YzAtMC41NTMtMC40NDctMS0xLTFoLTZjLTAuNTUzLDAtMSwwLjQ0Ny0xLDF2NSBDMTAsNTMuNTUzLDEwLjQ0Nyw1NCwxMSw1NHogTTEyLDQ5aDR2M2gtNFY0OXoiIGZpbGw9IiMzOTQyNDAiLz4gPHBhdGggZD0iTTIzLDU0aDZjMC41NTMsMCwxLTAuNDQ3LDEtMXYtNWMwLTAuNTUzLTAuNDQ3LTEtMS0xaC02Yy0wLjU1MywwLTEsMC40NDctMSwxdjUgQzIyLDUzLjU1MywyMi40NDcsNTQsMjMsNTR6IE0yNCw0OWg0djNoLTRWNDl6IiBmaWxsPSIjMzk0MjQwIi8+IDxwYXRoIGQ9Ik0zNSw1NGg2YzAuNTUzLDAsMS0wLjQ0NywxLTF2LTVjMC0wLjU1My0wLjQ0Ny0xLTEtMWgtNmMtMC41NTMsMC0xLDAuNDQ3LTEsMXY1IEMzNCw1My41NTMsMzQuNDQ3LDU0LDM1LDU0eiBNMzYsNDloNHYzaC00VjQ5eiIgZmlsbD0iIzM5NDI0MCIvPiA8cGF0aCBkPSJNMTEsNDNoNmMwLjU1MywwLDEtMC40NDcsMS0xdi01YzAtMC41NTMtMC40NDctMS0xLTFoLTZjLTAuNTUzLDAtMSwwLjQ0Ny0xLDF2NSBDMTAsNDIuNTUzLDEwLjQ0Nyw0MywxMSw0M3ogTTEyLDM4aDR2M2gtNFYzOHoiIGZpbGw9IiMzOTQyNDAiLz4gPHBhdGggZD0iTTIzLDQzaDZjMC41NTMsMCwxLTAuNDQ3LDEtMXYtNWMwLTAuNTUzLTAuNDQ3LTEtMS0xaC02Yy0wLjU1MywwLTEsMC40NDctMSwxdjUgQzIyLDQyLjU1MywyMi40NDcsNDMsMjMsNDN6IE0yNCwzOGg0djNoLTRWMzh6IiBmaWxsPSIjMzk0MjQwIi8+IDxwYXRoIGQ9Ik0zNSw0M2g2YzAuNTUzLDAsMS0wLjQ0NywxLTF2LTVjMC0wLjU1My0wLjQ0Ny0xLTEtMWgtNmMtMC41NTMsMC0xLDAuNDQ3LTEsMXY1IEMzNCw0Mi41NTMsMzQuNDQ3LDQzLDM1LDQzeiBNMzYsMzhoNHYzaC00VjM4eiIgZmlsbD0iIzM5NDI0MCIvPiA8cGF0aCBkPSJNNDcsNDNoNmMwLjU1MywwLDEtMC40NDcsMS0xdi01YzAtMC41NTMtMC40NDctMS0xLTFoLTZjLTAuNTUzLDAtMSwwLjQ0Ny0xLDF2NSBDNDYsNDIuNTUzLDQ2LjQ0Nyw0Myw0Nyw0M3ogTTQ4LDM4aDR2M2gtNFYzOHoiIGZpbGw9IiMzOTQyNDAiLz4gPHBhdGggZD0iTTExLDMyaDZjMC41NTMsMCwxLTAuNDQ3LDEtMXYtNWMwLTAuNTUzLTAuNDQ3LTEtMS0xaC02Yy0wLjU1MywwLTEsMC40NDctMSwxdjUgQzEwLDMxLjU1MywxMC40NDcsMzIsMTEsMzJ6IE0xMiwyN2g0djNoLTRWMjd6IiBmaWxsPSIjMzk0MjQwIi8+IDxwYXRoIGQ9Ik0yMywzMmg2YzAuNTUzLDAsMS0wLjQ0NywxLTF2LTVjMC0wLjU1My0wLjQ0Ny0xLTEtMWgtNmMtMC41NTMsMC0xLDAuNDQ3LTEsMXY1IEMyMiwzMS41NTMsMjIuNDQ3LDMyLDIzLDMyeiBNMjQsMjdoNHYzaC00VjI3eiIgZmlsbD0iIzM5NDI0MCIvPiA8cGF0aCBkPSJNMzUsMzJoNmMwLjU1MywwLDEtMC40NDcsMS0xdi01YzAtMC41NTMtMC40NDctMS0xLTFoLTZjLTAuNTUzLDAtMSwwLjQ0Ny0xLDF2NSBDMzQsMzEuNTUzLDM0LjQ0NywzMiwzNSwzMnogTTM2LDI3aDR2M2gtNFYyN3oiIGZpbGw9IiMzOTQyNDAiLz4gPHBhdGggZD0iTTQ3LDMyaDZjMC41NTMsMCwxLTAuNDQ3LDEtMXYtNWMwLTAuNTUzLTAuNDQ3LTEtMS0xaC02Yy0wLjU1MywwLTEsMC40NDctMSwxdjUgQzQ2LDMxLjU1Myw0Ni40NDcsMzIsNDcsMzJ6IE00OCwyN2g0djNoLTRWMjd6IiBmaWxsPSIjMzk0MjQwIi8+IDxwYXRoIGQ9Ik02MCw0aC03VjNjMC0xLjY1Ny0xLjM0My0zLTMtM3MtMywxLjM0My0zLDN2MUgxN1YzYzAtMS42NTctMS4zNDMtMy0zLTNzLTMsMS4zNDMtMywzdjFINCBDMS43ODksNCwwLDUuNzg5LDAsOHY1MmMwLDIuMjExLDEuNzg5LDQsNCw0aDU2YzIuMjExLDAsNC0xLjc4OSw0LTRWOEM2NCw1Ljc4OSw2Mi4yMTEsNCw2MCw0eiBNNDksM2MwLTAuNTUzLDAuNDQ3LTEsMS0xIHMxLDAuNDQ3LDEsMXY3YzAsMC41NTMtMC40NDcsMS0xLDFzLTEtMC40NDctMS0xVjN6IE0xMywzYzAtMC41NTMsMC40NDctMSwxLTFzMSwwLjQ0NywxLDF2N2MwLDAuNTUzLTAuNDQ3LDEtMSwxcy0xLTAuNDQ3LTEtMSBWM3ogTTYyLDYwYzAsMS4xMDQtMC44OTYsMi0yLDJINGMtMS4xMDQsMC0yLTAuODk2LTItMlYxN2g2MFY2MHogTTYyLDE1SDJWOGMwLTEuMTA0LDAuODk2LTIsMi0yaDd2NGMwLDEuNjU3LDEuMzQzLDMsMywzIHMzLTEuMzQzLDMtM1Y2aDMwdjRjMCwxLjY1NywxLjM0MywzLDMsM3MzLTEuMzQzLDMtM1Y2aDdjMS4xMDQsMCwyLDAuODk2LDIsMlYxNXoiIGZpbGw9IiMzOTQyNDAiLz4gPC9nPiA8L2c+IDxnPiA8cmVjdCBoZWlnaHQ9IjMiIHdpZHRoPSI0IiBmaWxsPSIjZmZmZmZmIiB5PSIyNyIgeD0iMTIiLz4gPHJlY3QgaGVpZ2h0PSIzIiB3aWR0aD0iNCIgZmlsbD0iI2ZmZmZmZiIgeT0iMjciIHg9IjI0Ii8+IDxyZWN0IGhlaWdodD0iMyIgd2lkdGg9IjQiIGZpbGw9IiNmZmZmZmYiIHk9IjI3IiB4PSIzNiIvPiA8cmVjdCBoZWlnaHQ9IjMiIHdpZHRoPSI0IiBmaWxsPSIjZmZmZmZmIiB5PSIyNyIgeD0iNDgiLz4gPHJlY3QgaGVpZ2h0PSIzIiB3aWR0aD0iNCIgZmlsbD0iI2ZmZmZmZiIgeT0iMzgiIHg9IjEyIi8+IDxyZWN0IGhlaWdodD0iMyIgd2lkdGg9IjQiIGZpbGw9IiNmZmZmZmYiIHk9IjM4IiB4PSIyNCIvPiA8cmVjdCBoZWlnaHQ9IjMiIHdpZHRoPSI0IiBmaWxsPSIjZmZmZmZmIiB5PSIzOCIgeD0iMzYiLz4gPHJlY3QgaGVpZ2h0PSIzIiB3aWR0aD0iNCIgZmlsbD0iI2ZmZmZmZiIgeT0iMzgiIHg9IjQ4Ii8+IDxyZWN0IGhlaWdodD0iMyIgd2lkdGg9IjQiIGZpbGw9IiNmZmZmZmYiIHk9IjQ5IiB4PSIxMiIvPiA8cmVjdCBoZWlnaHQ9IjMiIHdpZHRoPSI0IiBmaWxsPSIjZmZmZmZmIiB5PSI0OSIgeD0iMjQiLz4gPHJlY3QgaGVpZ2h0PSIzIiB3aWR0aD0iNCIgZmlsbD0iI2ZmZmZmZiIgeT0iNDkiIHg9IjM2Ii8+IDwvZz4gPC9nPiA8L2c+JiN4YTsmI3hhOzwvc3ZnPg==;" parent="1" vertex="1">
          <mxGeometry x="520.4999999999998" y="263.53" width="35" height="35" as="geometry" />
        </mxCell>
        <mxCell id="r0GoYTCdLAr58T-955c1-66" value="" style="shape=image;verticalLabelPosition=bottom;labelBackgroundColor=default;verticalAlign=top;aspect=fixed;imageAspect=0;image=data:image/svg+xml,PHN2ZyB4bWxuczp4bGluaz0iaHR0cDovL3d3dy53My5vcmcvMTk5OS94bGluayIgeG1sbnM9Imh0dHA6Ly93d3cudzMub3JnLzIwMDAvc3ZnIiBmaWxsPSIjMDAwMDAwIiB4bWw6c3BhY2U9InByZXNlcnZlIiB2aWV3Qm94PSIwIDAgNjQgNjQiIGhlaWdodD0iODAwcHgiIHdpZHRoPSI4MDBweCIgaWQ9IkxheWVyXzEiIHZlcnNpb249IjEuMCI+JiN4YTsmI3hhOzxnIHN0cm9rZS13aWR0aD0iMCIgaWQ9IlNWR1JlcG9fYmdDYXJyaWVyIi8+JiN4YTsmI3hhOzxnIHN0cm9rZS1saW5lam9pbj0icm91bmQiIHN0cm9rZS1saW5lY2FwPSJyb3VuZCIgaWQ9IlNWR1JlcG9fdHJhY2VyQ2FycmllciIvPiYjeGE7JiN4YTs8ZyBpZD0iU1ZHUmVwb19pY29uQ2FycmllciI+IDxnPiA8Zz4gPGc+IDxwYXRoIGQ9Ik01MCwyYy0wLjU1MywwLTEsMC40NDctMSwxdjF2MnY0YzAsMC41NTMsMC40NDcsMSwxLDFzMS0wLjQ0NywxLTFWNlY0VjNDNTEsMi40NDcsNTAuNTUzLDIsNTAsMnoiIGZpbGw9IiNmZmZmZmYiLz4gPHBhdGggZD0iTTE0LDJjLTAuNTUzLDAtMSwwLjQ0Ny0xLDF2MXYydjRjMCwwLjU1MywwLjQ0NywxLDEsMXMxLTAuNDQ3LDEtMVY2VjRWM0MxNSwyLjQ0NywxNC41NTMsMiwxNCwyeiIgZmlsbD0iI2ZmZmZmZiIvPiA8L2c+IDxwYXRoIGQ9Ik02Miw2MGMwLDEuMTA0LTAuODk2LDItMiwySDRjLTEuMTA0LDAtMi0wLjg5Ni0yLTJWMTdoNjBWNjB6IiBmaWxsPSIjZmZmZmZmIi8+IDxwYXRoIGQ9Ik02MiwxNUgyVjhjMC0xLjEwNCwwLjg5Ni0yLDItMmg3djRjMCwxLjY1NywxLjM0MywzLDMsM3MzLTEuMzQzLDMtM1Y2aDMwdjRjMCwxLjY1NywxLjM0MywzLDMsMyBzMy0xLjM0MywzLTNWNmg3YzEuMTA0LDAsMiwwLjg5NiwyLDJWMTV6IiBmaWxsPSIjZmZmZmZmIi8+IDxnPiA8cGF0aCBkPSJNMTEsNTRoNmMwLjU1MywwLDEtMC40NDcsMS0xdi01YzAtMC41NTMtMC40NDctMS0xLTFoLTZjLTAuNTUzLDAtMSwwLjQ0Ny0xLDF2NSBDMTAsNTMuNTUzLDEwLjQ0Nyw1NCwxMSw1NHogTTEyLDQ5aDR2M2gtNFY0OXoiIGZpbGw9IiMzOTQyNDAiLz4gPHBhdGggZD0iTTIzLDU0aDZjMC41NTMsMCwxLTAuNDQ3LDEtMXYtNWMwLTAuNTUzLTAuNDQ3LTEtMS0xaC02Yy0wLjU1MywwLTEsMC40NDctMSwxdjUgQzIyLDUzLjU1MywyMi40NDcsNTQsMjMsNTR6IE0yNCw0OWg0djNoLTRWNDl6IiBmaWxsPSIjMzk0MjQwIi8+IDxwYXRoIGQ9Ik0zNSw1NGg2YzAuNTUzLDAsMS0wLjQ0NywxLTF2LTVjMC0wLjU1My0wLjQ0Ny0xLTEtMWgtNmMtMC41NTMsMC0xLDAuNDQ3LTEsMXY1IEMzNCw1My41NTMsMzQuNDQ3LDU0LDM1LDU0eiBNMzYsNDloNHYzaC00VjQ5eiIgZmlsbD0iIzM5NDI0MCIvPiA8cGF0aCBkPSJNMTEsNDNoNmMwLjU1MywwLDEtMC40NDcsMS0xdi01YzAtMC41NTMtMC40NDctMS0xLTFoLTZjLTAuNTUzLDAtMSwwLjQ0Ny0xLDF2NSBDMTAsNDIuNTUzLDEwLjQ0Nyw0MywxMSw0M3ogTTEyLDM4aDR2M2gtNFYzOHoiIGZpbGw9IiMzOTQyNDAiLz4gPHBhdGggZD0iTTIzLDQzaDZjMC41NTMsMCwxLTAuNDQ3LDEtMXYtNWMwLTAuNTUzLTAuNDQ3LTEtMS0xaC02Yy0wLjU1MywwLTEsMC40NDctMSwxdjUgQzIyLDQyLjU1MywyMi40NDcsNDMsMjMsNDN6IE0yNCwzOGg0djNoLTRWMzh6IiBmaWxsPSIjMzk0MjQwIi8+IDxwYXRoIGQ9Ik0zNSw0M2g2YzAuNTUzLDAsMS0wLjQ0NywxLTF2LTVjMC0wLjU1My0wLjQ0Ny0xLTEtMWgtNmMtMC41NTMsMC0xLDAuNDQ3LTEsMXY1IEMzNCw0Mi41NTMsMzQuNDQ3LDQzLDM1LDQzeiBNMzYsMzhoNHYzaC00VjM4eiIgZmlsbD0iIzM5NDI0MCIvPiA8cGF0aCBkPSJNNDcsNDNoNmMwLjU1MywwLDEtMC40NDcsMS0xdi01YzAtMC41NTMtMC40NDctMS0xLTFoLTZjLTAuNTUzLDAtMSwwLjQ0Ny0xLDF2NSBDNDYsNDIuNTUzLDQ2LjQ0Nyw0Myw0Nyw0M3ogTTQ4LDM4aDR2M2gtNFYzOHoiIGZpbGw9IiMzOTQyNDAiLz4gPHBhdGggZD0iTTExLDMyaDZjMC41NTMsMCwxLTAuNDQ3LDEtMXYtNWMwLTAuNTUzLTAuNDQ3LTEtMS0xaC02Yy0wLjU1MywwLTEsMC40NDctMSwxdjUgQzEwLDMxLjU1MywxMC40NDcsMzIsMTEsMzJ6IE0xMiwyN2g0djNoLTRWMjd6IiBmaWxsPSIjMzk0MjQwIi8+IDxwYXRoIGQ9Ik0yMywzMmg2YzAuNTUzLDAsMS0wLjQ0NywxLTF2LTVjMC0wLjU1My0wLjQ0Ny0xLTEtMWgtNmMtMC41NTMsMC0xLDAuNDQ3LTEsMXY1IEMyMiwzMS41NTMsMjIuNDQ3LDMyLDIzLDMyeiBNMjQsMjdoNHYzaC00VjI3eiIgZmlsbD0iIzM5NDI0MCIvPiA8cGF0aCBkPSJNMzUsMzJoNmMwLjU1MywwLDEtMC40NDcsMS0xdi01YzAtMC41NTMtMC40NDctMS0xLTFoLTZjLTAuNTUzLDAtMSwwLjQ0Ny0xLDF2NSBDMzQsMzEuNTUzLDM0LjQ0NywzMiwzNSwzMnogTTM2LDI3aDR2M2gtNFYyN3oiIGZpbGw9IiMzOTQyNDAiLz4gPHBhdGggZD0iTTQ3LDMyaDZjMC41NTMsMCwxLTAuNDQ3LDEtMXYtNWMwLTAuNTUzLTAuNDQ3LTEtMS0xaC02Yy0wLjU1MywwLTEsMC40NDctMSwxdjUgQzQ2LDMxLjU1Myw0Ni40NDcsMzIsNDcsMzJ6IE00OCwyN2g0djNoLTRWMjd6IiBmaWxsPSIjMzk0MjQwIi8+IDxwYXRoIGQ9Ik02MCw0aC03VjNjMC0xLjY1Ny0xLjM0My0zLTMtM3MtMywxLjM0My0zLDN2MUgxN1YzYzAtMS42NTctMS4zNDMtMy0zLTNzLTMsMS4zNDMtMywzdjFINCBDMS43ODksNCwwLDUuNzg5LDAsOHY1MmMwLDIuMjExLDEuNzg5LDQsNCw0aDU2YzIuMjExLDAsNC0xLjc4OSw0LTRWOEM2NCw1Ljc4OSw2Mi4yMTEsNCw2MCw0eiBNNDksM2MwLTAuNTUzLDAuNDQ3LTEsMS0xIHMxLDAuNDQ3LDEsMXY3YzAsMC41NTMtMC40NDcsMS0xLDFzLTEtMC40NDctMS0xVjN6IE0xMywzYzAtMC41NTMsMC40NDctMSwxLTFzMSwwLjQ0NywxLDF2N2MwLDAuNTUzLTAuNDQ3LDEtMSwxcy0xLTAuNDQ3LTEtMSBWM3ogTTYyLDYwYzAsMS4xMDQtMC44OTYsMi0yLDJINGMtMS4xMDQsMC0yLTAuODk2LTItMlYxN2g2MFY2MHogTTYyLDE1SDJWOGMwLTEuMTA0LDAuODk2LTIsMi0yaDd2NGMwLDEuNjU3LDEuMzQzLDMsMywzIHMzLTEuMzQzLDMtM1Y2aDMwdjRjMCwxLjY1NywxLjM0MywzLDMsM3MzLTEuMzQzLDMtM1Y2aDdjMS4xMDQsMCwyLDAuODk2LDIsMlYxNXoiIGZpbGw9IiMzOTQyNDAiLz4gPC9nPiA8L2c+IDxnPiA8cmVjdCBoZWlnaHQ9IjMiIHdpZHRoPSI0IiBmaWxsPSIjZmZmZmZmIiB5PSIyNyIgeD0iMTIiLz4gPHJlY3QgaGVpZ2h0PSIzIiB3aWR0aD0iNCIgZmlsbD0iI2ZmZmZmZiIgeT0iMjciIHg9IjI0Ii8+IDxyZWN0IGhlaWdodD0iMyIgd2lkdGg9IjQiIGZpbGw9IiNmZmZmZmYiIHk9IjI3IiB4PSIzNiIvPiA8cmVjdCBoZWlnaHQ9IjMiIHdpZHRoPSI0IiBmaWxsPSIjZmZmZmZmIiB5PSIyNyIgeD0iNDgiLz4gPHJlY3QgaGVpZ2h0PSIzIiB3aWR0aD0iNCIgZmlsbD0iI2ZmZmZmZiIgeT0iMzgiIHg9IjEyIi8+IDxyZWN0IGhlaWdodD0iMyIgd2lkdGg9IjQiIGZpbGw9IiNmZmZmZmYiIHk9IjM4IiB4PSIyNCIvPiA8cmVjdCBoZWlnaHQ9IjMiIHdpZHRoPSI0IiBmaWxsPSIjZmZmZmZmIiB5PSIzOCIgeD0iMzYiLz4gPHJlY3QgaGVpZ2h0PSIzIiB3aWR0aD0iNCIgZmlsbD0iI2ZmZmZmZiIgeT0iMzgiIHg9IjQ4Ii8+IDxyZWN0IGhlaWdodD0iMyIgd2lkdGg9IjQiIGZpbGw9IiNmZmZmZmYiIHk9IjQ5IiB4PSIxMiIvPiA8cmVjdCBoZWlnaHQ9IjMiIHdpZHRoPSI0IiBmaWxsPSIjZmZmZmZmIiB5PSI0OSIgeD0iMjQiLz4gPHJlY3QgaGVpZ2h0PSIzIiB3aWR0aD0iNCIgZmlsbD0iI2ZmZmZmZiIgeT0iNDkiIHg9IjM2Ii8+IDwvZz4gPC9nPiA8L2c+JiN4YTsmI3hhOzwvc3ZnPg==;" parent="1" vertex="1">
          <mxGeometry x="403" y="455.89" width="35" height="35" as="geometry" />
        </mxCell>
        <mxCell id="r0GoYTCdLAr58T-955c1-31" value="" style="rounded=1;whiteSpace=wrap;html=1;rotation=0;fillColor=#fff2cc;strokeColor=#d6b656;" parent="1" vertex="1">
          <mxGeometry x="631.8199999999999" y="633.39" width="488" height="113" as="geometry" />
        </mxCell>
        <mxCell id="r0GoYTCdLAr58T-955c1-36" value="" style="shape=image;verticalLabelPosition=bottom;labelBackgroundColor=default;verticalAlign=top;aspect=fixed;imageAspect=0;image=data:image/svg+xml,PHN2ZyB4bWxuczp4bGluaz0iaHR0cDovL3d3dy53My5vcmcvMTk5OS94bGluayIgeG1sbnM9Imh0dHA6Ly93d3cudzMub3JnLzIwMDAvc3ZnIiB4bWw6c3BhY2U9InByZXNlcnZlIiB2aWV3Qm94PSIwIDAgNjQgNjQiIGhlaWdodD0iODAwcHgiIHdpZHRoPSI4MDBweCIgaWQ9IkxheWVyXzEiIHZlcnNpb249IjEuMCI+JiN4YTs8cGF0aCBkPSJNNjIuNzQzLDI2LjE0M2wtMjIuMDk5LTguODRsMC4zNDktMy4xMzdjMC4wNjUtMC43ODEsMC41MzItNy43NDktMy4wNjEtMTEuNjU0QzM2LjQyLDAuODY4LDM0LjM2OSwwLDMyLDAmIzEwOyYjOTtzLTQuNDIsMC44NjgtNS45MzMsMi41MTJjLTMuNTkzLDMuOTA1LTMuMTI2LDEwLjg3My0zLjA1NSwxMS43MDlsMC4zNywzLjMzNGwtMjIuMTc4LDkuNjFDMC40NzQsMjcuNDgxLDAsMjguMjAzLDAsMjl2NSYjMTA7JiM5O2MwLDEuMTA0LDAuODk2LDIsMiwyaDIzLjQzM2wxLjQ5OSwxMy40OTRsLTYuMTgxLDQuOTQ0QzIwLjI3Niw1NC44MTcsMjAsNTUuMzkzLDIwLDU2djJjMCwxLjEwNCwwLjg5NiwyLDIsMmg2LjEzJiMxMDsmIzk7YzAuNDE2LDIuMTAxLDEuNjk1LDQsMy44Nyw0YzIuMTg2LDAsMy40NjUtMS45MTYsMy44NzEtNEg0MmMxLjEwNCwwLDItMC44OTYsMi0ydi0yYzAtMC42MDctMC4yNzYtMS4xODMtMC43NTEtMS41NjJsLTYuMTgxLTQuOTQ0JiMxMDsmIzk7TDM4LjU2NywzNkg2MmMxLjEwNCwwLDItMC44OTYsMi0ydi02QzY0LDI3LjE4Myw2My41MDIsMjYuNDQ2LDYyLjc0MywyNi4xNDN6IE0yLDI5bDIxLjYxNC05LjM2NkwyNC43NjYsMzBIMlYyOXogTTI1LjIxLDM0SDJ2LTImIzEwOyYjOTtoMjIuOTg4TDI1LjIxLDM0eiBNMjIsNTh2LTJsNS4xOTMtNC4xNTRMMjcuODc3LDU4SDIyeiBNNDIsNTZ2MmgtNS44NzdsMC42ODQtNi4xNTRMNDIsNTZ6IE0zMy45OTUsNTkuMDQyJiMxMDsmIzk7QzMzLjkwMyw2MC4wNjQsMzMuMzY4LDYyLDMyLDYyYy0xLjM2NywwLTEuOTA2LTEuOTYzLTIuMDA1LTMuMDRsLTQuOTkxLTQ0LjkzM2MtMC4wNDEtMC41MDgtMC40ODMtNi44ODEsMi41MzUtMTAuMTYxJiMxMDsmIzk7QzI4LjY3OSwyLjYyOCwzMC4xOCwyLDMyLDJzMy4zMjEsMC42MjgsNC40NjEsMS44NjZjMy4wMDgsMy4yNywyLjU4MSw5LjU5NiwyLjU0MSwxMC4xMDhMMzMuOTk1LDU5LjA0MnogTTYyLDM0SDM4Ljc4OWwwLjIyMy0ySDYyJiMxMDsmIzk7VjM0eiBNNjIsMzBIMzkuMjM0bDEuMTgxLTEwLjYzNEw2MiwyOFYzMHoiIGZpbGw9IiMyMzFGMjAiLz4mI3hhOzwvc3ZnPg==;rotation=60;" parent="1" vertex="1">
          <mxGeometry x="752.8200000000002" y="670.5328571428571" width="35.714285714285715" height="35.714285714285715" as="geometry" />
        </mxCell>
        <mxCell id="r0GoYTCdLAr58T-955c1-37" value="" style="shape=image;verticalLabelPosition=bottom;labelBackgroundColor=default;verticalAlign=top;aspect=fixed;imageAspect=0;image=data:image/svg+xml,PHN2ZyB4bWxuczp4bGluaz0iaHR0cDovL3d3dy53My5vcmcvMTk5OS94bGluayIgeG1sbnM9Imh0dHA6Ly93d3cudzMub3JnLzIwMDAvc3ZnIiBzdHJva2U9IiMwMDAwMDAiIGZpbGw9IiMwMDAwMDAiIHhtbDpzcGFjZT0icHJlc2VydmUiIHZpZXdCb3g9IjAgMCA2NCA2NCIgaGVpZ2h0PSI4MDBweCIgd2lkdGg9IjgwMHB4IiBpZD0iTGF5ZXJfMSIgdmVyc2lvbj0iMS4wIj4mI3hhOyYjeGE7PGcgc3Ryb2tlLXdpZHRoPSIwIiBpZD0iU1ZHUmVwb19iZ0NhcnJpZXIiLz4mI3hhOyYjeGE7PGcgc3Ryb2tlLWxpbmVqb2luPSJyb3VuZCIgc3Ryb2tlLWxpbmVjYXA9InJvdW5kIiBpZD0iU1ZHUmVwb190cmFjZXJDYXJyaWVyIi8+JiN4YTsmI3hhOzxnIGlkPSJTVkdSZXBvX2ljb25DYXJyaWVyIj4gPGc+IDxyZWN0IGhlaWdodD0iNiIgd2lkdGg9IjYiIGZpbGw9IiNmZmZmZmYiIHk9IjM0IiB4PSIxNiIvPiA8cmVjdCBoZWlnaHQ9IjYiIHdpZHRoPSI2IiBmaWxsPSIjZmZmZmZmIiB5PSIzNCIgeD0iNDIiLz4gPHBhdGggZD0iTTYzLjIxMSwyOS43ODlMMzQuNDM4LDEuMDE1YzAsMC0wLjkzNy0xLjAxNS0yLjQzLTEuMDE1cy0yLjM3NiwwLjk5MS0yLjM3NiwwLjk5MUwyMCwxMC42MDRWNSBjMC0wLjU1My0wLjQ0Ny0xLTEtMWgtNmMtMC41NTMsMC0xLDAuNDQ3LTEsMXYxMy41ODlMMC43ODMsMjkuNzgzQzAuMjQsMzAuMzI2LDAsMzEuMTcyLDAsMzJjMCwxLjY1NiwxLjM0MywzLDMsMyBjMC44MjgsMCwxLjY2Mi0wLjI1MSwyLjIwNS0wLjc5NEw2LDMzLjQxMVY2MGMwLDIuMjExLDEuNzg5LDQsNCw0aDQ0YzIuMjExLDAsNC0xLjc4OSw0LTRWMzMuMzk0bDAuODA0LDAuODA0IEM1OS4zNDcsMzQuNzM5LDYwLjE3MiwzNSw2MSwzNWMxLjY1NywwLDMtMS4zNDMsMy0zQzY0LDMxLjE3MSw2My43NTQsMzAuMzMyLDYzLjIxMSwyOS43ODl6IE0yNCw0MWMwLDAuNTUzLTAuNDQ3LDEtMSwxaC04IGMtMC41NTMsMC0xLTAuNDQ3LTEtMXYtOGMwLTAuNTUzLDAuNDQ3LTEsMS0xaDhjMC41NTMsMCwxLDAuNDQ3LDEsMVY0MXogTTM4LDYyLjAwMkgyNnYtMTVjMC0wLjU1MywwLjQ0Ny0xLDEtMWgxMCBjMC41NTMsMCwxLDAuNDQ3LDEsMVY2Mi4wMDJ6IE01MCw0MWMwLDAuNTUzLTAuNDQ3LDEtMSwxaC04Yy0wLjU1MywwLTEtMC40NDctMS0xdi04YzAtMC41NTMsMC40NDctMSwxLTFoOGMwLjU1MywwLDEsMC40NDcsMSwxIFY0MXogTTYxLDMzYy0wLjI3NiwwLTAuNjAyLTAuMDM2LTAuNzgyLTAuMjE3TDMyLjcxNiw1LjI4MWMtMC4xOTUtMC4xOTUtMC40NTEtMC4yOTMtMC43MDctMC4yOTNzLTAuNTEyLDAuMDk4LTAuNzA3LDAuMjkzIEwzLjc5MSwzMi43OTNDMy42MSwzMi45NzQsMy4yNzYsMzMsMywzM2MtMC41NTMsMC0xLTAuNDQ3LTEtMWMwLTAuMjc2LDAuMDE2LTAuNjIyLDAuMTk3LTAuODAzTDMxLjAzNSwyLjQxIGMwLDAsMC4zNzMtMC40MSwwLjk3NC0wLjQxczAuOTgyLDAuMzk4LDAuOTgyLDAuMzk4bDI4LjgwNiwyOC44MDVDNjEuOTc4LDMxLjM4NCw2MiwzMS43MjQsNjIsMzJDNjIsMzIuNTUyLDYxLjU1MywzMyw2MSwzM3oiIGZpbGw9IiNmZmZmZmYiLz4gPC9nPiA8L2c+JiN4YTsmI3hhOzwvc3ZnPg==;rotation=0;" parent="1" vertex="1">
          <mxGeometry x="951.96" y="670.5328571428571" width="35.714285714285715" height="35.714285714285715" as="geometry" />
        </mxCell>
        <mxCell id="r0GoYTCdLAr58T-955c1-38" value="" style="shape=image;verticalLabelPosition=bottom;labelBackgroundColor=default;verticalAlign=top;aspect=fixed;imageAspect=0;image=data:image/svg+xml,PHN2ZyB4bWxuczp4bGluaz0iaHR0cDovL3d3dy53My5vcmcvMTk5OS94bGluayIgeG1sbnM9Imh0dHA6Ly93d3cudzMub3JnLzIwMDAvc3ZnIiB4bWw6c3BhY2U9InByZXNlcnZlIiB2aWV3Qm94PSIwIDAgNjQgNjQiIGhlaWdodD0iODAwcHgiIHdpZHRoPSI4MDBweCIgaWQ9IkxheWVyXzEiIHZlcnNpb249IjEuMCI+JiN4YTs8Zz4mI3hhOwk8cGF0aCBkPSJNNTguOTgyLDMyLjA4OEM1OC45ODUsMzIuMDU3LDU5LDMyLjAzMSw1OSwzMmMwLTIuODY2LTAuNTg5LTI4LTIxLTI4SDI2QzEyLjY1NCw0LDUsMTQuMjA2LDUsMzImIzEwOyYjOTsmIzk7YzAsMC4wMzEsMC4wMTUsMC4wNTcsMC4wMTgsMC4wODhDMi4xNzYsMzIuNTU5LDAsMzUuMDI3LDAsMzh2MTBjMCwzLjMwOSwyLjY5MSw2LDYsNnY1YzAsMC41NTMsMC40NDcsMSwxLDFoOGMwLjU1MywwLDEtMC40NDcsMS0xJiMxMDsmIzk7JiM5O3YtNWgzMnY1YzAsMC41NTMsMC40NDcsMSwxLDFoOGMwLjU1MywwLDEtMC40NDcsMS0xdi01YzMuMzA5LDAsNi0yLjY5MSw2LTZWMzhDNjQsMzUuMDI3LDYxLjgyNCwzMi41NTksNTguOTgyLDMyLjA4OHogTTI2LDZoMTImIzEwOyYjOTsmIzk7YzE4LjQ2NywwLDE5LDIzLjMzOSwxOSwyNmgtMmMwLTIuNDU2LTAuNTA1LTI0LTE4LTI0SDI3QzE1LjM5Myw4LDksMTYuNTIzLDksMzJIN0M3LDkuMzc4LDE4LjkwNCw2LDI2LDZ6IE0yNCwyNCYjMTA7JiM5OyYjOTtjLTQuNDE4LDAtOCwzLjU4Mi04LDhoLTVjMC0xOC4xODQsOC43MDEtMjIsMTYtMjJoMTBjNi4zNCwwLDEwLjkwOSwzLjE2LDEzLjU4MSw5LjM5NEM1Mi44MjUsMjQuNjMyLDUzLDMwLjM2Nyw1MywzMkgzMiYjMTA7JiM5OyYjOTtDMzIsMjcuNTgyLDI4LjQxOCwyNCwyNCwyNHogTTMwLDMySDE4YzAtMy4zMTMsMi42ODctNiw2LTZTMzAsMjguNjg3LDMwLDMyeiBNMTQsNThIOHYtNGg2VjU4eiBNNTYsNThoLTZ2LTRoNlY1OHogTTYyLDQ4JiMxMDsmIzk7JiM5O2MwLDIuMjA2LTEuNzk0LDQtNCw0SDZjLTIuMjA2LDAtNC0xLjc5NC00LTRWMzhjMC0yLjIwNiwxLjc5NC00LDQtNGg1MmMyLjIwNiwwLDQsMS43OTQsNCw0VjQ4eiIgZmlsbD0iIzIzMUYyMCIvPiYjeGE7CTxwYXRoIGQ9Ik0xMSwzOWMtMi4yMDYsMC00LDEuNzk0LTQsNHMxLjc5NCw0LDQsNHM0LTEuNzk0LDQtNFMxMy4yMDYsMzksMTEsMzl6IE0xMSw0NWMtMS4xMDMsMC0yLTAuODk3LTItMiYjMTA7JiM5OyYjOTtzMC44OTctMiwyLTJzMiwwLjg5NywyLDJTMTIuMTAzLDQ1LDExLDQ1eiIgZmlsbD0iIzIzMUYyMCIvPiYjeGE7CTxwYXRoIGQ9Ik01MywzOWMtMi4yMDYsMC00LDEuNzk0LTQsNHMxLjc5NCw0LDQsNHM0LTEuNzk0LDQtNFM1NS4yMDYsMzksNTMsMzl6IE01Myw0NWMtMS4xMDMsMC0yLTAuODk3LTItMiYjMTA7JiM5OyYjOTtzMC44OTctMiwyLTJzMiwwLjg5NywyLDJTNTQuMTAzLDQ1LDUzLDQ1eiIgZmlsbD0iIzIzMUYyMCIvPiYjeGE7CTxwYXRoIGQ9Ik00Myw0MEgyMWMtMC41NTMsMC0xLDAuNDQ3LTEsMXMwLjQ0NywxLDEsMWgyMmMwLjU1MywwLDEtMC40NDcsMS0xUzQzLjU1Myw0MCw0Myw0MHoiIGZpbGw9IiMyMzFGMjAiLz4mI3hhOwk8cGF0aCBkPSJNNDMsNDRIMjFjLTAuNTUzLDAtMSwwLjQ0Ny0xLDFzMC40NDcsMSwxLDFoMjJjMC41NTMsMCwxLTAuNDQ3LDEtMVM0My41NTMsNDQsNDMsNDR6IiBmaWxsPSIjMjMxRjIwIi8+JiN4YTsJPHBhdGggZD0iTTQyLjcwNywxNS4yOTRjLTAuMzkxLTAuMzkxLTEuMDIzLTAuMzkxLTEuNDE0LDBzLTAuMzkxLDEuMDIzLDAsMS40MTRsMiwyJiMxMDsmIzk7JiM5O2MwLjE5NSwwLjE5NSwwLjQ1MSwwLjI5MywwLjcwNywwLjI5M3MwLjUxMi0wLjA5OCwwLjcwNy0wLjI5M2MwLjM5MS0wLjM5MSwwLjM5MS0xLjAyMywwLTEuNDE0TDQyLjcwNywxNS4yOTR6IiBmaWxsPSIjMjMxRjIwIi8+JiN4YTsJPHBhdGggZD0iTTM3LjcwNywxNS4yOTNjLTAuMzkxLTAuMzkxLTEuMDIzLTAuMzkxLTEuNDE0LDBzLTAuMzkxLDEuMDIzLDAsMS40MTRsNyw3QzQzLjQ4OCwyMy45MDIsNDMuNzQ0LDI0LDQ0LDI0JiMxMDsmIzk7JiM5O3MwLjUxMi0wLjA5OCwwLjcwNy0wLjI5M2MwLjM5MS0wLjM5MSwwLjM5MS0xLjAyMywwLTEuNDE0TDM3LjcwNywxNS4yOTN6IiBmaWxsPSIjMjMxRjIwIi8+JiN4YTs8L2c+JiN4YTs8L3N2Zz4=;rotation=0;" parent="1" vertex="1">
          <mxGeometry x="852.96" y="670.5328571428571" width="35.714285714285715" height="35.714285714285715" as="geometry" />
        </mxCell>
        <mxCell id="r0GoYTCdLAr58T-955c1-69" value="flight_booked" style="text;html=1;align=center;verticalAlign=middle;resizable=0;points=[];autosize=1;strokeColor=none;fillColor=none;" parent="1" vertex="1">
          <mxGeometry x="727.1800000000001" y="703.39" width="89" height="26" as="geometry" />
        </mxCell>
        <mxCell id="r0GoYTCdLAr58T-955c1-70" value="car_booked" style="text;html=1;align=center;verticalAlign=middle;resizable=0;points=[];autosize=1;strokeColor=none;fillColor=none;" parent="1" vertex="1">
          <mxGeometry x="830.8200000000002" y="703.39" width="81" height="26" as="geometry" />
        </mxCell>
        <mxCell id="r0GoYTCdLAr58T-955c1-71" value="room_booked" style="text;html=1;align=center;verticalAlign=middle;resizable=0;points=[];autosize=1;strokeColor=none;fillColor=none;" parent="1" vertex="1">
          <mxGeometry x="924.3200000000002" y="703.39" width="91" height="26" as="geometry" />
        </mxCell>
        <mxCell id="r0GoYTCdLAr58T-955c1-72" value="status" style="text;html=1;align=center;verticalAlign=middle;resizable=0;points=[];autosize=1;strokeColor=none;fillColor=none;" parent="1" vertex="1">
          <mxGeometry x="1044.1800000000003" y="702.39" width="50" height="26" as="geometry" />
        </mxCell>
        <mxCell id="r0GoYTCdLAr58T-955c1-76" value="" style="shape=image;verticalLabelPosition=bottom;labelBackgroundColor=default;verticalAlign=top;aspect=fixed;imageAspect=0;image=data:image/svg+xml,PHN2ZyB4bWxucz0iaHR0cDovL3d3dy53My5vcmcvMjAwMC9zdmciIGZpbGw9Im5vbmUiIHZpZXdCb3g9IjAgMCA0OCA0OCIgaGVpZ2h0PSI4MDBweCIgd2lkdGg9IjgwMHB4Ij4mI3hhOyYjeGE7PGcgc3Ryb2tlLXdpZHRoPSIwIiBpZD0iU1ZHUmVwb19iZ0NhcnJpZXIiLz4mI3hhOyYjeGE7PGcgc3Ryb2tlLWxpbmVqb2luPSJyb3VuZCIgc3Ryb2tlLWxpbmVjYXA9InJvdW5kIiBpZD0iU1ZHUmVwb190cmFjZXJDYXJyaWVyIi8+JiN4YTsmI3hhOzxnIGlkPSJTVkdSZXBvX2ljb25DYXJyaWVyIj4gPHBhdGggc3Ryb2tlLWxpbmVqb2luPSJyb3VuZCIgc3Ryb2tlLXdpZHRoPSIyIiBzdHJva2U9IiM2OTcyNzAiIGZpbGw9IiMiIGQ9Ik0zNiAzM0w0MiA0QzQyIDQgMzEuNSA2IDMxLjUgMTBDMzEuNSAxMi41IDM1LjUgMTQgMzQgMTUuNUMzMi41IDE3IDI3IDE4LjUgMjcgMjIuNUMyNyAyNSAyOC42NDA2IDI2Ljg1OTQgMjcgMjguNUMyNS41IDMwIDI0IDI5LjIxNDMgMjEuNSAyOC41QzE4LjcgMjcuNyAxMyAyNyAxMSAyNy41QzkgMjggNi45OTk5NyAyOSA3IDMyQzcuMDAwMDEgMzMuNjQ5MiA4IDM1LjUgMTAuNSAzNkMxMyAzNi41IDE2IDM0IDIwIDM0QzI0IDM0IDI5IDM3IDMyIDM3QzM1IDM3IDM2IDMzIDM2IDMzWiIvPiA8cGF0aCBzdHJva2UtbGluZWpvaW49InJvdW5kIiBzdHJva2Utd2lkdGg9IjIiIHN0cm9rZT0iIzY5NzI3MCIgZD0iTTExIDM2TDggNDRINDFMMzUgMzYiLz4gPC9nPiYjeGE7JiN4YTs8L3N2Zz4=;" parent="1" vertex="1">
          <mxGeometry x="249.86" y="196.39" width="16" height="16" as="geometry" />
        </mxCell>
        <mxCell id="r0GoYTCdLAr58T-955c1-104" style="rounded=0;orthogonalLoop=1;jettySize=auto;html=1;endArrow=none;endFill=0;" parent="1" edge="1">
          <mxGeometry relative="1" as="geometry">
            <mxPoint x="303.5" y="281.39" as="targetPoint" />
            <mxPoint x="358.42999999999984" y="281.3900000000001" as="sourcePoint" />
          </mxGeometry>
        </mxCell>
        <mxCell id="r0GoYTCdLAr58T-955c1-85" value="Flight" style="text;html=1;strokeColor=none;fillColor=none;align=center;verticalAlign=middle;whiteSpace=wrap;rounded=0;fontStyle=5" parent="1" vertex="1">
          <mxGeometry x="232.86" y="140.25" width="60" height="24" as="geometry" />
        </mxCell>
        <mxCell id="r0GoYTCdLAr58T-955c1-87" value="remaining_seats" style="text;html=1;strokeColor=none;fillColor=none;align=left;verticalAlign=middle;whiteSpace=wrap;rounded=0;" parent="1" vertex="1">
          <mxGeometry x="265.86" y="192.39" width="129" height="24" as="geometry" />
        </mxCell>
        <mxCell id="r0GoYTCdLAr58T-955c1-88" value="Hotel" style="text;html=1;strokeColor=none;fillColor=none;align=center;verticalAlign=middle;whiteSpace=wrap;rounded=0;fontStyle=5" parent="1" vertex="1">
          <mxGeometry x="243.36" y="300.39" width="60" height="21" as="geometry" />
        </mxCell>
        <mxCell id="r0GoYTCdLAr58T-955c1-89" value="Room" style="text;html=1;strokeColor=none;fillColor=none;align=center;verticalAlign=middle;whiteSpace=wrap;rounded=0;fontStyle=5" parent="1" vertex="1">
          <mxGeometry x="374.64" y="300.78" width="60" height="21" as="geometry" />
        </mxCell>
        <mxCell id="r0GoYTCdLAr58T-955c1-90" value="Availability" style="text;html=1;strokeColor=none;fillColor=none;align=center;verticalAlign=middle;whiteSpace=wrap;rounded=0;fontStyle=5" parent="1" vertex="1">
          <mxGeometry x="507.4999999999998" y="299.66999999999996" width="61" height="21" as="geometry" />
        </mxCell>
        <mxCell id="r0GoYTCdLAr58T-955c1-91" value="Car" style="text;html=1;strokeColor=none;fillColor=none;align=center;verticalAlign=middle;whiteSpace=wrap;rounded=0;fontStyle=5" parent="1" vertex="1">
          <mxGeometry x="243.36" y="492.39" width="60" height="21" as="geometry" />
        </mxCell>
        <mxCell id="r0GoYTCdLAr58T-955c1-92" value="Availability" style="text;html=1;strokeColor=none;fillColor=none;align=center;verticalAlign=middle;whiteSpace=wrap;rounded=0;fontStyle=5" parent="1" vertex="1">
          <mxGeometry x="390.5" y="492.39" width="60" height="21" as="geometry" />
        </mxCell>
        <mxCell id="r0GoYTCdLAr58T-955c1-100" value="1" style="text;html=1;strokeColor=none;fillColor=none;align=center;verticalAlign=middle;whiteSpace=wrap;rounded=0;" parent="1" vertex="1">
          <mxGeometry x="301.5" y="266.39" width="11.14" height="14" as="geometry" />
        </mxCell>
        <mxCell id="r0GoYTCdLAr58T-955c1-101" value="1..n" style="text;html=1;strokeColor=none;fillColor=none;align=center;verticalAlign=middle;whiteSpace=wrap;rounded=0;" parent="1" vertex="1">
          <mxGeometry x="343.5" y="266.39" width="11.14" height="14" as="geometry" />
        </mxCell>
        <mxCell id="r0GoYTCdLAr58T-955c1-102" style="rounded=0;orthogonalLoop=1;jettySize=auto;html=1;endArrow=none;endFill=0;" parent="1" edge="1">
          <mxGeometry relative="1" as="geometry">
            <mxPoint x="495.5" y="280.66999999999996" as="sourcePoint" />
            <mxPoint x="440.56999999999994" y="280.6700000000001" as="targetPoint" />
          </mxGeometry>
        </mxCell>
        <mxCell id="r0GoYTCdLAr58T-955c1-105" value="1" style="text;html=1;strokeColor=none;fillColor=none;align=center;verticalAlign=middle;whiteSpace=wrap;rounded=0;" parent="1" vertex="1">
          <mxGeometry x="438.5" y="265.66999999999996" width="11.14" height="14" as="geometry" />
        </mxCell>
        <mxCell id="r0GoYTCdLAr58T-955c1-106" value="0..n" style="text;html=1;strokeColor=none;fillColor=none;align=center;verticalAlign=middle;whiteSpace=wrap;rounded=0;" parent="1" vertex="1">
          <mxGeometry x="480.5" y="265.66999999999996" width="11.14" height="14" as="geometry" />
        </mxCell>
        <mxCell id="r0GoYTCdLAr58T-955c1-107" style="rounded=0;orthogonalLoop=1;jettySize=auto;html=1;endArrow=none;endFill=0;" parent="1" edge="1">
          <mxGeometry relative="1" as="geometry">
            <mxPoint x="369.42999999999995" y="475.39" as="sourcePoint" />
            <mxPoint x="314.42999999999995" y="475.39" as="targetPoint" />
          </mxGeometry>
        </mxCell>
        <mxCell id="r0GoYTCdLAr58T-955c1-108" value="1" style="text;html=1;strokeColor=none;fillColor=none;align=center;verticalAlign=middle;whiteSpace=wrap;rounded=0;" parent="1" vertex="1">
          <mxGeometry x="312.42999999999995" y="460.39" width="11.14" height="14" as="geometry" />
        </mxCell>
        <mxCell id="r0GoYTCdLAr58T-955c1-109" value="0..n" style="text;html=1;strokeColor=none;fillColor=none;align=center;verticalAlign=middle;whiteSpace=wrap;rounded=0;" parent="1" vertex="1">
          <mxGeometry x="354.42999999999995" y="460.39" width="11.14" height="14" as="geometry" />
        </mxCell>
        <mxCell id="r0GoYTCdLAr58T-955c1-116" value="" style="shape=image;verticalLabelPosition=bottom;labelBackgroundColor=default;verticalAlign=top;aspect=fixed;imageAspect=0;image=data:image/svg+xml,PHN2ZyB4bWxucz0iaHR0cDovL3d3dy53My5vcmcvMjAwMC9zdmciIGZpbGw9Im5vbmUiIHZpZXdCb3g9IjAgMCAyNCAyNCIgaGVpZ2h0PSI4MDBweCIgd2lkdGg9IjgwMHB4Ij4mI3hhOzxwYXRoIGZpbGw9IiMxQzI3NEMiIGQ9Ik01Ljc1IDFDNi4xNjQyMSAxIDYuNSAxLjMzNTc5IDYuNSAxLjc1VjMuNkw4LjIyMDY3IDMuMjU1ODdDOS44NzEyIDIuOTI1NzYgMTEuNTgyMSAzLjA4Mjg0IDEzLjE0NDkgMy43MDc5N0wxMy41NTgyIDMuODczMjlDMTQuOTgzMSA0LjQ0MzIzIDE2LjU1MTMgNC41NDk2NyAxOC4wNDAxIDQuMTc3NDZDMTguNjcxMSA0LjAxOTcyIDE5LjE3NzggNC43MDM2IDE4Ljg0MzIgNS4yNjEzMkwxNy41NjQ3IDcuMzkyMjFDMTcuMjIzMiA3Ljk2MTM3IDE3LjA1MjQgOC4yNDU5NSAxNy4wMTE5IDguNTU1NDlDMTYuOTk1MSA4LjY4NDYxIDE2Ljk5NTEgOC44MTUzOSAxNy4wMTE5IDguOTQ0NTFDMTcuMDUyNCA5LjI1NDA1IDE3LjIyMzIgOS41Mzg2MyAxNy41NjQ3IDEwLjEwNzhMMTkuMTI1MyAxMi43MDg5QzE5LjQzNjEgMTMuMjI2OSAxOS4xNTgyIDEzLjg5OCAxOC41NzIxIDE0LjA0NDVMMTguNDcyIDE0LjA2OTVDMTYuNzAyNCAxNC41MTE5IDE0LjgzODUgMTQuMzg1NCAxMy4xNDQ5IDEzLjcwOEMxMS41ODIxIDEzLjA4MjggOS44NzEyIDEyLjkyNTggOC4yMjA2NyAxMy4yNTU5TDYuNSAxMy42VjIxLjc1QzYuNSAyMi4xNjQyIDYuMTY0MjEgMjIuNSA1Ljc1IDIyLjVDNS4zMzU3OSAyMi41IDUgMjIuMTY0MiA1IDIxLjc1VjEuNzVDNSAxLjMzNTc5IDUuMzM1NzkgMSA1Ljc1IDFaIi8+JiN4YTs8L3N2Zz4=;rotation=0;" parent="1" vertex="1">
          <mxGeometry x="776.6000000000001" y="666.3900000000001" width="12.93" height="12.93" as="geometry" />
        </mxCell>
        <mxCell id="r0GoYTCdLAr58T-955c1-117" value="" style="shape=image;verticalLabelPosition=bottom;labelBackgroundColor=default;verticalAlign=top;aspect=fixed;imageAspect=0;image=data:image/svg+xml,PHN2ZyB4bWxucz0iaHR0cDovL3d3dy53My5vcmcvMjAwMC9zdmciIGZpbGw9Im5vbmUiIHZpZXdCb3g9IjAgMCAyNCAyNCIgaGVpZ2h0PSI4MDBweCIgd2lkdGg9IjgwMHB4Ij4mI3hhOzxwYXRoIGZpbGw9IiMxQzI3NEMiIGQ9Ik01Ljc1IDFDNi4xNjQyMSAxIDYuNSAxLjMzNTc5IDYuNSAxLjc1VjMuNkw4LjIyMDY3IDMuMjU1ODdDOS44NzEyIDIuOTI1NzYgMTEuNTgyMSAzLjA4Mjg0IDEzLjE0NDkgMy43MDc5N0wxMy41NTgyIDMuODczMjlDMTQuOTgzMSA0LjQ0MzIzIDE2LjU1MTMgNC41NDk2NyAxOC4wNDAxIDQuMTc3NDZDMTguNjcxMSA0LjAxOTcyIDE5LjE3NzggNC43MDM2IDE4Ljg0MzIgNS4yNjEzMkwxNy41NjQ3IDcuMzkyMjFDMTcuMjIzMiA3Ljk2MTM3IDE3LjA1MjQgOC4yNDU5NSAxNy4wMTE5IDguNTU1NDlDMTYuOTk1MSA4LjY4NDYxIDE2Ljk5NTEgOC44MTUzOSAxNy4wMTE5IDguOTQ0NTFDMTcuMDUyNCA5LjI1NDA1IDE3LjIyMzIgOS41Mzg2MyAxNy41NjQ3IDEwLjEwNzhMMTkuMTI1MyAxMi43MDg5QzE5LjQzNjEgMTMuMjI2OSAxOS4xNTgyIDEzLjg5OCAxOC41NzIxIDE0LjA0NDVMMTguNDcyIDE0LjA2OTVDMTYuNzAyNCAxNC41MTE5IDE0LjgzODUgMTQuMzg1NCAxMy4xNDQ5IDEzLjcwOEMxMS41ODIxIDEzLjA4MjggOS44NzEyIDEyLjkyNTggOC4yMjA2NyAxMy4yNTU5TDYuNSAxMy42VjIxLjc1QzYuNSAyMi4xNjQyIDYuMTY0MjEgMjIuNSA1Ljc1IDIyLjVDNS4zMzU3OSAyMi41IDUgMjIuMTY0MiA1IDIxLjc1VjEuNzVDNSAxLjMzNTc5IDUuMzM1NzkgMSA1Ljc1IDFaIi8+JiN4YTs8L3N2Zz4=;rotation=0;" parent="1" vertex="1">
          <mxGeometry x="878.9600000000003" y="665.3900000000001" width="12.93" height="12.93" as="geometry" />
        </mxCell>
        <mxCell id="r0GoYTCdLAr58T-955c1-118" value="" style="shape=image;verticalLabelPosition=bottom;labelBackgroundColor=default;verticalAlign=top;aspect=fixed;imageAspect=0;image=data:image/svg+xml,PHN2ZyB4bWxucz0iaHR0cDovL3d3dy53My5vcmcvMjAwMC9zdmciIGZpbGw9Im5vbmUiIHZpZXdCb3g9IjAgMCAyNCAyNCIgaGVpZ2h0PSI4MDBweCIgd2lkdGg9IjgwMHB4Ij4mI3hhOzxwYXRoIGZpbGw9IiMxQzI3NEMiIGQ9Ik01Ljc1IDFDNi4xNjQyMSAxIDYuNSAxLjMzNTc5IDYuNSAxLjc1VjMuNkw4LjIyMDY3IDMuMjU1ODdDOS44NzEyIDIuOTI1NzYgMTEuNTgyMSAzLjA4Mjg0IDEzLjE0NDkgMy43MDc5N0wxMy41NTgyIDMuODczMjlDMTQuOTgzMSA0LjQ0MzIzIDE2LjU1MTMgNC41NDk2NyAxOC4wNDAxIDQuMTc3NDZDMTguNjcxMSA0LjAxOTcyIDE5LjE3NzggNC43MDM2IDE4Ljg0MzIgNS4yNjEzMkwxNy41NjQ3IDcuMzkyMjFDMTcuMjIzMiA3Ljk2MTM3IDE3LjA1MjQgOC4yNDU5NSAxNy4wMTE5IDguNTU1NDlDMTYuOTk1MSA4LjY4NDYxIDE2Ljk5NTEgOC44MTUzOSAxNy4wMTE5IDguOTQ0NTFDMTcuMDUyNCA5LjI1NDA1IDE3LjIyMzIgOS41Mzg2MyAxNy41NjQ3IDEwLjEwNzhMMTkuMTI1MyAxMi43MDg5QzE5LjQzNjEgMTMuMjI2OSAxOS4xNTgyIDEzLjg5OCAxOC41NzIxIDE0LjA0NDVMMTguNDcyIDE0LjA2OTVDMTYuNzAyNCAxNC41MTE5IDE0LjgzODUgMTQuMzg1NCAxMy4xNDQ5IDEzLjcwOEMxMS41ODIxIDEzLjA4MjggOS44NzEyIDEyLjkyNTggOC4yMjA2NyAxMy4yNTU5TDYuNSAxMy42VjIxLjc1QzYuNSAyMi4xNjQyIDYuMTY0MjEgMjIuNSA1Ljc1IDIyLjVDNS4zMzU3OSAyMi41IDUgMjIuMTY0MiA1IDIxLjc1VjEuNzVDNSAxLjMzNTc5IDUuMzM1NzkgMSA1Ljc1IDFaIi8+JiN4YTs8L3N2Zz4=;rotation=0;" parent="1" vertex="1">
          <mxGeometry x="974.7400000000002" y="665.3900000000001" width="12.93" height="12.93" as="geometry" />
        </mxCell>
        <mxCell id="tv07I0bE4dOHQFzYiPR3-1" value="flight-service" style="text;html=1;align=center;verticalAlign=middle;resizable=0;points=[];autosize=1;strokeColor=none;fillColor=none;" parent="1" vertex="1">
          <mxGeometry x="129" y="189.39" width="85" height="26" as="geometry" />
        </mxCell>
        <mxCell id="tv07I0bE4dOHQFzYiPR3-2" value="hotel-service" style="text;html=1;align=center;verticalAlign=middle;resizable=0;points=[];autosize=1;strokeColor=none;fillColor=none;" parent="1" vertex="1">
          <mxGeometry x="128.5" y="355.39" width="86" height="26" as="geometry" />
        </mxCell>
        <mxCell id="tv07I0bE4dOHQFzYiPR3-3" value="car-service" style="text;html=1;align=center;verticalAlign=middle;resizable=0;points=[];autosize=1;strokeColor=none;fillColor=none;" parent="1" vertex="1">
          <mxGeometry x="133" y="555.39" width="77" height="26" as="geometry" />
        </mxCell>
        <mxCell id="tv07I0bE4dOHQFzYiPR3-5" value="payment-service" style="text;html=1;align=center;verticalAlign=middle;resizable=0;points=[];autosize=1;strokeColor=none;fillColor=none;" parent="1" vertex="1">
          <mxGeometry x="117" y="715.39" width="106" height="26" as="geometry" />
        </mxCell>
        <mxCell id="tv07I0bE4dOHQFzYiPR3-7" value="" style="rounded=1;whiteSpace=wrap;html=1;rotation=0;fillColor=#fff2cc;strokeColor=#d6b656;" parent="1" vertex="1">
          <mxGeometry x="631.3600000000001" y="88.38999999999999" width="249" height="137" as="geometry" />
        </mxCell>
        <mxCell id="tv07I0bE4dOHQFzYiPR3-9" value="" style="shape=image;verticalLabelPosition=bottom;labelBackgroundColor=default;verticalAlign=top;aspect=fixed;imageAspect=0;image=data:image/svg+xml,PHN2ZyB4bWxucz0iaHR0cDovL3d3dy53My5vcmcvMjAwMC9zdmciIHhtbDpzcGFjZT0icHJlc2VydmUiIHZlcnNpb249IjEuMCIgaGVpZ2h0PSI2NCIgd2lkdGg9IjY0IiB2aWV3Qm94PSIwIDAgNjQgNjQiPiYjeGE7IDxnIGNsYXNzPSJsYXllciI+JiN4YTsgIDx0aXRsZT5MYXllciAxPC90aXRsZT4mI3hhOyAgPGcgaWQ9InN2Z18xIj4mI3hhOyAgIDxnIGlkPSJzdmdfNSI+JiN4YTsgICAgPHBhdGggaWQ9InN2Z182IiBmaWxsPSIjMzk0MjQwIiBkPSJtNTkuMzksOS44NGwtNy44MSwwbDAuMDgsMC45N2MwLC0wLjU0IDEuNzgsLTAuOTMgMS4yNCwtMC45M2wtMTAuMTIsLTAuMDRjLTAuNTQsMCAxLjA3LDAuNDQgMS4wNywwLjk4bC0wLjA4LC0wLjk3bC0yMy40NCwwbC0wLjIsMC45OGMwLC0wLjU0IDEuODYsLTAuOTggMS4zMiwtMC45OGwtMTAuMDQsMGMtMC41NCwwIDAuOSwwLjQ0IDAuOSwwLjk4bDAuMiwtMC45OGwtNy44MSwwYy0yLjE2LDAgLTMuOTEsMS43NSAtMy45MSwzLjkxbDAsMzkuMDZjMCwyLjE2IDEuNzUsMy45MSAzLjkxLDMuOTFsNTQuNjksMGMyLjE2LDAgMy45MSwtMS43NSAzLjkxLC0zLjkxbDAsLTM5LjA2YzAsLTIuMTYgLTEuNzUsLTMuOTEgLTMuOTEsLTMuOTF6bS0xMy41OSwxLjk1bDMuOTEsMGwwLjE3LC0xLjkzbC0zLjkxLDBsLTAuMTcsMS45M3ptLTMwLjIzLC0xLjIybDEuNTYsLTAuMmwxLjA3LC0wLjM5bC0zLjkxLDBsMS4yNywwLjU5em00NS43Nyw0Mi4yNGMwLDEuMDcgLTAuODgsMS45NSAtMS45NSwxLjk1bC01NC42OSwwYy0xLjA3LDAgLTEuOTUsLTAuODggLTEuOTUsLTEuOTVsMCwtMzkuMDZjMCwtMS4wNyAwLjg4LC0xLjk1IDEuOTUsLTEuOTVsNy44MSwwbC0wLjE3LC0wLjgzYzAsMC41NCAtMS4wNywwLjgxIC0wLjUzLDAuODFsOC42NiwwYzAuNTQsMCAtMC4zMiwtMC4yNyAtMC4zMiwtMC44MWwwLjE3LDAuODNsMjMuNDQsMGwwLjI1LC0wLjk2YzAsMC41NCAtMS44NiwwLjkzIC0xLjMyLDAuOTNsOS43NSwwYzAuNTQsMCAtMC42MSwtMC40IC0wLjYxLC0wLjkzbC0wLjI1LDAuOTZsNy44MSwwYzEuMDcsMCAxLjk1LDAuODggMS45NSwxLjk1bDAsMzkuMDZ6Ii8+JiN4YTsgICAgPHBhdGggaWQ9InN2Z183IiBmaWxsPSIjMzk0MjQwIiBkPSJtNDAuOCwzNy4xOGw5Ljc3LDBjMC41NCwwIDAuOTgsLTAuNDQgMC45OCwtMC45OHMtMC40NCwtMC45OCAtMC45OCwtMC45OGwtOS43NywwYy0wLjU0LDAgLTAuOTgsMC40NCAtMC45OCwwLjk4czAuNDQsMC45OCAwLjk4LDAuOTh6Ii8+JiN4YTsgICAgPHBhdGggaWQ9InN2Z184IiBmaWxsPSIjMzk0MjQwIiBkPSJtNTQuNDcsMjkuMzdsLTEzLjY3LDBjLTAuNTQsMCAtMC45OCwwLjQ0IC0wLjk4LDAuOThzMC40NCwwLjk4IDAuOTgsMC45OGwxMy42NywwYzAuNTQsMCAwLjk4LC0wLjQ0IDAuOTgsLTAuOThzLTAuNDQsLTAuOTggLTAuOTgsLTAuOTh6Ii8+JiN4YTsgICAgPHBhdGggaWQ9InN2Z185IiBmaWxsPSIjMzk0MjQwIiBkPSJtNTQuNDcsNDEuMDlsLTEzLjY3LDBjLTAuNTQsMCAtMC45OCwwLjQ0IC0wLjk4LDAuOThzMC40NCwwLjk4IDAuOTgsMC45OGwxMy42NywwYzAuNTQsMCAwLjk4LC0wLjQ0IDAuOTgsLTAuOThzLTAuNDQsLTAuOTggLTAuOTgsLTAuOTh6Ii8+JiN4YTsgICAgPHBhdGggaWQ9InN2Z18xMCIgZmlsbD0iIzM5NDI0MCIgZD0ibTQwLjgsMjUuNDdsNS44NiwwYzAuNTQsMCAwLjk4LC0wLjQ0IDAuOTgsLTAuOThzLTAuNDQsLTAuOTggLTAuOTgsLTAuOThsLTUuODYsMGMtMC41NCwwIC0wLjk4LDAuNDQgLTAuOTgsMC45OHMwLjQ0LDAuOTggMC45OCwwLjk4eiIvPiYjeGE7ICAgIDxwYXRoIGlkPSJzdmdfMTEiIGZpbGw9IiMzOTQyNDAiIGQ9Im0yMi4yNCwxOS42MWMtNy41NSwwIC0xMy42Nyw2LjEyIC0xMy42NywxMy42N3M2LjEyLDEzLjY3IDEzLjY3LDEzLjY3czEzLjY3LC02LjEyIDEzLjY3LC0xMy42N3MtNi4xMiwtMTMuNjcgLTEzLjY3LC0xMy42N3ptMCwyNS4zOWMtMi43NiwwIC01LjMsLTAuOTcgLTcuMywtMi41N2MwLjkyLC0xLjI2IDMuMDUsLTMuMjkgNy4zLC0zLjI5YzQuMjYsMCA2LjQsMi4wMyA3LjMsMy4yOWMtMiwxLjYgLTQuNTQsMi41NyAtNy4zLDIuNTd6bTguNzMsLTMuOTJjLTEuMjUsLTEuNjIgLTMuODYsLTMuOSAtOC43MywtMy45cy03LjQ4LDIuMjggLTguNzMsMy45Yy0xLjg2LC0yLjA3IC0yLjk5LC00LjggLTIuOTksLTcuOGMwLC02LjQ3IDUuMjQsLTExLjcyIDExLjcyLC0xMS43MnMxMS43Miw1LjI0IDExLjcyLDExLjcyYzAsMyAtMS4xMyw1LjczIC0yLjk5LDcuOHoiLz4mI3hhOyAgICA8cGF0aCBpZD0ic3ZnXzEyIiBmaWxsPSIjMzk0MjQwIiBkPSJtMjcuMTMsMzIuM2wwLC0xLjk1YzAsLTIuNyAtMi4xOSwtNC44OCAtNC44OCwtNC44OHMtNC44OCwyLjE5IC00Ljg4LDQuODhsMCwxLjk1YzAsMi43IDIuMTksNC44OCA0Ljg4LDQuODhzNC44OCwtMi4xOSA0Ljg4LC00Ljg4em0tMS45NSwwYzAsMS42MiAtMS4zMSwyLjkzIC0yLjkzLDIuOTNzLTIuOTMsLTEuMzEgLTIuOTMsLTIuOTNsMCwtMS45NWMwLC0xLjYyIDEuMzEsLTIuOTMgMi45MywtMi45M3MyLjkzLDEuMzEgMi45MywyLjkzbDAsMS45NXoiLz4mI3hhOyAgIDwvZz4mI3hhOyAgPC9nPiYjeGE7IDwvZz4mI3hhOzwvc3ZnPg==;" parent="1" vertex="1">
          <mxGeometry x="660.3600000000001" y="123.88999999999999" width="43" height="43" as="geometry" />
        </mxCell>
        <mxCell id="tv07I0bE4dOHQFzYiPR3-10" value="" style="shape=image;verticalLabelPosition=bottom;labelBackgroundColor=default;verticalAlign=top;aspect=fixed;imageAspect=0;image=data:image/svg+xml,PHN2ZyB4bWxucz0iaHR0cDovL3d3dy53My5vcmcvMjAwMC9zdmciIHZpZXdCb3g9IjAgMCAxMDI0IDEwMjQiIGhlaWdodD0iODAwcHgiIHdpZHRoPSI4MDBweCIgZmlsbD0iIzUwNkM3RiI+JiN4YTsmI3hhOzxnIHN0cm9rZS13aWR0aD0iMCIgaWQ9IlNWR1JlcG9fYmdDYXJyaWVyIi8+JiN4YTsmI3hhOzxnIHN0cm9rZS1saW5lam9pbj0icm91bmQiIHN0cm9rZS1saW5lY2FwPSJyb3VuZCIgaWQ9IlNWR1JlcG9fdHJhY2VyQ2FycmllciIvPiYjeGE7JiN4YTs8ZyBpZD0iU1ZHUmVwb19pY29uQ2FycmllciI+JiN4YTsmI3hhOzxwYXRoIGQ9Ik01MTIgMTAyNEMyMjkuMjMgMTAyNCAwIDc5NC43NyAwIDUxMlMyMjkuMjMgMCA1MTIgMHM1MTIgMjI5LjIzIDUxMiA1MTItMjI5LjIzIDUxMi01MTIgNTEyem05NS43MzEtMjE5Ljk0N2M2Mi40MDMtMjAuMjc2IDExNC4wMzItNTguNjkzIDE1MC44NTktMTA3LjM1N2ExNS43OTMgMTUuNzkzIDAgMDA0LjgwMS0xMy44MjMgMTUuMzAyIDE1LjMwMiAwIDAwLS4wNjItLjQ3M2wtLjAwOC0uMDM5YTE1Ljc1IDE1Ljc1IDAgMDAtOC4zNzgtMTEuNDg4bC00NC43MDktMzIuODkzYTE1LjgzNyAxNS44MzcgMCAwMC0xMy43NS00LjU4N2MtLjEyNC4wMTQtLjI0OS4wMjktLjM3My4wNDZsLS4wNTguMDE0YTE1Ljg4IDE1Ljg4IDAgMDAtMTEuNDc4IDguMjM2Yy0yNS43NzYgMzMuODgxLTYxLjYyNCA2MC41NjMtMTA1LjMxIDc0Ljc1OC0xMTMuNDMyIDM2Ljg1Ni0yMzQuNzkxLTI0LjcyMi0yNzEuNTI1LTEzNy43NzdzMjUuMjUzLTIzNC4yMDYgMTM4LjY4NS0yNzEuMDYyYzEwNi4zMzUtMzQuNTUgMjE4LjkwNCAxNS44MiAyNjIuOTY2IDExNS4xNzVsLTcxLjYyMy0uODAzYy03LjE4Ny0xLjA2Ni0xNC4xODkgMi44ODUtMTYuOTgyIDkuNTgxYTE1Ljc0MyAxNS43NDMgMCAwMDQuNzQ4IDE4LjYwMWwxMjAuOTEgMTI2LjQxYzIuOTk5IDMuMTM1IDcuMTYxIDQuODk5IDExLjUxIDQuODc5czguNTAyLTEuODIzIDExLjQ4NS00Ljk4Nkw4OTAuMzcgNDQ4LjIwNmM1LjI2NS00LjE5MyA3LjMwMy0xMS4yNDIgNS4wODItMTcuNTczYTIwLjUxNiAyMC41MTYgMCAwMC0uMTE5LS4zMTggMTUuODg5IDE1Ljg4OSAwIDAwLS45NDctMi4wOTlsLS4wMzEtLjA3M2MtMy4xMTYtNS43MjktOS40NDgtOC45NTEtMTUuOTM3LTguMTA4bC03MS42NzgtLjQ5NC0uODkyLTIuNzQ0Qzc1My41IDI1NS42ODUgNTc5LjYxIDE2Ny40NSA0MTcuOTUyIDIxOS45NzZTMTY3LjQ3OCA0NDYuMDk1IDIxOS44MjYgNjA3LjIwN2M1Mi4zNDggMTYxLjExMiAyMjYuMjM4IDI0OS4zNDcgMzg3Ljg5NiAxOTYuODIxbC4wMDguMDI3eiIvPiYjeGE7JiN4YTs8L2c+JiN4YTsmI3hhOzwvc3ZnPg==;" parent="1" vertex="1">
          <mxGeometry x="806.3600000000001" y="127.38999999999999" width="30" height="30" as="geometry" />
        </mxCell>
        <mxCell id="tv07I0bE4dOHQFzYiPR3-11" value="" style="shape=image;verticalLabelPosition=bottom;labelBackgroundColor=default;verticalAlign=top;aspect=fixed;imageAspect=0;image=data:image/svg+xml,PHN2ZyB4bWxuczp4bGluaz0iaHR0cDovL3d3dy53My5vcmcvMTk5OS94bGluayIgeG1sbnM9Imh0dHA6Ly93d3cudzMub3JnLzIwMDAvc3ZnIiB4bWw6c3BhY2U9InByZXNlcnZlIiB2aWV3Qm94PSIwIDAgNjQgNjQiIGhlaWdodD0iODAwcHgiIHdpZHRoPSI4MDBweCIgaWQ9IkxheWVyXzEiIHZlcnNpb249IjEuMCI+JiN4YTs8cGF0aCBkPSJNNjIuNzQzLDI2LjE0M2wtMjIuMDk5LTguODRsMC4zNDktMy4xMzdjMC4wNjUtMC43ODEsMC41MzItNy43NDktMy4wNjEtMTEuNjU0QzM2LjQyLDAuODY4LDM0LjM2OSwwLDMyLDAmIzEwOyYjOTtzLTQuNDIsMC44NjgtNS45MzMsMi41MTJjLTMuNTkzLDMuOTA1LTMuMTI2LDEwLjg3My0zLjA1NSwxMS43MDlsMC4zNywzLjMzNGwtMjIuMTc4LDkuNjFDMC40NzQsMjcuNDgxLDAsMjguMjAzLDAsMjl2NSYjMTA7JiM5O2MwLDEuMTA0LDAuODk2LDIsMiwyaDIzLjQzM2wxLjQ5OSwxMy40OTRsLTYuMTgxLDQuOTQ0QzIwLjI3Niw1NC44MTcsMjAsNTUuMzkzLDIwLDU2djJjMCwxLjEwNCwwLjg5NiwyLDIsMmg2LjEzJiMxMDsmIzk7YzAuNDE2LDIuMTAxLDEuNjk1LDQsMy44Nyw0YzIuMTg2LDAsMy40NjUtMS45MTYsMy44NzEtNEg0MmMxLjEwNCwwLDItMC44OTYsMi0ydi0yYzAtMC42MDctMC4yNzYtMS4xODMtMC43NTEtMS41NjJsLTYuMTgxLTQuOTQ0JiMxMDsmIzk7TDM4LjU2NywzNkg2MmMxLjEwNCwwLDItMC44OTYsMi0ydi02QzY0LDI3LjE4Myw2My41MDIsMjYuNDQ2LDYyLjc0MywyNi4xNDN6IE0yLDI5bDIxLjYxNC05LjM2NkwyNC43NjYsMzBIMlYyOXogTTI1LjIxLDM0SDJ2LTImIzEwOyYjOTtoMjIuOTg4TDI1LjIxLDM0eiBNMjIsNTh2LTJsNS4xOTMtNC4xNTRMMjcuODc3LDU4SDIyeiBNNDIsNTZ2MmgtNS44NzdsMC42ODQtNi4xNTRMNDIsNTZ6IE0zMy45OTUsNTkuMDQyJiMxMDsmIzk7QzMzLjkwMyw2MC4wNjQsMzMuMzY4LDYyLDMyLDYyYy0xLjM2NywwLTEuOTA2LTEuOTYzLTIuMDA1LTMuMDRsLTQuOTkxLTQ0LjkzM2MtMC4wNDEtMC41MDgtMC40ODMtNi44ODEsMi41MzUtMTAuMTYxJiMxMDsmIzk7QzI4LjY3OSwyLjYyOCwzMC4xOCwyLDMyLDJzMy4zMjEsMC42MjgsNC40NjEsMS44NjZjMy4wMDgsMy4yNywyLjU4MSw5LjU5NiwyLjU0MSwxMC4xMDhMMzMuOTk1LDU5LjA0MnogTTYyLDM0SDM4Ljc4OWwwLjIyMy0ySDYyJiMxMDsmIzk7VjM0eiBNNjIsMzBIMzkuMjM0bDEuMTgxLTEwLjYzNEw2MiwyOFYzMHoiIGZpbGw9IiMyMzFGMjAiLz4mI3hhOzwvc3ZnPg==;rotation=60;" parent="1" vertex="1">
          <mxGeometry x="741.46" y="130.52999999999997" width="29.72" height="29.72" as="geometry" />
        </mxCell>
        <mxCell id="tv07I0bE4dOHQFzYiPR3-12" value="id (original)" style="text;html=1;strokeColor=none;fillColor=none;align=center;verticalAlign=middle;whiteSpace=wrap;rounded=0;" parent="1" vertex="1">
          <mxGeometry x="648.8200000000002" y="162.89" width="67" height="21" as="geometry" />
        </mxCell>
        <mxCell id="tv07I0bE4dOHQFzYiPR3-13" value="flight_id" style="text;html=1;strokeColor=none;fillColor=none;align=center;verticalAlign=middle;whiteSpace=wrap;rounded=0;" parent="1" vertex="1">
          <mxGeometry x="725.8200000000002" y="162.89" width="61" height="21" as="geometry" />
        </mxCell>
        <mxCell id="tv07I0bE4dOHQFzYiPR3-14" value="status" style="text;html=1;strokeColor=none;fillColor=none;align=center;verticalAlign=middle;whiteSpace=wrap;rounded=0;" parent="1" vertex="1">
          <mxGeometry x="793.3600000000001" y="162.89" width="61" height="21" as="geometry" />
        </mxCell>
        <mxCell id="tv07I0bE4dOHQFzYiPR3-15" value="" style="rounded=1;whiteSpace=wrap;html=1;rotation=0;fillColor=#fff2cc;strokeColor=#d6b656;" parent="1" vertex="1">
          <mxGeometry x="631.3599999999999" y="240.66999999999996" width="249" height="180.72" as="geometry" />
        </mxCell>
        <mxCell id="tv07I0bE4dOHQFzYiPR3-16" value="" style="shape=image;verticalLabelPosition=bottom;labelBackgroundColor=default;verticalAlign=top;aspect=fixed;imageAspect=0;image=data:image/svg+xml,PHN2ZyB4bWxucz0iaHR0cDovL3d3dy53My5vcmcvMjAwMC9zdmciIHhtbDpzcGFjZT0icHJlc2VydmUiIHZlcnNpb249IjEuMCIgaGVpZ2h0PSI2NCIgd2lkdGg9IjY0IiB2aWV3Qm94PSIwIDAgNjQgNjQiPiYjeGE7IDxnIGNsYXNzPSJsYXllciI+JiN4YTsgIDx0aXRsZT5MYXllciAxPC90aXRsZT4mI3hhOyAgPGcgaWQ9InN2Z18xIj4mI3hhOyAgIDxnIGlkPSJzdmdfNSI+JiN4YTsgICAgPHBhdGggaWQ9InN2Z182IiBmaWxsPSIjMzk0MjQwIiBkPSJtNTkuMzksOS44NGwtNy44MSwwbDAuMDgsMC45N2MwLC0wLjU0IDEuNzgsLTAuOTMgMS4yNCwtMC45M2wtMTAuMTIsLTAuMDRjLTAuNTQsMCAxLjA3LDAuNDQgMS4wNywwLjk4bC0wLjA4LC0wLjk3bC0yMy40NCwwbC0wLjIsMC45OGMwLC0wLjU0IDEuODYsLTAuOTggMS4zMiwtMC45OGwtMTAuMDQsMGMtMC41NCwwIDAuOSwwLjQ0IDAuOSwwLjk4bDAuMiwtMC45OGwtNy44MSwwYy0yLjE2LDAgLTMuOTEsMS43NSAtMy45MSwzLjkxbDAsMzkuMDZjMCwyLjE2IDEuNzUsMy45MSAzLjkxLDMuOTFsNTQuNjksMGMyLjE2LDAgMy45MSwtMS43NSAzLjkxLC0zLjkxbDAsLTM5LjA2YzAsLTIuMTYgLTEuNzUsLTMuOTEgLTMuOTEsLTMuOTF6bS0xMy41OSwxLjk1bDMuOTEsMGwwLjE3LC0xLjkzbC0zLjkxLDBsLTAuMTcsMS45M3ptLTMwLjIzLC0xLjIybDEuNTYsLTAuMmwxLjA3LC0wLjM5bC0zLjkxLDBsMS4yNywwLjU5em00NS43Nyw0Mi4yNGMwLDEuMDcgLTAuODgsMS45NSAtMS45NSwxLjk1bC01NC42OSwwYy0xLjA3LDAgLTEuOTUsLTAuODggLTEuOTUsLTEuOTVsMCwtMzkuMDZjMCwtMS4wNyAwLjg4LC0xLjk1IDEuOTUsLTEuOTVsNy44MSwwbC0wLjE3LC0wLjgzYzAsMC41NCAtMS4wNywwLjgxIC0wLjUzLDAuODFsOC42NiwwYzAuNTQsMCAtMC4zMiwtMC4yNyAtMC4zMiwtMC44MWwwLjE3LDAuODNsMjMuNDQsMGwwLjI1LC0wLjk2YzAsMC41NCAtMS44NiwwLjkzIC0xLjMyLDAuOTNsOS43NSwwYzAuNTQsMCAtMC42MSwtMC40IC0wLjYxLC0wLjkzbC0wLjI1LDAuOTZsNy44MSwwYzEuMDcsMCAxLjk1LDAuODggMS45NSwxLjk1bDAsMzkuMDZ6Ii8+JiN4YTsgICAgPHBhdGggaWQ9InN2Z183IiBmaWxsPSIjMzk0MjQwIiBkPSJtNDAuOCwzNy4xOGw5Ljc3LDBjMC41NCwwIDAuOTgsLTAuNDQgMC45OCwtMC45OHMtMC40NCwtMC45OCAtMC45OCwtMC45OGwtOS43NywwYy0wLjU0LDAgLTAuOTgsMC40NCAtMC45OCwwLjk4czAuNDQsMC45OCAwLjk4LDAuOTh6Ii8+JiN4YTsgICAgPHBhdGggaWQ9InN2Z184IiBmaWxsPSIjMzk0MjQwIiBkPSJtNTQuNDcsMjkuMzdsLTEzLjY3LDBjLTAuNTQsMCAtMC45OCwwLjQ0IC0wLjk4LDAuOThzMC40NCwwLjk4IDAuOTgsMC45OGwxMy42NywwYzAuNTQsMCAwLjk4LC0wLjQ0IDAuOTgsLTAuOThzLTAuNDQsLTAuOTggLTAuOTgsLTAuOTh6Ii8+JiN4YTsgICAgPHBhdGggaWQ9InN2Z185IiBmaWxsPSIjMzk0MjQwIiBkPSJtNTQuNDcsNDEuMDlsLTEzLjY3LDBjLTAuNTQsMCAtMC45OCwwLjQ0IC0wLjk4LDAuOThzMC40NCwwLjk4IDAuOTgsMC45OGwxMy42NywwYzAuNTQsMCAwLjk4LC0wLjQ0IDAuOTgsLTAuOThzLTAuNDQsLTAuOTggLTAuOTgsLTAuOTh6Ii8+JiN4YTsgICAgPHBhdGggaWQ9InN2Z18xMCIgZmlsbD0iIzM5NDI0MCIgZD0ibTQwLjgsMjUuNDdsNS44NiwwYzAuNTQsMCAwLjk4LC0wLjQ0IDAuOTgsLTAuOThzLTAuNDQsLTAuOTggLTAuOTgsLTAuOThsLTUuODYsMGMtMC41NCwwIC0wLjk4LDAuNDQgLTAuOTgsMC45OHMwLjQ0LDAuOTggMC45OCwwLjk4eiIvPiYjeGE7ICAgIDxwYXRoIGlkPSJzdmdfMTEiIGZpbGw9IiMzOTQyNDAiIGQ9Im0yMi4yNCwxOS42MWMtNy41NSwwIC0xMy42Nyw2LjEyIC0xMy42NywxMy42N3M2LjEyLDEzLjY3IDEzLjY3LDEzLjY3czEzLjY3LC02LjEyIDEzLjY3LC0xMy42N3MtNi4xMiwtMTMuNjcgLTEzLjY3LC0xMy42N3ptMCwyNS4zOWMtMi43NiwwIC01LjMsLTAuOTcgLTcuMywtMi41N2MwLjkyLC0xLjI2IDMuMDUsLTMuMjkgNy4zLC0zLjI5YzQuMjYsMCA2LjQsMi4wMyA3LjMsMy4yOWMtMiwxLjYgLTQuNTQsMi41NyAtNy4zLDIuNTd6bTguNzMsLTMuOTJjLTEuMjUsLTEuNjIgLTMuODYsLTMuOSAtOC43MywtMy45cy03LjQ4LDIuMjggLTguNzMsMy45Yy0xLjg2LC0yLjA3IC0yLjk5LC00LjggLTIuOTksLTcuOGMwLC02LjQ3IDUuMjQsLTExLjcyIDExLjcyLC0xMS43MnMxMS43Miw1LjI0IDExLjcyLDExLjcyYzAsMyAtMS4xMyw1LjczIC0yLjk5LDcuOHoiLz4mI3hhOyAgICA8cGF0aCBpZD0ic3ZnXzEyIiBmaWxsPSIjMzk0MjQwIiBkPSJtMjcuMTMsMzIuM2wwLC0xLjk1YzAsLTIuNyAtMi4xOSwtNC44OCAtNC44OCwtNC44OHMtNC44OCwyLjE5IC00Ljg4LDQuODhsMCwxLjk1YzAsMi43IDIuMTksNC44OCA0Ljg4LDQuODhzNC44OCwtMi4xOSA0Ljg4LC00Ljg4em0tMS45NSwwYzAsMS42MiAtMS4zMSwyLjkzIC0yLjkzLDIuOTNzLTIuOTMsLTEuMzEgLTIuOTMsLTIuOTNsMCwtMS45NWMwLC0xLjYyIDEuMzEsLTIuOTMgMi45MywtMi45M3MyLjkzLDEuMzEgMi45MywyLjkzbDAsMS45NXoiLz4mI3hhOyAgIDwvZz4mI3hhOyAgPC9nPiYjeGE7IDwvZz4mI3hhOzwvc3ZnPg==;" parent="1" vertex="1">
          <mxGeometry x="660.3600000000001" y="299.16999999999996" width="43" height="43" as="geometry" />
        </mxCell>
        <mxCell id="tv07I0bE4dOHQFzYiPR3-17" value="" style="shape=image;verticalLabelPosition=bottom;labelBackgroundColor=default;verticalAlign=top;aspect=fixed;imageAspect=0;image=data:image/svg+xml,PHN2ZyB4bWxucz0iaHR0cDovL3d3dy53My5vcmcvMjAwMC9zdmciIHZpZXdCb3g9IjAgMCAxMDI0IDEwMjQiIGhlaWdodD0iODAwcHgiIHdpZHRoPSI4MDBweCIgZmlsbD0iIzUwNkM3RiI+JiN4YTsmI3hhOzxnIHN0cm9rZS13aWR0aD0iMCIgaWQ9IlNWR1JlcG9fYmdDYXJyaWVyIi8+JiN4YTsmI3hhOzxnIHN0cm9rZS1saW5lam9pbj0icm91bmQiIHN0cm9rZS1saW5lY2FwPSJyb3VuZCIgaWQ9IlNWR1JlcG9fdHJhY2VyQ2FycmllciIvPiYjeGE7JiN4YTs8ZyBpZD0iU1ZHUmVwb19pY29uQ2FycmllciI+JiN4YTsmI3hhOzxwYXRoIGQ9Ik01MTIgMTAyNEMyMjkuMjMgMTAyNCAwIDc5NC43NyAwIDUxMlMyMjkuMjMgMCA1MTIgMHM1MTIgMjI5LjIzIDUxMiA1MTItMjI5LjIzIDUxMi01MTIgNTEyem05NS43MzEtMjE5Ljk0N2M2Mi40MDMtMjAuMjc2IDExNC4wMzItNTguNjkzIDE1MC44NTktMTA3LjM1N2ExNS43OTMgMTUuNzkzIDAgMDA0LjgwMS0xMy44MjMgMTUuMzAyIDE1LjMwMiAwIDAwLS4wNjItLjQ3M2wtLjAwOC0uMDM5YTE1Ljc1IDE1Ljc1IDAgMDAtOC4zNzgtMTEuNDg4bC00NC43MDktMzIuODkzYTE1LjgzNyAxNS44MzcgMCAwMC0xMy43NS00LjU4N2MtLjEyNC4wMTQtLjI0OS4wMjktLjM3My4wNDZsLS4wNTguMDE0YTE1Ljg4IDE1Ljg4IDAgMDAtMTEuNDc4IDguMjM2Yy0yNS43NzYgMzMuODgxLTYxLjYyNCA2MC41NjMtMTA1LjMxIDc0Ljc1OC0xMTMuNDMyIDM2Ljg1Ni0yMzQuNzkxLTI0LjcyMi0yNzEuNTI1LTEzNy43NzdzMjUuMjUzLTIzNC4yMDYgMTM4LjY4NS0yNzEuMDYyYzEwNi4zMzUtMzQuNTUgMjE4LjkwNCAxNS44MiAyNjIuOTY2IDExNS4xNzVsLTcxLjYyMy0uODAzYy03LjE4Ny0xLjA2Ni0xNC4xODkgMi44ODUtMTYuOTgyIDkuNTgxYTE1Ljc0MyAxNS43NDMgMCAwMDQuNzQ4IDE4LjYwMWwxMjAuOTEgMTI2LjQxYzIuOTk5IDMuMTM1IDcuMTYxIDQuODk5IDExLjUxIDQuODc5czguNTAyLTEuODIzIDExLjQ4NS00Ljk4Nkw4OTAuMzcgNDQ4LjIwNmM1LjI2NS00LjE5MyA3LjMwMy0xMS4yNDIgNS4wODItMTcuNTczYTIwLjUxNiAyMC41MTYgMCAwMC0uMTE5LS4zMTggMTUuODg5IDE1Ljg4OSAwIDAwLS45NDctMi4wOTlsLS4wMzEtLjA3M2MtMy4xMTYtNS43MjktOS40NDgtOC45NTEtMTUuOTM3LTguMTA4bC03MS42NzgtLjQ5NC0uODkyLTIuNzQ0Qzc1My41IDI1NS42ODUgNTc5LjYxIDE2Ny40NSA0MTcuOTUyIDIxOS45NzZTMTY3LjQ3OCA0NDYuMDk1IDIxOS44MjYgNjA3LjIwN2M1Mi4zNDggMTYxLjExMiAyMjYuMjM4IDI0OS4zNDcgMzg3Ljg5NiAxOTYuODIxbC4wMDguMDI3eiIvPiYjeGE7JiN4YTs8L2c+JiN4YTsmI3hhOzwvc3ZnPg==;" parent="1" vertex="1">
          <mxGeometry x="806.3600000000001" y="302.66999999999996" width="30" height="30" as="geometry" />
        </mxCell>
        <mxCell id="tv07I0bE4dOHQFzYiPR3-19" value="id" style="text;html=1;strokeColor=none;fillColor=none;align=center;verticalAlign=middle;whiteSpace=wrap;rounded=0;" parent="1" vertex="1">
          <mxGeometry x="651.3600000000001" y="338.16999999999996" width="61" height="21" as="geometry" />
        </mxCell>
        <mxCell id="tv07I0bE4dOHQFzYiPR3-20" value="room_id" style="text;html=1;strokeColor=none;fillColor=none;align=center;verticalAlign=middle;whiteSpace=wrap;rounded=0;" parent="1" vertex="1">
          <mxGeometry x="725.8200000000002" y="338.16999999999996" width="61" height="21" as="geometry" />
        </mxCell>
        <mxCell id="tv07I0bE4dOHQFzYiPR3-21" value="status" style="text;html=1;strokeColor=none;fillColor=none;align=center;verticalAlign=middle;whiteSpace=wrap;rounded=0;" parent="1" vertex="1">
          <mxGeometry x="793.3600000000001" y="338.16999999999996" width="61" height="21" as="geometry" />
        </mxCell>
        <mxCell id="tv07I0bE4dOHQFzYiPR3-24" value="" style="rounded=1;whiteSpace=wrap;html=1;rotation=0;fillColor=#fff2cc;strokeColor=#d6b656;" parent="1" vertex="1">
          <mxGeometry x="631.8199999999999" y="433.39" width="249" height="184" as="geometry" />
        </mxCell>
        <mxCell id="tv07I0bE4dOHQFzYiPR3-25" value="" style="shape=image;verticalLabelPosition=bottom;labelBackgroundColor=default;verticalAlign=top;aspect=fixed;imageAspect=0;image=data:image/svg+xml,PHN2ZyB4bWxucz0iaHR0cDovL3d3dy53My5vcmcvMjAwMC9zdmciIHhtbDpzcGFjZT0icHJlc2VydmUiIHZlcnNpb249IjEuMCIgaGVpZ2h0PSI2NCIgd2lkdGg9IjY0IiB2aWV3Qm94PSIwIDAgNjQgNjQiPiYjeGE7IDxnIGNsYXNzPSJsYXllciI+JiN4YTsgIDx0aXRsZT5MYXllciAxPC90aXRsZT4mI3hhOyAgPGcgaWQ9InN2Z18xIj4mI3hhOyAgIDxnIGlkPSJzdmdfNSI+JiN4YTsgICAgPHBhdGggaWQ9InN2Z182IiBmaWxsPSIjMzk0MjQwIiBkPSJtNTkuMzksOS44NGwtNy44MSwwbDAuMDgsMC45N2MwLC0wLjU0IDEuNzgsLTAuOTMgMS4yNCwtMC45M2wtMTAuMTIsLTAuMDRjLTAuNTQsMCAxLjA3LDAuNDQgMS4wNywwLjk4bC0wLjA4LC0wLjk3bC0yMy40NCwwbC0wLjIsMC45OGMwLC0wLjU0IDEuODYsLTAuOTggMS4zMiwtMC45OGwtMTAuMDQsMGMtMC41NCwwIDAuOSwwLjQ0IDAuOSwwLjk4bDAuMiwtMC45OGwtNy44MSwwYy0yLjE2LDAgLTMuOTEsMS43NSAtMy45MSwzLjkxbDAsMzkuMDZjMCwyLjE2IDEuNzUsMy45MSAzLjkxLDMuOTFsNTQuNjksMGMyLjE2LDAgMy45MSwtMS43NSAzLjkxLC0zLjkxbDAsLTM5LjA2YzAsLTIuMTYgLTEuNzUsLTMuOTEgLTMuOTEsLTMuOTF6bS0xMy41OSwxLjk1bDMuOTEsMGwwLjE3LC0xLjkzbC0zLjkxLDBsLTAuMTcsMS45M3ptLTMwLjIzLC0xLjIybDEuNTYsLTAuMmwxLjA3LC0wLjM5bC0zLjkxLDBsMS4yNywwLjU5em00NS43Nyw0Mi4yNGMwLDEuMDcgLTAuODgsMS45NSAtMS45NSwxLjk1bC01NC42OSwwYy0xLjA3LDAgLTEuOTUsLTAuODggLTEuOTUsLTEuOTVsMCwtMzkuMDZjMCwtMS4wNyAwLjg4LC0xLjk1IDEuOTUsLTEuOTVsNy44MSwwbC0wLjE3LC0wLjgzYzAsMC41NCAtMS4wNywwLjgxIC0wLjUzLDAuODFsOC42NiwwYzAuNTQsMCAtMC4zMiwtMC4yNyAtMC4zMiwtMC44MWwwLjE3LDAuODNsMjMuNDQsMGwwLjI1LC0wLjk2YzAsMC41NCAtMS44NiwwLjkzIC0xLjMyLDAuOTNsOS43NSwwYzAuNTQsMCAtMC42MSwtMC40IC0wLjYxLC0wLjkzbC0wLjI1LDAuOTZsNy44MSwwYzEuMDcsMCAxLjk1LDAuODggMS45NSwxLjk1bDAsMzkuMDZ6Ii8+JiN4YTsgICAgPHBhdGggaWQ9InN2Z183IiBmaWxsPSIjMzk0MjQwIiBkPSJtNDAuOCwzNy4xOGw5Ljc3LDBjMC41NCwwIDAuOTgsLTAuNDQgMC45OCwtMC45OHMtMC40NCwtMC45OCAtMC45OCwtMC45OGwtOS43NywwYy0wLjU0LDAgLTAuOTgsMC40NCAtMC45OCwwLjk4czAuNDQsMC45OCAwLjk4LDAuOTh6Ii8+JiN4YTsgICAgPHBhdGggaWQ9InN2Z184IiBmaWxsPSIjMzk0MjQwIiBkPSJtNTQuNDcsMjkuMzdsLTEzLjY3LDBjLTAuNTQsMCAtMC45OCwwLjQ0IC0wLjk4LDAuOThzMC40NCwwLjk4IDAuOTgsMC45OGwxMy42NywwYzAuNTQsMCAwLjk4LC0wLjQ0IDAuOTgsLTAuOThzLTAuNDQsLTAuOTggLTAuOTgsLTAuOTh6Ii8+JiN4YTsgICAgPHBhdGggaWQ9InN2Z185IiBmaWxsPSIjMzk0MjQwIiBkPSJtNTQuNDcsNDEuMDlsLTEzLjY3LDBjLTAuNTQsMCAtMC45OCwwLjQ0IC0wLjk4LDAuOThzMC40NCwwLjk4IDAuOTgsMC45OGwxMy42NywwYzAuNTQsMCAwLjk4LC0wLjQ0IDAuOTgsLTAuOThzLTAuNDQsLTAuOTggLTAuOTgsLTAuOTh6Ii8+JiN4YTsgICAgPHBhdGggaWQ9InN2Z18xMCIgZmlsbD0iIzM5NDI0MCIgZD0ibTQwLjgsMjUuNDdsNS44NiwwYzAuNTQsMCAwLjk4LC0wLjQ0IDAuOTgsLTAuOThzLTAuNDQsLTAuOTggLTAuOTgsLTAuOThsLTUuODYsMGMtMC41NCwwIC0wLjk4LDAuNDQgLTAuOTgsMC45OHMwLjQ0LDAuOTggMC45OCwwLjk4eiIvPiYjeGE7ICAgIDxwYXRoIGlkPSJzdmdfMTEiIGZpbGw9IiMzOTQyNDAiIGQ9Im0yMi4yNCwxOS42MWMtNy41NSwwIC0xMy42Nyw2LjEyIC0xMy42NywxMy42N3M2LjEyLDEzLjY3IDEzLjY3LDEzLjY3czEzLjY3LC02LjEyIDEzLjY3LC0xMy42N3MtNi4xMiwtMTMuNjcgLTEzLjY3LC0xMy42N3ptMCwyNS4zOWMtMi43NiwwIC01LjMsLTAuOTcgLTcuMywtMi41N2MwLjkyLC0xLjI2IDMuMDUsLTMuMjkgNy4zLC0zLjI5YzQuMjYsMCA2LjQsMi4wMyA3LjMsMy4yOWMtMiwxLjYgLTQuNTQsMi41NyAtNy4zLDIuNTd6bTguNzMsLTMuOTJjLTEuMjUsLTEuNjIgLTMuODYsLTMuOSAtOC43MywtMy45cy03LjQ4LDIuMjggLTguNzMsMy45Yy0xLjg2LC0yLjA3IC0yLjk5LC00LjggLTIuOTksLTcuOGMwLC02LjQ3IDUuMjQsLTExLjcyIDExLjcyLC0xMS43MnMxMS43Miw1LjI0IDExLjcyLDExLjcyYzAsMyAtMS4xMyw1LjczIC0yLjk5LDcuOHoiLz4mI3hhOyAgICA8cGF0aCBpZD0ic3ZnXzEyIiBmaWxsPSIjMzk0MjQwIiBkPSJtMjcuMTMsMzIuM2wwLC0xLjk1YzAsLTIuNyAtMi4xOSwtNC44OCAtNC44OCwtNC44OHMtNC44OCwyLjE5IC00Ljg4LDQuODhsMCwxLjk1YzAsMi43IDIuMTksNC44OCA0Ljg4LDQuODhzNC44OCwtMi4xOSA0Ljg4LC00Ljg4em0tMS45NSwwYzAsMS42MiAtMS4zMSwyLjkzIC0yLjkzLDIuOTNzLTIuOTMsLTEuMzEgLTIuOTMsLTIuOTNsMCwtMS45NWMwLC0xLjYyIDEuMzEsLTIuOTMgMi45MywtMi45M3MyLjkzLDEuMzEgMi45MywyLjkzbDAsMS45NXoiLz4mI3hhOyAgIDwvZz4mI3hhOyAgPC9nPiYjeGE7IDwvZz4mI3hhOzwvc3ZnPg==;" parent="1" vertex="1">
          <mxGeometry x="660.8199999999999" y="493.89" width="43" height="43" as="geometry" />
        </mxCell>
        <mxCell id="tv07I0bE4dOHQFzYiPR3-26" value="" style="shape=image;verticalLabelPosition=bottom;labelBackgroundColor=default;verticalAlign=top;aspect=fixed;imageAspect=0;image=data:image/svg+xml,PHN2ZyB4bWxucz0iaHR0cDovL3d3dy53My5vcmcvMjAwMC9zdmciIHZpZXdCb3g9IjAgMCAxMDI0IDEwMjQiIGhlaWdodD0iODAwcHgiIHdpZHRoPSI4MDBweCIgZmlsbD0iIzUwNkM3RiI+JiN4YTsmI3hhOzxnIHN0cm9rZS13aWR0aD0iMCIgaWQ9IlNWR1JlcG9fYmdDYXJyaWVyIi8+JiN4YTsmI3hhOzxnIHN0cm9rZS1saW5lam9pbj0icm91bmQiIHN0cm9rZS1saW5lY2FwPSJyb3VuZCIgaWQ9IlNWR1JlcG9fdHJhY2VyQ2FycmllciIvPiYjeGE7JiN4YTs8ZyBpZD0iU1ZHUmVwb19pY29uQ2FycmllciI+JiN4YTsmI3hhOzxwYXRoIGQ9Ik01MTIgMTAyNEMyMjkuMjMgMTAyNCAwIDc5NC43NyAwIDUxMlMyMjkuMjMgMCA1MTIgMHM1MTIgMjI5LjIzIDUxMiA1MTItMjI5LjIzIDUxMi01MTIgNTEyem05NS43MzEtMjE5Ljk0N2M2Mi40MDMtMjAuMjc2IDExNC4wMzItNTguNjkzIDE1MC44NTktMTA3LjM1N2ExNS43OTMgMTUuNzkzIDAgMDA0LjgwMS0xMy44MjMgMTUuMzAyIDE1LjMwMiAwIDAwLS4wNjItLjQ3M2wtLjAwOC0uMDM5YTE1Ljc1IDE1Ljc1IDAgMDAtOC4zNzgtMTEuNDg4bC00NC43MDktMzIuODkzYTE1LjgzNyAxNS44MzcgMCAwMC0xMy43NS00LjU4N2MtLjEyNC4wMTQtLjI0OS4wMjktLjM3My4wNDZsLS4wNTguMDE0YTE1Ljg4IDE1Ljg4IDAgMDAtMTEuNDc4IDguMjM2Yy0yNS43NzYgMzMuODgxLTYxLjYyNCA2MC41NjMtMTA1LjMxIDc0Ljc1OC0xMTMuNDMyIDM2Ljg1Ni0yMzQuNzkxLTI0LjcyMi0yNzEuNTI1LTEzNy43NzdzMjUuMjUzLTIzNC4yMDYgMTM4LjY4NS0yNzEuMDYyYzEwNi4zMzUtMzQuNTUgMjE4LjkwNCAxNS44MiAyNjIuOTY2IDExNS4xNzVsLTcxLjYyMy0uODAzYy03LjE4Ny0xLjA2Ni0xNC4xODkgMi44ODUtMTYuOTgyIDkuNTgxYTE1Ljc0MyAxNS43NDMgMCAwMDQuNzQ4IDE4LjYwMWwxMjAuOTEgMTI2LjQxYzIuOTk5IDMuMTM1IDcuMTYxIDQuODk5IDExLjUxIDQuODc5czguNTAyLTEuODIzIDExLjQ4NS00Ljk4Nkw4OTAuMzcgNDQ4LjIwNmM1LjI2NS00LjE5MyA3LjMwMy0xMS4yNDIgNS4wODItMTcuNTczYTIwLjUxNiAyMC41MTYgMCAwMC0uMTE5LS4zMTggMTUuODg5IDE1Ljg4OSAwIDAwLS45NDctMi4wOTlsLS4wMzEtLjA3M2MtMy4xMTYtNS43MjktOS40NDgtOC45NTEtMTUuOTM3LTguMTA4bC03MS42NzgtLjQ5NC0uODkyLTIuNzQ0Qzc1My41IDI1NS42ODUgNTc5LjYxIDE2Ny40NSA0MTcuOTUyIDIxOS45NzZTMTY3LjQ3OCA0NDYuMDk1IDIxOS44MjYgNjA3LjIwN2M1Mi4zNDggMTYxLjExMiAyMjYuMjM4IDI0OS4zNDcgMzg3Ljg5NiAxOTYuODIxbC4wMDguMDI3eiIvPiYjeGE7JiN4YTs8L2c+JiN4YTsmI3hhOzwvc3ZnPg==;" parent="1" vertex="1">
          <mxGeometry x="806.8199999999999" y="497.39" width="30" height="30" as="geometry" />
        </mxCell>
        <mxCell id="tv07I0bE4dOHQFzYiPR3-27" value="id" style="text;html=1;strokeColor=none;fillColor=none;align=center;verticalAlign=middle;whiteSpace=wrap;rounded=0;" parent="1" vertex="1">
          <mxGeometry x="651.8199999999999" y="532.89" width="61" height="21" as="geometry" />
        </mxCell>
        <mxCell id="tv07I0bE4dOHQFzYiPR3-28" value="car_id" style="text;html=1;strokeColor=none;fillColor=none;align=center;verticalAlign=middle;whiteSpace=wrap;rounded=0;" parent="1" vertex="1">
          <mxGeometry x="726.28" y="532.89" width="61" height="21" as="geometry" />
        </mxCell>
        <mxCell id="tv07I0bE4dOHQFzYiPR3-29" value="status" style="text;html=1;strokeColor=none;fillColor=none;align=center;verticalAlign=middle;whiteSpace=wrap;rounded=0;" parent="1" vertex="1">
          <mxGeometry x="793.8199999999999" y="532.89" width="61" height="21" as="geometry" />
        </mxCell>
        <mxCell id="tv07I0bE4dOHQFzYiPR3-31" value="" style="shape=image;verticalLabelPosition=bottom;labelBackgroundColor=default;verticalAlign=top;aspect=fixed;imageAspect=0;image=data:image/svg+xml,PHN2ZyB4bWxuczp4bGluaz0iaHR0cDovL3d3dy53My5vcmcvMTk5OS94bGluayIgeG1sbnM9Imh0dHA6Ly93d3cudzMub3JnLzIwMDAvc3ZnIiB4bWw6c3BhY2U9InByZXNlcnZlIiB2aWV3Qm94PSIwIDAgNjQgNjQiIGhlaWdodD0iODAwcHgiIHdpZHRoPSI4MDBweCIgaWQ9IkxheWVyXzEiIHZlcnNpb249IjEuMCI+JiN4YTs8Zz4mI3hhOwk8cGF0aCBkPSJNNTguOTgyLDMyLjA4OEM1OC45ODUsMzIuMDU3LDU5LDMyLjAzMSw1OSwzMmMwLTIuODY2LTAuNTg5LTI4LTIxLTI4SDI2QzEyLjY1NCw0LDUsMTQuMjA2LDUsMzImIzEwOyYjOTsmIzk7YzAsMC4wMzEsMC4wMTUsMC4wNTcsMC4wMTgsMC4wODhDMi4xNzYsMzIuNTU5LDAsMzUuMDI3LDAsMzh2MTBjMCwzLjMwOSwyLjY5MSw2LDYsNnY1YzAsMC41NTMsMC40NDcsMSwxLDFoOGMwLjU1MywwLDEtMC40NDcsMS0xJiMxMDsmIzk7JiM5O3YtNWgzMnY1YzAsMC41NTMsMC40NDcsMSwxLDFoOGMwLjU1MywwLDEtMC40NDcsMS0xdi01YzMuMzA5LDAsNi0yLjY5MSw2LTZWMzhDNjQsMzUuMDI3LDYxLjgyNCwzMi41NTksNTguOTgyLDMyLjA4OHogTTI2LDZoMTImIzEwOyYjOTsmIzk7YzE4LjQ2NywwLDE5LDIzLjMzOSwxOSwyNmgtMmMwLTIuNDU2LTAuNTA1LTI0LTE4LTI0SDI3QzE1LjM5Myw4LDksMTYuNTIzLDksMzJIN0M3LDkuMzc4LDE4LjkwNCw2LDI2LDZ6IE0yNCwyNCYjMTA7JiM5OyYjOTtjLTQuNDE4LDAtOCwzLjU4Mi04LDhoLTVjMC0xOC4xODQsOC43MDEtMjIsMTYtMjJoMTBjNi4zNCwwLDEwLjkwOSwzLjE2LDEzLjU4MSw5LjM5NEM1Mi44MjUsMjQuNjMyLDUzLDMwLjM2Nyw1MywzMkgzMiYjMTA7JiM5OyYjOTtDMzIsMjcuNTgyLDI4LjQxOCwyNCwyNCwyNHogTTMwLDMySDE4YzAtMy4zMTMsMi42ODctNiw2LTZTMzAsMjguNjg3LDMwLDMyeiBNMTQsNThIOHYtNGg2VjU4eiBNNTYsNThoLTZ2LTRoNlY1OHogTTYyLDQ4JiMxMDsmIzk7JiM5O2MwLDIuMjA2LTEuNzk0LDQtNCw0SDZjLTIuMjA2LDAtNC0xLjc5NC00LTRWMzhjMC0yLjIwNiwxLjc5NC00LDQtNGg1MmMyLjIwNiwwLDQsMS43OTQsNCw0VjQ4eiIgZmlsbD0iIzIzMUYyMCIvPiYjeGE7CTxwYXRoIGQ9Ik0xMSwzOWMtMi4yMDYsMC00LDEuNzk0LTQsNHMxLjc5NCw0LDQsNHM0LTEuNzk0LDQtNFMxMy4yMDYsMzksMTEsMzl6IE0xMSw0NWMtMS4xMDMsMC0yLTAuODk3LTItMiYjMTA7JiM5OyYjOTtzMC44OTctMiwyLTJzMiwwLjg5NywyLDJTMTIuMTAzLDQ1LDExLDQ1eiIgZmlsbD0iIzIzMUYyMCIvPiYjeGE7CTxwYXRoIGQ9Ik01MywzOWMtMi4yMDYsMC00LDEuNzk0LTQsNHMxLjc5NCw0LDQsNHM0LTEuNzk0LDQtNFM1NS4yMDYsMzksNTMsMzl6IE01Myw0NWMtMS4xMDMsMC0yLTAuODk3LTItMiYjMTA7JiM5OyYjOTtzMC44OTctMiwyLTJzMiwwLjg5NywyLDJTNTQuMTAzLDQ1LDUzLDQ1eiIgZmlsbD0iIzIzMUYyMCIvPiYjeGE7CTxwYXRoIGQ9Ik00Myw0MEgyMWMtMC41NTMsMC0xLDAuNDQ3LTEsMXMwLjQ0NywxLDEsMWgyMmMwLjU1MywwLDEtMC40NDcsMS0xUzQzLjU1Myw0MCw0Myw0MHoiIGZpbGw9IiMyMzFGMjAiLz4mI3hhOwk8cGF0aCBkPSJNNDMsNDRIMjFjLTAuNTUzLDAtMSwwLjQ0Ny0xLDFzMC40NDcsMSwxLDFoMjJjMC41NTMsMCwxLTAuNDQ3LDEtMVM0My41NTMsNDQsNDMsNDR6IiBmaWxsPSIjMjMxRjIwIi8+JiN4YTsJPHBhdGggZD0iTTQyLjcwNywxNS4yOTRjLTAuMzkxLTAuMzkxLTEuMDIzLTAuMzkxLTEuNDE0LDBzLTAuMzkxLDEuMDIzLDAsMS40MTRsMiwyJiMxMDsmIzk7JiM5O2MwLjE5NSwwLjE5NSwwLjQ1MSwwLjI5MywwLjcwNywwLjI5M3MwLjUxMi0wLjA5OCwwLjcwNy0wLjI5M2MwLjM5MS0wLjM5MSwwLjM5MS0xLjAyMywwLTEuNDE0TDQyLjcwNywxNS4yOTR6IiBmaWxsPSIjMjMxRjIwIi8+JiN4YTsJPHBhdGggZD0iTTM3LjcwNywxNS4yOTNjLTAuMzkxLTAuMzkxLTEuMDIzLTAuMzkxLTEuNDE0LDBzLTAuMzkxLDEuMDIzLDAsMS40MTRsNyw3QzQzLjQ4OCwyMy45MDIsNDMuNzQ0LDI0LDQ0LDI0JiMxMDsmIzk7JiM5O3MwLjUxMi0wLjA5OCwwLjcwNy0wLjI5M2MwLjM5MS0wLjM5MSwwLjM5MS0xLjAyMywwLTEuNDE0TDM3LjcwNywxNS4yOTN6IiBmaWxsPSIjMjMxRjIwIi8+JiN4YTs8L2c+JiN4YTs8L3N2Zz4=;rotation=0;" parent="1" vertex="1">
          <mxGeometry x="738.9199999999998" y="497.5328571428571" width="35.714285714285715" height="35.714285714285715" as="geometry" />
        </mxCell>
        <mxCell id="tv07I0bE4dOHQFzYiPR3-32" value="" style="shape=image;verticalLabelPosition=bottom;labelBackgroundColor=default;verticalAlign=top;aspect=fixed;imageAspect=0;image=data:image/svg+xml,PHN2ZyB4bWxucz0iaHR0cDovL3d3dy53My5vcmcvMjAwMC9zdmciIHZpZXdCb3g9IjAgMCAxMDI0IDEwMjQiIGhlaWdodD0iODAwcHgiIHdpZHRoPSI4MDBweCIgZmlsbD0iIzUwNkM3RiI+JiN4YTsmI3hhOzxnIHN0cm9rZS13aWR0aD0iMCIgaWQ9IlNWR1JlcG9fYmdDYXJyaWVyIi8+JiN4YTsmI3hhOzxnIHN0cm9rZS1saW5lam9pbj0icm91bmQiIHN0cm9rZS1saW5lY2FwPSJyb3VuZCIgaWQ9IlNWR1JlcG9fdHJhY2VyQ2FycmllciIvPiYjeGE7JiN4YTs8ZyBpZD0iU1ZHUmVwb19pY29uQ2FycmllciI+JiN4YTsmI3hhOzxwYXRoIGQ9Ik01MTIgMTAyNEMyMjkuMjMgMTAyNCAwIDc5NC43NyAwIDUxMlMyMjkuMjMgMCA1MTIgMHM1MTIgMjI5LjIzIDUxMiA1MTItMjI5LjIzIDUxMi01MTIgNTEyem05NS43MzEtMjE5Ljk0N2M2Mi40MDMtMjAuMjc2IDExNC4wMzItNTguNjkzIDE1MC44NTktMTA3LjM1N2ExNS43OTMgMTUuNzkzIDAgMDA0LjgwMS0xMy44MjMgMTUuMzAyIDE1LjMwMiAwIDAwLS4wNjItLjQ3M2wtLjAwOC0uMDM5YTE1Ljc1IDE1Ljc1IDAgMDAtOC4zNzgtMTEuNDg4bC00NC43MDktMzIuODkzYTE1LjgzNyAxNS44MzcgMCAwMC0xMy43NS00LjU4N2MtLjEyNC4wMTQtLjI0OS4wMjktLjM3My4wNDZsLS4wNTguMDE0YTE1Ljg4IDE1Ljg4IDAgMDAtMTEuNDc4IDguMjM2Yy0yNS43NzYgMzMuODgxLTYxLjYyNCA2MC41NjMtMTA1LjMxIDc0Ljc1OC0xMTMuNDMyIDM2Ljg1Ni0yMzQuNzkxLTI0LjcyMi0yNzEuNTI1LTEzNy43NzdzMjUuMjUzLTIzNC4yMDYgMTM4LjY4NS0yNzEuMDYyYzEwNi4zMzUtMzQuNTUgMjE4LjkwNCAxNS44MiAyNjIuOTY2IDExNS4xNzVsLTcxLjYyMy0uODAzYy03LjE4Ny0xLjA2Ni0xNC4xODkgMi44ODUtMTYuOTgyIDkuNTgxYTE1Ljc0MyAxNS43NDMgMCAwMDQuNzQ4IDE4LjYwMWwxMjAuOTEgMTI2LjQxYzIuOTk5IDMuMTM1IDcuMTYxIDQuODk5IDExLjUxIDQuODc5czguNTAyLTEuODIzIDExLjQ4NS00Ljk4Nkw4OTAuMzcgNDQ4LjIwNmM1LjI2NS00LjE5MyA3LjMwMy0xMS4yNDIgNS4wODItMTcuNTczYTIwLjUxNiAyMC41MTYgMCAwMC0uMTE5LS4zMTggMTUuODg5IDE1Ljg4OSAwIDAwLS45NDctMi4wOTlsLS4wMzEtLjA3M2MtMy4xMTYtNS43MjktOS40NDgtOC45NTEtMTUuOTM3LTguMTA4bC03MS42NzgtLjQ5NC0uODkyLTIuNzQ0Qzc1My41IDI1NS42ODUgNTc5LjYxIDE2Ny40NSA0MTcuOTUyIDIxOS45NzZTMTY3LjQ3OCA0NDYuMDk1IDIxOS44MjYgNjA3LjIwN2M1Mi4zNDggMTYxLjExMiAyMjYuMjM4IDI0OS4zNDcgMzg3Ljg5NiAxOTYuODIxbC4wMDguMDI3eiIvPiYjeGE7JiN4YTs8L2c+JiN4YTsmI3hhOzwvc3ZnPg==;" parent="1" vertex="1">
          <mxGeometry x="1054.1800000000003" y="674.39" width="30" height="30" as="geometry" />
        </mxCell>
        <mxCell id="tv07I0bE4dOHQFzYiPR3-37" value="" style="shape=image;verticalLabelPosition=bottom;labelBackgroundColor=default;verticalAlign=top;aspect=fixed;imageAspect=0;image=data:image/svg+xml,PHN2ZyB4bWxuczp4bGluaz0iaHR0cDovL3d3dy53My5vcmcvMTk5OS94bGluayIgeG1sbnM9Imh0dHA6Ly93d3cudzMub3JnLzIwMDAvc3ZnIiBzdHJva2U9IiMwMDAwMDAiIGZpbGw9IiMwMDAwMDAiIHhtbDpzcGFjZT0icHJlc2VydmUiIHZlcnNpb249IjEuMSIgaWQ9IkxheWVyXzEiIHZpZXdCb3g9IjAgMCA1MTIgNTEyIiBoZWlnaHQ9IjgwMHB4IiB3aWR0aD0iODAwcHgiPiYjeGE7JiN4YTs8ZyBzdHJva2Utd2lkdGg9IjAiIGlkPSJTVkdSZXBvX2JnQ2FycmllciIvPiYjeGE7JiN4YTs8ZyBzdHJva2UtbGluZWpvaW49InJvdW5kIiBzdHJva2UtbGluZWNhcD0icm91bmQiIGlkPSJTVkdSZXBvX3RyYWNlckNhcnJpZXIiLz4mI3hhOyYjeGE7PGcgaWQ9IlNWR1JlcG9faWNvbkNhcnJpZXIiPiA8Zz4gPGc+ICYjeGE7PHBhdGggZmlsbD0iIzY5NzI3MCIgZD0iTTM5Mi4wNzUsNDIyLjAyN2gtMjcyLjE1Yy01LjUyMywwLTEwLTQuNDc4LTEwLTEwdi0xNzMuMjdjMC01LjUyMiw0LjQ3Ny0xMCwxMC0xMGgyNzIuMTUgYzUuNTIzLDAsMTAsNC40NzgsMTAsMTB2MTczLjI3QzQwMi4wNzUsNDE3LjU1LDM5Ny41OTgsNDIyLjAyNywzOTIuMDc1LDQyMi4wMjd6IE0xMjkuOTI1LDQwMi4wMjdoMjUyLjE1di0xNTMuMjdoLTI1Mi4xNSBWNDAyLjAyN3oiLz4gJiN4YTs8L2c+ICYjeGE7PGc+ICYjeGE7PGc+ICYjeGE7PGxpbmUgeTI9IjE1NS45MDYiIHkxPSIyMzguMjc1IiB4Mj0iMjU2Ljk3MSIgeDE9IjI1Ni45NzEiIGZpbGw9IiNmZmZmZmYiLz4gJiN4YTs8cGF0aCBmaWxsPSIjNjk3MjcwIiBkPSJNMjU2Ljk3MSwyNDguMjc1Yy01LjUyMywwLTEwLTQuNDc4LTEwLTEwdi04Mi4zNjljMC01LjUyMiw0LjQ3Ny0xMCwxMC0xMHMxMCw0LjQ3OCwxMCwxMHY4Mi4zNjkgQzI2Ni45NzEsMjQzLjc5OCwyNjIuNDk0LDI0OC4yNzUsMjU2Ljk3MSwyNDguMjc1eiIvPiAmI3hhOzwvZz4gPGc+ICYjeGE7JiN4YTs8cGF0aCBmaWxsPSIjNjk3MjcwIiBkPSJNMzEyLjc4LDE2NS45MDZjLTAuMDA3LDAtMC4wMTMsMC0wLjAyLDBIMjAxLjE4Yy0yLjgzNCwwLTUuNTM2LTEuMjAzLTcuNDMyLTMuMzEgcy0yLjgxLTQuOTE5LTIuNTEzLTcuNzM3TDIwMi4zLDQ5Ljc3MWMwLjUzNi01LjA5LDQuODI3LTguOTUzLDkuOTQ1LTguOTUzaDg5LjQ1MWM1LjExOCwwLDkuNDA5LDMuODYzLDkuOTQ1LDguOTUzIGwxMC45OTYsMTA0LjQzOGMwLjA5NCwwLjU1MSwwLjE0NCwxLjExOCwwLjE0NCwxLjY5NkMzMjIuNzgsMTYxLjQyOSwzMTguMzAzLDE2NS45MDYsMzEyLjc4LDE2NS45MDZ6IE0yMTIuMjg5LDE0NS45MDZoODkuMzYzIGwtOC45NTgtODUuMDg4aC03MS40NDZMMjEyLjI4OSwxNDUuOTA2eiIvPiA8L2c+IDwvZz4gPGc+ICYjeGE7PHBhdGggZmlsbD0iIzY5NzI3MCIgZD0iTTI4NC42MzIsMTk5LjI0OGMtNS41MjMsMC0xMC00LjQ3OC0xMC0xMHYtMzMuMzQyYzAtNS41MjIsNC40NzctMTAsMTAtMTBzMTAsNC40NzgsMTAsMTB2MzMuMzQyIEMyOTQuNjMyLDE5NC43NzEsMjkwLjE1NSwxOTkuMjQ4LDI4NC42MzIsMTk5LjI0OHoiLz4gPC9nPiA8Zz4gJiN4YTs8cGF0aCBmaWxsPSIjNjk3MjcwIiBkPSJNMTE5LjkyNSw0NzEuMTgyYy01LjUyMywwLTEwLTQuNDc4LTEwLTEwdi00OS4xNTRjMC01LjUyMiw0LjQ3Ny0xMCwxMC0xMHMxMCw0LjQ3OCwxMCwxMHY0OS4xNTQgQzEyOS45MjUsNDY2LjcwNCwxMjUuNDQ4LDQ3MS4xODIsMTE5LjkyNSw0NzEuMTgyeiIvPiA8L2c+IDxnPiAmI3hhOzxwYXRoIGZpbGw9IiM2OTcyNzAiIGQ9Ik0zOTIuMDc1LDQ3MS4xODJjLTUuNTIzLDAtMTAtNC40NzgtMTAtMTB2LTQ5LjE1NGMwLTUuNTIyLDQuNDc3LTEwLDEwLTEwczEwLDQuNDc4LDEwLDEwdjQ5LjE1NCBDNDAyLjA3NSw0NjYuNzA0LDM5Ny41OTgsNDcxLjE4MiwzOTIuMDc1LDQ3MS4xODJ6Ii8+IDwvZz4gPGc+ICYjeGE7PHBhdGggZmlsbD0iIzY5NzI3MCIgZD0iTTI4NC42MzIsMzM1LjM5M2gtNjQuMjgxYy01LjUyMywwLTEwLTQuNDc4LTEwLTEwczQuNDc3LTEwLDEwLTEwaDY0LjI4MWM1LjUyMywwLDEwLDQuNDc4LDEwLDEwIFMyOTAuMTU1LDMzNS4zOTMsMjg0LjYzMiwzMzUuMzkzeiIvPiA8L2c+IDxnPiAmI3hhOyYjeGE7PHBhdGggZmlsbD0iIzY5NzI3MCIgZD0iTTM5Mi4wNzUsNDIyLjAyN2gtMjcyLjE1Yy01LjUyMywwLTEwLTQuNDc4LTEwLTEwdi0xNzMuMjdjMC01LjUyMiw0LjQ3Ny0xMCwxMC0xMGgyNzIuMTUgYzUuNTIzLDAsMTAsNC40NzgsMTAsMTB2MTczLjI3QzQwMi4wNzUsNDE3LjU1LDM5Ny41OTgsNDIyLjAyNywzOTIuMDc1LDQyMi4wMjd6IE0xMjkuOTI1LDQwMi4wMjdoMjUyLjE1di0xNTMuMjdoLTI1Mi4xNSBWNDAyLjAyN3oiLz4gPC9nPiA8Zz4gPGc+ICYjeGE7PGxpbmUgeTI9IjE1NS45MDYiIHkxPSIyMzguMjc1IiB4Mj0iMjU2Ljk3MSIgeDE9IjI1Ni45NzEiIGZpbGw9IiNmZmZmZmYiLz4gJiN4YTs8cGF0aCBmaWxsPSIjNjk3MjcwIiBkPSJNMjU2Ljk3MSwyNDguMjc1Yy01LjUyMywwLTEwLTQuNDc4LTEwLTEwdi04Mi4zNjljMC01LjUyMiw0LjQ3Ny0xMCwxMC0xMHMxMCw0LjQ3OCwxMCwxMHY4Mi4zNjkgQzI2Ni45NzEsMjQzLjc5OCwyNjIuNDk0LDI0OC4yNzUsMjU2Ljk3MSwyNDguMjc1eiIvPiA8L2c+IDxnPiAmI3hhOyYjeGE7PHBhdGggZmlsbD0iIzY5NzI3MCIgZD0iTTMxMi43OCwxNjUuOTA2Yy0wLjAwNywwLTAuMDEzLDAtMC4wMiwwSDIwMS4xOGMtMi44MzQsMC01LjUzNi0xLjIwMy03LjQzMi0zLjMxIHMtMi44MS00LjkxOS0yLjUxMy03LjczN0wyMDIuMyw0OS43NzFjMC41MzYtNS4wOSw0LjgyNy04Ljk1Myw5Ljk0NS04Ljk1M2g4OS40NTFjNS4xMTgsMCw5LjQwOSwzLjg2Myw5Ljk0NSw4Ljk1MyBsMTAuOTk2LDEwNC40MzhjMC4wOTQsMC41NTEsMC4xNDQsMS4xMTgsMC4xNDQsMS42OTZDMzIyLjc4LDE2MS40MjksMzE4LjMwMywxNjUuOTA2LDMxMi43OCwxNjUuOTA2eiBNMjEyLjI4OSwxNDUuOTA2aDg5LjM2MyBsLTguOTU4LTg1LjA4OGgtNzEuNDQ2TDIxMi4yODksMTQ1LjkwNnoiLz4gPC9nPiA8L2c+IDxnPiAmI3hhOzxwYXRoIGZpbGw9IiM2OTcyNzAiIGQ9Ik0yODQuNjMyLDE5OS4yNDhjLTUuNTIzLDAtMTAtNC40NzgtMTAtMTB2LTMzLjM0MmMwLTUuNTIyLDQuNDc3LTEwLDEwLTEwczEwLDQuNDc4LDEwLDEwdjMzLjM0MiBDMjk0LjYzMiwxOTQuNzcxLDI5MC4xNTUsMTk5LjI0OCwyODQuNjMyLDE5OS4yNDh6Ii8+IDwvZz4gPGc+ICYjeGE7PHBhdGggZmlsbD0iIzY5NzI3MCIgZD0iTTExOS45MjUsNDcxLjE4MmMtNS41MjMsMC0xMC00LjQ3OC0xMC0xMHYtNDkuMTU0YzAtNS41MjIsNC40NzctMTAsMTAtMTBzMTAsNC40NzgsMTAsMTB2NDkuMTU0IEMxMjkuOTI1LDQ2Ni43MDQsMTI1LjQ0OCw0NzEuMTgyLDExOS45MjUsNDcxLjE4MnoiLz4gPC9nPiA8Zz4gJiN4YTs8cGF0aCBmaWxsPSIjNjk3MjcwIiBkPSJNMzkyLjA3NSw0NzEuMTgyYy01LjUyMywwLTEwLTQuNDc4LTEwLTEwdi00OS4xNTRjMC01LjUyMiw0LjQ3Ny0xMCwxMC0xMHMxMCw0LjQ3OCwxMCwxMHY0OS4xNTQgQzQwMi4wNzUsNDY2LjcwNCwzOTcuNTk4LDQ3MS4xODIsMzkyLjA3NSw0NzEuMTgyeiIvPiA8L2c+IDxnPiAmI3hhOzxwYXRoIGZpbGw9IiM2OTcyNzAiIGQ9Ik0yODQuNjMyLDMzNS4zOTNoLTY0LjI4MWMtNS41MjMsMC0xMC00LjQ3OC0xMC0xMHM0LjQ3Ny0xMCwxMC0xMGg2NC4yODFjNS41MjMsMCwxMCw0LjQ3OCwxMCwxMCBTMjkwLjE1NSwzMzUuMzkzLDI4NC42MzIsMzM1LjM5M3oiLz4gPC9nPiA8L2c+IDwvZz4mI3hhOyYjeGE7PC9zdmc+;" parent="1" vertex="1">
          <mxGeometry x="737.2" y="301.55999999999995" width="38.23" height="38.23" as="geometry" />
        </mxCell>
        <mxCell id="tv07I0bE4dOHQFzYiPR3-38" value="" style="shape=image;verticalLabelPosition=bottom;labelBackgroundColor=default;verticalAlign=top;aspect=fixed;imageAspect=0;image=data:image/svg+xml,PHN2ZyB4bWxuczp4bGluaz0iaHR0cDovL3d3dy53My5vcmcvMTk5OS94bGluayIgeG1sbnM9Imh0dHA6Ly93d3cudzMub3JnLzIwMDAvc3ZnIiBzdHJva2U9IiMwMDAwMDAiIGZpbGw9IiMwMDAwMDAiIHhtbDpzcGFjZT0icHJlc2VydmUiIHZlcnNpb249IjEuMSIgaWQ9IkxheWVyXzEiIHZpZXdCb3g9IjAgMCA1MTIgNTEyIiBoZWlnaHQ9IjgwMHB4IiB3aWR0aD0iODAwcHgiPiYjeGE7JiN4YTs8ZyBzdHJva2Utd2lkdGg9IjAiIGlkPSJTVkdSZXBvX2JnQ2FycmllciIvPiYjeGE7JiN4YTs8ZyBzdHJva2UtbGluZWpvaW49InJvdW5kIiBzdHJva2UtbGluZWNhcD0icm91bmQiIGlkPSJTVkdSZXBvX3RyYWNlckNhcnJpZXIiLz4mI3hhOyYjeGE7PGcgaWQ9IlNWR1JlcG9faWNvbkNhcnJpZXIiPiA8Zz4gPGc+ICYjeGE7PHBhdGggZmlsbD0iIzY5NzI3MCIgZD0iTTM5Mi4wNzUsNDIyLjAyN2gtMjcyLjE1Yy01LjUyMywwLTEwLTQuNDc4LTEwLTEwdi0xNzMuMjdjMC01LjUyMiw0LjQ3Ny0xMCwxMC0xMGgyNzIuMTUgYzUuNTIzLDAsMTAsNC40NzgsMTAsMTB2MTczLjI3QzQwMi4wNzUsNDE3LjU1LDM5Ny41OTgsNDIyLjAyNywzOTIuMDc1LDQyMi4wMjd6IE0xMjkuOTI1LDQwMi4wMjdoMjUyLjE1di0xNTMuMjdoLTI1Mi4xNSBWNDAyLjAyN3oiLz4gJiN4YTs8L2c+ICYjeGE7PGc+ICYjeGE7PGc+ICYjeGE7PGxpbmUgeTI9IjE1NS45MDYiIHkxPSIyMzguMjc1IiB4Mj0iMjU2Ljk3MSIgeDE9IjI1Ni45NzEiIGZpbGw9IiNmZmZmZmYiLz4gJiN4YTs8cGF0aCBmaWxsPSIjNjk3MjcwIiBkPSJNMjU2Ljk3MSwyNDguMjc1Yy01LjUyMywwLTEwLTQuNDc4LTEwLTEwdi04Mi4zNjljMC01LjUyMiw0LjQ3Ny0xMCwxMC0xMHMxMCw0LjQ3OCwxMCwxMHY4Mi4zNjkgQzI2Ni45NzEsMjQzLjc5OCwyNjIuNDk0LDI0OC4yNzUsMjU2Ljk3MSwyNDguMjc1eiIvPiAmI3hhOzwvZz4gPGc+ICYjeGE7JiN4YTs8cGF0aCBmaWxsPSIjNjk3MjcwIiBkPSJNMzEyLjc4LDE2NS45MDZjLTAuMDA3LDAtMC4wMTMsMC0wLjAyLDBIMjAxLjE4Yy0yLjgzNCwwLTUuNTM2LTEuMjAzLTcuNDMyLTMuMzEgcy0yLjgxLTQuOTE5LTIuNTEzLTcuNzM3TDIwMi4zLDQ5Ljc3MWMwLjUzNi01LjA5LDQuODI3LTguOTUzLDkuOTQ1LTguOTUzaDg5LjQ1MWM1LjExOCwwLDkuNDA5LDMuODYzLDkuOTQ1LDguOTUzIGwxMC45OTYsMTA0LjQzOGMwLjA5NCwwLjU1MSwwLjE0NCwxLjExOCwwLjE0NCwxLjY5NkMzMjIuNzgsMTYxLjQyOSwzMTguMzAzLDE2NS45MDYsMzEyLjc4LDE2NS45MDZ6IE0yMTIuMjg5LDE0NS45MDZoODkuMzYzIGwtOC45NTgtODUuMDg4aC03MS40NDZMMjEyLjI4OSwxNDUuOTA2eiIvPiA8L2c+IDwvZz4gPGc+ICYjeGE7PHBhdGggZmlsbD0iIzY5NzI3MCIgZD0iTTI4NC42MzIsMTk5LjI0OGMtNS41MjMsMC0xMC00LjQ3OC0xMC0xMHYtMzMuMzQyYzAtNS41MjIsNC40NzctMTAsMTAtMTBzMTAsNC40NzgsMTAsMTB2MzMuMzQyIEMyOTQuNjMyLDE5NC43NzEsMjkwLjE1NSwxOTkuMjQ4LDI4NC42MzIsMTk5LjI0OHoiLz4gPC9nPiA8Zz4gJiN4YTs8cGF0aCBmaWxsPSIjNjk3MjcwIiBkPSJNMTE5LjkyNSw0NzEuMTgyYy01LjUyMywwLTEwLTQuNDc4LTEwLTEwdi00OS4xNTRjMC01LjUyMiw0LjQ3Ny0xMCwxMC0xMHMxMCw0LjQ3OCwxMCwxMHY0OS4xNTQgQzEyOS45MjUsNDY2LjcwNCwxMjUuNDQ4LDQ3MS4xODIsMTE5LjkyNSw0NzEuMTgyeiIvPiA8L2c+IDxnPiAmI3hhOzxwYXRoIGZpbGw9IiM2OTcyNzAiIGQ9Ik0zOTIuMDc1LDQ3MS4xODJjLTUuNTIzLDAtMTAtNC40NzgtMTAtMTB2LTQ5LjE1NGMwLTUuNTIyLDQuNDc3LTEwLDEwLTEwczEwLDQuNDc4LDEwLDEwdjQ5LjE1NCBDNDAyLjA3NSw0NjYuNzA0LDM5Ny41OTgsNDcxLjE4MiwzOTIuMDc1LDQ3MS4xODJ6Ii8+IDwvZz4gPGc+ICYjeGE7PHBhdGggZmlsbD0iIzY5NzI3MCIgZD0iTTI4NC42MzIsMzM1LjM5M2gtNjQuMjgxYy01LjUyMywwLTEwLTQuNDc4LTEwLTEwczQuNDc3LTEwLDEwLTEwaDY0LjI4MWM1LjUyMywwLDEwLDQuNDc4LDEwLDEwIFMyOTAuMTU1LDMzNS4zOTMsMjg0LjYzMiwzMzUuMzkzeiIvPiA8L2c+IDxnPiAmI3hhOyYjeGE7PHBhdGggZmlsbD0iIzY5NzI3MCIgZD0iTTM5Mi4wNzUsNDIyLjAyN2gtMjcyLjE1Yy01LjUyMywwLTEwLTQuNDc4LTEwLTEwdi0xNzMuMjdjMC01LjUyMiw0LjQ3Ny0xMCwxMC0xMGgyNzIuMTUgYzUuNTIzLDAsMTAsNC40NzgsMTAsMTB2MTczLjI3QzQwMi4wNzUsNDE3LjU1LDM5Ny41OTgsNDIyLjAyNywzOTIuMDc1LDQyMi4wMjd6IE0xMjkuOTI1LDQwMi4wMjdoMjUyLjE1di0xNTMuMjdoLTI1Mi4xNSBWNDAyLjAyN3oiLz4gPC9nPiA8Zz4gPGc+ICYjeGE7PGxpbmUgeTI9IjE1NS45MDYiIHkxPSIyMzguMjc1IiB4Mj0iMjU2Ljk3MSIgeDE9IjI1Ni45NzEiIGZpbGw9IiNmZmZmZmYiLz4gJiN4YTs8cGF0aCBmaWxsPSIjNjk3MjcwIiBkPSJNMjU2Ljk3MSwyNDguMjc1Yy01LjUyMywwLTEwLTQuNDc4LTEwLTEwdi04Mi4zNjljMC01LjUyMiw0LjQ3Ny0xMCwxMC0xMHMxMCw0LjQ3OCwxMCwxMHY4Mi4zNjkgQzI2Ni45NzEsMjQzLjc5OCwyNjIuNDk0LDI0OC4yNzUsMjU2Ljk3MSwyNDguMjc1eiIvPiA8L2c+IDxnPiAmI3hhOyYjeGE7PHBhdGggZmlsbD0iIzY5NzI3MCIgZD0iTTMxMi43OCwxNjUuOTA2Yy0wLjAwNywwLTAuMDEzLDAtMC4wMiwwSDIwMS4xOGMtMi44MzQsMC01LjUzNi0xLjIwMy03LjQzMi0zLjMxIHMtMi44MS00LjkxOS0yLjUxMy03LjczN0wyMDIuMyw0OS43NzFjMC41MzYtNS4wOSw0LjgyNy04Ljk1Myw5Ljk0NS04Ljk1M2g4OS40NTFjNS4xMTgsMCw5LjQwOSwzLjg2Myw5Ljk0NSw4Ljk1MyBsMTAuOTk2LDEwNC40MzhjMC4wOTQsMC41NTEsMC4xNDQsMS4xMTgsMC4xNDQsMS42OTZDMzIyLjc4LDE2MS40MjksMzE4LjMwMywxNjUuOTA2LDMxMi43OCwxNjUuOTA2eiBNMjEyLjI4OSwxNDUuOTA2aDg5LjM2MyBsLTguOTU4LTg1LjA4OGgtNzEuNDQ2TDIxMi4yODksMTQ1LjkwNnoiLz4gPC9nPiA8L2c+IDxnPiAmI3hhOzxwYXRoIGZpbGw9IiM2OTcyNzAiIGQ9Ik0yODQuNjMyLDE5OS4yNDhjLTUuNTIzLDAtMTAtNC40NzgtMTAtMTB2LTMzLjM0MmMwLTUuNTIyLDQuNDc3LTEwLDEwLTEwczEwLDQuNDc4LDEwLDEwdjMzLjM0MiBDMjk0LjYzMiwxOTQuNzcxLDI5MC4xNTUsMTk5LjI0OCwyODQuNjMyLDE5OS4yNDh6Ii8+IDwvZz4gPGc+ICYjeGE7PHBhdGggZmlsbD0iIzY5NzI3MCIgZD0iTTExOS45MjUsNDcxLjE4MmMtNS41MjMsMC0xMC00LjQ3OC0xMC0xMHYtNDkuMTU0YzAtNS41MjIsNC40NzctMTAsMTAtMTBzMTAsNC40NzgsMTAsMTB2NDkuMTU0IEMxMjkuOTI1LDQ2Ni43MDQsMTI1LjQ0OCw0NzEuMTgyLDExOS45MjUsNDcxLjE4MnoiLz4gPC9nPiA8Zz4gJiN4YTs8cGF0aCBmaWxsPSIjNjk3MjcwIiBkPSJNMzkyLjA3NSw0NzEuMTgyYy01LjUyMywwLTEwLTQuNDc4LTEwLTEwdi00OS4xNTRjMC01LjUyMiw0LjQ3Ny0xMCwxMC0xMHMxMCw0LjQ3OCwxMCwxMHY0OS4xNTQgQzQwMi4wNzUsNDY2LjcwNCwzOTcuNTk4LDQ3MS4xODIsMzkyLjA3NSw0NzEuMTgyeiIvPiA8L2c+IDxnPiAmI3hhOzxwYXRoIGZpbGw9IiM2OTcyNzAiIGQ9Ik0yODQuNjMyLDMzNS4zOTNoLTY0LjI4MWMtNS41MjMsMC0xMC00LjQ3OC0xMC0xMHM0LjQ3Ny0xMCwxMC0xMGg2NC4yODFjNS41MjMsMCwxMCw0LjQ3OCwxMCwxMCBTMjkwLjE1NSwzMzUuMzkzLDI4NC42MzIsMzM1LjM5M3oiLz4gPC9nPiA8L2c+IDwvZz4mI3hhOyYjeGE7PC9zdmc+;" parent="1" vertex="1">
          <mxGeometry x="383.64" y="258.78" width="42" height="42" as="geometry" />
        </mxCell>
        <mxCell id="tv07I0bE4dOHQFzYiPR3-39" value="" style="rounded=1;whiteSpace=wrap;html=1;rotation=0;fillColor=#f5f5f5;strokeColor=#666666;fontColor=#333333;" parent="1" vertex="1">
          <mxGeometry x="941.5" y="126" width="138.64" height="22" as="geometry" />
        </mxCell>
        <mxCell id="tv07I0bE4dOHQFzYiPR3-40" value="" style="rounded=1;whiteSpace=wrap;html=1;rotation=0;fillColor=#fff2cc;strokeColor=#d6b656;" parent="1" vertex="1">
          <mxGeometry x="941.5" y="164" width="138.64" height="22" as="geometry" />
        </mxCell>
        <mxCell id="tv07I0bE4dOHQFzYiPR3-41" value="" style="ellipse;whiteSpace=wrap;html=1;aspect=fixed;fillColor=#ffe6cc;strokeColor=#d79b00;" parent="1" vertex="1">
          <mxGeometry x="992.8200000000002" y="77" width="36" height="36" as="geometry" />
        </mxCell>
        <mxCell id="tv07I0bE4dOHQFzYiPR3-42" value="Microservice" style="text;html=1;align=left;verticalAlign=middle;resizable=0;points=[];autosize=1;strokeColor=none;fillColor=none;" parent="1" vertex="1">
          <mxGeometry x="1093.5" y="82" width="85" height="26" as="geometry" />
        </mxCell>
        <mxCell id="tv07I0bE4dOHQFzYiPR3-43" value="Domain data" style="text;html=1;align=left;verticalAlign=middle;resizable=0;points=[];autosize=1;strokeColor=none;fillColor=none;" parent="1" vertex="1">
          <mxGeometry x="1093.5" y="124" width="86" height="26" as="geometry" />
        </mxCell>
        <mxCell id="tv07I0bE4dOHQFzYiPR3-44" value="Saga data" style="text;html=1;align=left;verticalAlign=middle;resizable=0;points=[];autosize=1;strokeColor=none;fillColor=none;" parent="1" vertex="1">
          <mxGeometry x="1093.5" y="166" width="73" height="26" as="geometry" />
        </mxCell>
        <mxCell id="tv07I0bE4dOHQFzYiPR3-45" value="" style="shape=image;verticalLabelPosition=bottom;labelBackgroundColor=default;verticalAlign=top;aspect=fixed;imageAspect=0;image=data:image/svg+xml,PHN2ZyB4bWxucz0iaHR0cDovL3d3dy53My5vcmcvMjAwMC9zdmciIHhtbDpzcGFjZT0icHJlc2VydmUiIHZlcnNpb249IjEuMCIgaGVpZ2h0PSI2NCIgd2lkdGg9IjY0IiB2aWV3Qm94PSIwIDAgNjQgNjQiPiYjeGE7IDxnIGNsYXNzPSJsYXllciI+JiN4YTsgIDx0aXRsZT5MYXllciAxPC90aXRsZT4mI3hhOyAgPGcgaWQ9InN2Z18xIj4mI3hhOyAgIDxnIGlkPSJzdmdfNSI+JiN4YTsgICAgPHBhdGggaWQ9InN2Z182IiBmaWxsPSIjMzk0MjQwIiBkPSJtNTkuMzksOS44NGwtNy44MSwwbDAuMDgsMC45N2MwLC0wLjU0IDEuNzgsLTAuOTMgMS4yNCwtMC45M2wtMTAuMTIsLTAuMDRjLTAuNTQsMCAxLjA3LDAuNDQgMS4wNywwLjk4bC0wLjA4LC0wLjk3bC0yMy40NCwwbC0wLjIsMC45OGMwLC0wLjU0IDEuODYsLTAuOTggMS4zMiwtMC45OGwtMTAuMDQsMGMtMC41NCwwIDAuOSwwLjQ0IDAuOSwwLjk4bDAuMiwtMC45OGwtNy44MSwwYy0yLjE2LDAgLTMuOTEsMS43NSAtMy45MSwzLjkxbDAsMzkuMDZjMCwyLjE2IDEuNzUsMy45MSAzLjkxLDMuOTFsNTQuNjksMGMyLjE2LDAgMy45MSwtMS43NSAzLjkxLC0zLjkxbDAsLTM5LjA2YzAsLTIuMTYgLTEuNzUsLTMuOTEgLTMuOTEsLTMuOTF6bS0xMy41OSwxLjk1bDMuOTEsMGwwLjE3LC0xLjkzbC0zLjkxLDBsLTAuMTcsMS45M3ptLTMwLjIzLC0xLjIybDEuNTYsLTAuMmwxLjA3LC0wLjM5bC0zLjkxLDBsMS4yNywwLjU5em00NS43Nyw0Mi4yNGMwLDEuMDcgLTAuODgsMS45NSAtMS45NSwxLjk1bC01NC42OSwwYy0xLjA3LDAgLTEuOTUsLTAuODggLTEuOTUsLTEuOTVsMCwtMzkuMDZjMCwtMS4wNyAwLjg4LC0xLjk1IDEuOTUsLTEuOTVsNy44MSwwbC0wLjE3LC0wLjgzYzAsMC41NCAtMS4wNywwLjgxIC0wLjUzLDAuODFsOC42NiwwYzAuNTQsMCAtMC4zMiwtMC4yNyAtMC4zMiwtMC44MWwwLjE3LDAuODNsMjMuNDQsMGwwLjI1LC0wLjk2YzAsMC41NCAtMS44NiwwLjkzIC0xLjMyLDAuOTNsOS43NSwwYzAuNTQsMCAtMC42MSwtMC40IC0wLjYxLC0wLjkzbC0wLjI1LDAuOTZsNy44MSwwYzEuMDcsMCAxLjk1LDAuODggMS45NSwxLjk1bDAsMzkuMDZ6Ii8+JiN4YTsgICAgPHBhdGggaWQ9InN2Z183IiBmaWxsPSIjMzk0MjQwIiBkPSJtNDAuOCwzNy4xOGw5Ljc3LDBjMC41NCwwIDAuOTgsLTAuNDQgMC45OCwtMC45OHMtMC40NCwtMC45OCAtMC45OCwtMC45OGwtOS43NywwYy0wLjU0LDAgLTAuOTgsMC40NCAtMC45OCwwLjk4czAuNDQsMC45OCAwLjk4LDAuOTh6Ii8+JiN4YTsgICAgPHBhdGggaWQ9InN2Z184IiBmaWxsPSIjMzk0MjQwIiBkPSJtNTQuNDcsMjkuMzdsLTEzLjY3LDBjLTAuNTQsMCAtMC45OCwwLjQ0IC0wLjk4LDAuOThzMC40NCwwLjk4IDAuOTgsMC45OGwxMy42NywwYzAuNTQsMCAwLjk4LC0wLjQ0IDAuOTgsLTAuOThzLTAuNDQsLTAuOTggLTAuOTgsLTAuOTh6Ii8+JiN4YTsgICAgPHBhdGggaWQ9InN2Z185IiBmaWxsPSIjMzk0MjQwIiBkPSJtNTQuNDcsNDEuMDlsLTEzLjY3LDBjLTAuNTQsMCAtMC45OCwwLjQ0IC0wLjk4LDAuOThzMC40NCwwLjk4IDAuOTgsMC45OGwxMy42NywwYzAuNTQsMCAwLjk4LC0wLjQ0IDAuOTgsLTAuOThzLTAuNDQsLTAuOTggLTAuOTgsLTAuOTh6Ii8+JiN4YTsgICAgPHBhdGggaWQ9InN2Z18xMCIgZmlsbD0iIzM5NDI0MCIgZD0ibTQwLjgsMjUuNDdsNS44NiwwYzAuNTQsMCAwLjk4LC0wLjQ0IDAuOTgsLTAuOThzLTAuNDQsLTAuOTggLTAuOTgsLTAuOThsLTUuODYsMGMtMC41NCwwIC0wLjk4LDAuNDQgLTAuOTgsMC45OHMwLjQ0LDAuOTggMC45OCwwLjk4eiIvPiYjeGE7ICAgIDxwYXRoIGlkPSJzdmdfMTEiIGZpbGw9IiMzOTQyNDAiIGQ9Im0yMi4yNCwxOS42MWMtNy41NSwwIC0xMy42Nyw2LjEyIC0xMy42NywxMy42N3M2LjEyLDEzLjY3IDEzLjY3LDEzLjY3czEzLjY3LC02LjEyIDEzLjY3LC0xMy42N3MtNi4xMiwtMTMuNjcgLTEzLjY3LC0xMy42N3ptMCwyNS4zOWMtMi43NiwwIC01LjMsLTAuOTcgLTcuMywtMi41N2MwLjkyLC0xLjI2IDMuMDUsLTMuMjkgNy4zLC0zLjI5YzQuMjYsMCA2LjQsMi4wMyA3LjMsMy4yOWMtMiwxLjYgLTQuNTQsMi41NyAtNy4zLDIuNTd6bTguNzMsLTMuOTJjLTEuMjUsLTEuNjIgLTMuODYsLTMuOSAtOC43MywtMy45cy03LjQ4LDIuMjggLTguNzMsMy45Yy0xLjg2LC0yLjA3IC0yLjk5LC00LjggLTIuOTksLTcuOGMwLC02LjQ3IDUuMjQsLTExLjcyIDExLjcyLC0xMS43MnMxMS43Miw1LjI0IDExLjcyLDExLjcyYzAsMyAtMS4xMyw1LjczIC0yLjk5LDcuOHoiLz4mI3hhOyAgICA8cGF0aCBpZD0ic3ZnXzEyIiBmaWxsPSIjMzk0MjQwIiBkPSJtMjcuMTMsMzIuM2wwLC0xLjk1YzAsLTIuNyAtMi4xOSwtNC44OCAtNC44OCwtNC44OHMtNC44OCwyLjE5IC00Ljg4LDQuODhsMCwxLjk1YzAsMi43IDIuMTksNC44OCA0Ljg4LDQuODhzNC44OCwtMi4xOSA0Ljg4LC00Ljg4em0tMS45NSwwYzAsMS42MiAtMS4zMSwyLjkzIC0yLjkzLDIuOTNzLTIuOTMsLTEuMzEgLTIuOTMsLTIuOTNsMCwtMS45NWMwLC0xLjYyIDEuMzEsLTIuOTMgMi45MywtMi45M3MyLjkzLDEuMzEgMi45MywyLjkzbDAsMS45NXoiLz4mI3hhOyAgIDwvZz4mI3hhOyAgPC9nPiYjeGE7IDwvZz4mI3hhOzwvc3ZnPg==;" parent="1" vertex="1">
          <mxGeometry x="660.1800000000001" y="666.39" width="43" height="43" as="geometry" />
        </mxCell>
        <mxCell id="tv07I0bE4dOHQFzYiPR3-46" value="id" style="text;html=1;strokeColor=none;fillColor=none;align=center;verticalAlign=middle;whiteSpace=wrap;rounded=0;" parent="1" vertex="1">
          <mxGeometry x="651.1800000000001" y="705.39" width="61" height="21" as="geometry" />
        </mxCell>
        <mxCell id="tv07I0bE4dOHQFzYiPR3-50" value="" style="rounded=1;whiteSpace=wrap;html=1;rotation=-90;fillColor=none;strokeWidth=1;dashed=1;" parent="1" vertex="1">
          <mxGeometry x="337.44000000000005" y="377.61" width="689.79" height="76.31" as="geometry" />
        </mxCell>
        <mxCell id="tv07I0bE4dOHQFzYiPR3-51" value="" style="rounded=1;whiteSpace=wrap;html=1;rotation=0;fillColor=none;strokeWidth=1;dashed=1;" parent="1" vertex="1">
          <mxGeometry x="941.5" y="206" width="139" height="17" as="geometry" />
        </mxCell>
        <mxCell id="tv07I0bE4dOHQFzYiPR3-52" value="Same reservation IDs generated on flight reservation" style="text;html=1;align=left;verticalAlign=middle;resizable=0;points=[];autosize=1;strokeColor=none;fillColor=none;" parent="1" vertex="1">
          <mxGeometry x="1093.5" y="201.5" width="299" height="26" as="geometry" />
        </mxCell>
        <mxCell id="tv07I0bE4dOHQFzYiPR3-53" value="" style="shape=image;verticalLabelPosition=bottom;labelBackgroundColor=default;verticalAlign=top;aspect=fixed;imageAspect=0;image=data:image/svg+xml,PHN2ZyB4bWxucz0iaHR0cDovL3d3dy53My5vcmcvMjAwMC9zdmciIHhtbDpzcGFjZT0icHJlc2VydmUiIHZlcnNpb249IjEuMCIgaGVpZ2h0PSI2NCIgd2lkdGg9IjY0IiB2aWV3Qm94PSIwIDAgNjQgNjQiPiYjeGE7IDxnIGNsYXNzPSJsYXllciI+JiN4YTsgIDx0aXRsZT5MYXllciAxPC90aXRsZT4mI3hhOyAgPGcgaWQ9InN2Z18xIj4mI3hhOyAgIDxnIGlkPSJzdmdfNSI+JiN4YTsgICAgPHBhdGggaWQ9InN2Z182IiBmaWxsPSIjMzk0MjQwIiBkPSJtNTkuMzksOS44NGwtNy44MSwwbDAuMDgsMC45N2MwLC0wLjU0IDEuNzgsLTAuOTMgMS4yNCwtMC45M2wtMTAuMTIsLTAuMDRjLTAuNTQsMCAxLjA3LDAuNDQgMS4wNywwLjk4bC0wLjA4LC0wLjk3bC0yMy40NCwwbC0wLjIsMC45OGMwLC0wLjU0IDEuODYsLTAuOTggMS4zMiwtMC45OGwtMTAuMDQsMGMtMC41NCwwIDAuOSwwLjQ0IDAuOSwwLjk4bDAuMiwtMC45OGwtNy44MSwwYy0yLjE2LDAgLTMuOTEsMS43NSAtMy45MSwzLjkxbDAsMzkuMDZjMCwyLjE2IDEuNzUsMy45MSAzLjkxLDMuOTFsNTQuNjksMGMyLjE2LDAgMy45MSwtMS43NSAzLjkxLC0zLjkxbDAsLTM5LjA2YzAsLTIuMTYgLTEuNzUsLTMuOTEgLTMuOTEsLTMuOTF6bS0xMy41OSwxLjk1bDMuOTEsMGwwLjE3LC0xLjkzbC0zLjkxLDBsLTAuMTcsMS45M3ptLTMwLjIzLC0xLjIybDEuNTYsLTAuMmwxLjA3LC0wLjM5bC0zLjkxLDBsMS4yNywwLjU5em00NS43Nyw0Mi4yNGMwLDEuMDcgLTAuODgsMS45NSAtMS45NSwxLjk1bC01NC42OSwwYy0xLjA3LDAgLTEuOTUsLTAuODggLTEuOTUsLTEuOTVsMCwtMzkuMDZjMCwtMS4wNyAwLjg4LC0xLjk1IDEuOTUsLTEuOTVsNy44MSwwbC0wLjE3LC0wLjgzYzAsMC41NCAtMS4wNywwLjgxIC0wLjUzLDAuODFsOC42NiwwYzAuNTQsMCAtMC4zMiwtMC4yNyAtMC4zMiwtMC44MWwwLjE3LDAuODNsMjMuNDQsMGwwLjI1LC0wLjk2YzAsMC41NCAtMS44NiwwLjkzIC0xLjMyLDAuOTNsOS43NSwwYzAuNTQsMCAtMC42MSwtMC40IC0wLjYxLC0wLjkzbC0wLjI1LDAuOTZsNy44MSwwYzEuMDcsMCAxLjk1LDAuODggMS45NSwxLjk1bDAsMzkuMDZ6Ii8+JiN4YTsgICAgPHBhdGggaWQ9InN2Z183IiBmaWxsPSIjMzk0MjQwIiBkPSJtNDAuOCwzNy4xOGw5Ljc3LDBjMC41NCwwIDAuOTgsLTAuNDQgMC45OCwtMC45OHMtMC40NCwtMC45OCAtMC45OCwtMC45OGwtOS43NywwYy0wLjU0LDAgLTAuOTgsMC40NCAtMC45OCwwLjk4czAuNDQsMC45OCAwLjk4LDAuOTh6Ii8+JiN4YTsgICAgPHBhdGggaWQ9InN2Z184IiBmaWxsPSIjMzk0MjQwIiBkPSJtNTQuNDcsMjkuMzdsLTEzLjY3LDBjLTAuNTQsMCAtMC45OCwwLjQ0IC0wLjk4LDAuOThzMC40NCwwLjk4IDAuOTgsMC45OGwxMy42NywwYzAuNTQsMCAwLjk4LC0wLjQ0IDAuOTgsLTAuOThzLTAuNDQsLTAuOTggLTAuOTgsLTAuOTh6Ii8+JiN4YTsgICAgPHBhdGggaWQ9InN2Z185IiBmaWxsPSIjMzk0MjQwIiBkPSJtNTQuNDcsNDEuMDlsLTEzLjY3LDBjLTAuNTQsMCAtMC45OCwwLjQ0IC0wLjk4LDAuOThzMC40NCwwLjk4IDAuOTgsMC45OGwxMy42NywwYzAuNTQsMCAwLjk4LC0wLjQ0IDAuOTgsLTAuOThzLTAuNDQsLTAuOTggLTAuOTgsLTAuOTh6Ii8+JiN4YTsgICAgPHBhdGggaWQ9InN2Z18xMCIgZmlsbD0iIzM5NDI0MCIgZD0ibTQwLjgsMjUuNDdsNS44NiwwYzAuNTQsMCAwLjk4LC0wLjQ0IDAuOTgsLTAuOThzLTAuNDQsLTAuOTggLTAuOTgsLTAuOThsLTUuODYsMGMtMC41NCwwIC0wLjk4LDAuNDQgLTAuOTgsMC45OHMwLjQ0LDAuOTggMC45OCwwLjk4eiIvPiYjeGE7ICAgIDxwYXRoIGlkPSJzdmdfMTEiIGZpbGw9IiMzOTQyNDAiIGQ9Im0yMi4yNCwxOS42MWMtNy41NSwwIC0xMy42Nyw2LjEyIC0xMy42NywxMy42N3M2LjEyLDEzLjY3IDEzLjY3LDEzLjY3czEzLjY3LC02LjEyIDEzLjY3LC0xMy42N3MtNi4xMiwtMTMuNjcgLTEzLjY3LC0xMy42N3ptMCwyNS4zOWMtMi43NiwwIC01LjMsLTAuOTcgLTcuMywtMi41N2MwLjkyLC0xLjI2IDMuMDUsLTMuMjkgNy4zLC0zLjI5YzQuMjYsMCA2LjQsMi4wMyA3LjMsMy4yOWMtMiwxLjYgLTQuNTQsMi41NyAtNy4zLDIuNTd6bTguNzMsLTMuOTJjLTEuMjUsLTEuNjIgLTMuODYsLTMuOSAtOC43MywtMy45cy03LjQ4LDIuMjggLTguNzMsMy45Yy0xLjg2LC0yLjA3IC0yLjk5LC00LjggLTIuOTksLTcuOGMwLC02LjQ3IDUuMjQsLTExLjcyIDExLjcyLC0xMS43MnMxMS43Miw1LjI0IDExLjcyLDExLjcyYzAsMyAtMS4xMyw1LjczIC0yLjk5LDcuOHoiLz4mI3hhOyAgICA8cGF0aCBpZD0ic3ZnXzEyIiBmaWxsPSIjMzk0MjQwIiBkPSJtMjcuMTMsMzIuM2wwLC0xLjk1YzAsLTIuNyAtMi4xOSwtNC44OCAtNC44OCwtNC44OHMtNC44OCwyLjE5IC00Ljg4LDQuODhsMCwxLjk1YzAsMi43IDIuMTksNC44OCA0Ljg4LDQuODhzNC44OCwtMi4xOSA0Ljg4LC00Ljg4em0tMS45NSwwYzAsMS42MiAtMS4zMSwyLjkzIC0yLjkzLDIuOTNzLTIuOTMsLTEuMzEgLTIuOTMsLTIuOTNsMCwtMS45NWMwLC0xLjYyIDEuMzEsLTIuOTMgMi45MywtMi45M3MyLjkzLDEuMzEgMi45MywyLjkzbDAsMS45NXoiLz4mI3hhOyAgIDwvZz4mI3hhOyAgPC9nPiYjeGE7IDwvZz4mI3hhOzwvc3ZnPg==;" parent="1" vertex="1">
          <mxGeometry x="243.36" y="169.14" width="22.5" height="22.5" as="geometry" />
        </mxCell>
        <mxCell id="tv07I0bE4dOHQFzYiPR3-54" value="id" style="text;html=1;strokeColor=none;fillColor=none;align=left;verticalAlign=middle;whiteSpace=wrap;rounded=0;" parent="1" vertex="1">
          <mxGeometry x="266.86" y="168.39" width="129" height="24" as="geometry" />
        </mxCell>
        <mxCell id="tv07I0bE4dOHQFzYiPR3-55" value="" style="shape=image;verticalLabelPosition=bottom;labelBackgroundColor=default;verticalAlign=top;aspect=fixed;imageAspect=0;image=data:image/svg+xml,PHN2ZyB4bWxucz0iaHR0cDovL3d3dy53My5vcmcvMjAwMC9zdmciIHhtbDpzcGFjZT0icHJlc2VydmUiIHZlcnNpb249IjEuMCIgaGVpZ2h0PSI2NCIgd2lkdGg9IjY0IiB2aWV3Qm94PSIwIDAgNjQgNjQiPiYjeGE7IDxnIGNsYXNzPSJsYXllciI+JiN4YTsgIDx0aXRsZT5MYXllciAxPC90aXRsZT4mI3hhOyAgPGcgaWQ9InN2Z18xIj4mI3hhOyAgIDxnIGlkPSJzdmdfNSI+JiN4YTsgICAgPHBhdGggaWQ9InN2Z182IiBmaWxsPSIjMzk0MjQwIiBkPSJtNTkuMzksOS44NGwtNy44MSwwbDAuMDgsMC45N2MwLC0wLjU0IDEuNzgsLTAuOTMgMS4yNCwtMC45M2wtMTAuMTIsLTAuMDRjLTAuNTQsMCAxLjA3LDAuNDQgMS4wNywwLjk4bC0wLjA4LC0wLjk3bC0yMy40NCwwbC0wLjIsMC45OGMwLC0wLjU0IDEuODYsLTAuOTggMS4zMiwtMC45OGwtMTAuMDQsMGMtMC41NCwwIDAuOSwwLjQ0IDAuOSwwLjk4bDAuMiwtMC45OGwtNy44MSwwYy0yLjE2LDAgLTMuOTEsMS43NSAtMy45MSwzLjkxbDAsMzkuMDZjMCwyLjE2IDEuNzUsMy45MSAzLjkxLDMuOTFsNTQuNjksMGMyLjE2LDAgMy45MSwtMS43NSAzLjkxLC0zLjkxbDAsLTM5LjA2YzAsLTIuMTYgLTEuNzUsLTMuOTEgLTMuOTEsLTMuOTF6bS0xMy41OSwxLjk1bDMuOTEsMGwwLjE3LC0xLjkzbC0zLjkxLDBsLTAuMTcsMS45M3ptLTMwLjIzLC0xLjIybDEuNTYsLTAuMmwxLjA3LC0wLjM5bC0zLjkxLDBsMS4yNywwLjU5em00NS43Nyw0Mi4yNGMwLDEuMDcgLTAuODgsMS45NSAtMS45NSwxLjk1bC01NC42OSwwYy0xLjA3LDAgLTEuOTUsLTAuODggLTEuOTUsLTEuOTVsMCwtMzkuMDZjMCwtMS4wNyAwLjg4LC0xLjk1IDEuOTUsLTEuOTVsNy44MSwwbC0wLjE3LC0wLjgzYzAsMC41NCAtMS4wNywwLjgxIC0wLjUzLDAuODFsOC42NiwwYzAuNTQsMCAtMC4zMiwtMC4yNyAtMC4zMiwtMC44MWwwLjE3LDAuODNsMjMuNDQsMGwwLjI1LC0wLjk2YzAsMC41NCAtMS44NiwwLjkzIC0xLjMyLDAuOTNsOS43NSwwYzAuNTQsMCAtMC42MSwtMC40IC0wLjYxLC0wLjkzbC0wLjI1LDAuOTZsNy44MSwwYzEuMDcsMCAxLjk1LDAuODggMS45NSwxLjk1bDAsMzkuMDZ6Ii8+JiN4YTsgICAgPHBhdGggaWQ9InN2Z183IiBmaWxsPSIjMzk0MjQwIiBkPSJtNDAuOCwzNy4xOGw5Ljc3LDBjMC41NCwwIDAuOTgsLTAuNDQgMC45OCwtMC45OHMtMC40NCwtMC45OCAtMC45OCwtMC45OGwtOS43NywwYy0wLjU0LDAgLTAuOTgsMC40NCAtMC45OCwwLjk4czAuNDQsMC45OCAwLjk4LDAuOTh6Ii8+JiN4YTsgICAgPHBhdGggaWQ9InN2Z184IiBmaWxsPSIjMzk0MjQwIiBkPSJtNTQuNDcsMjkuMzdsLTEzLjY3LDBjLTAuNTQsMCAtMC45OCwwLjQ0IC0wLjk4LDAuOThzMC40NCwwLjk4IDAuOTgsMC45OGwxMy42NywwYzAuNTQsMCAwLjk4LC0wLjQ0IDAuOTgsLTAuOThzLTAuNDQsLTAuOTggLTAuOTgsLTAuOTh6Ii8+JiN4YTsgICAgPHBhdGggaWQ9InN2Z185IiBmaWxsPSIjMzk0MjQwIiBkPSJtNTQuNDcsNDEuMDlsLTEzLjY3LDBjLTAuNTQsMCAtMC45OCwwLjQ0IC0wLjk4LDAuOThzMC40NCwwLjk4IDAuOTgsMC45OGwxMy42NywwYzAuNTQsMCAwLjk4LC0wLjQ0IDAuOTgsLTAuOThzLTAuNDQsLTAuOTggLTAuOTgsLTAuOTh6Ii8+JiN4YTsgICAgPHBhdGggaWQ9InN2Z18xMCIgZmlsbD0iIzM5NDI0MCIgZD0ibTQwLjgsMjUuNDdsNS44NiwwYzAuNTQsMCAwLjk4LC0wLjQ0IDAuOTgsLTAuOThzLTAuNDQsLTAuOTggLTAuOTgsLTAuOThsLTUuODYsMGMtMC41NCwwIC0wLjk4LDAuNDQgLTAuOTgsMC45OHMwLjQ0LDAuOTggMC45OCwwLjk4eiIvPiYjeGE7ICAgIDxwYXRoIGlkPSJzdmdfMTEiIGZpbGw9IiMzOTQyNDAiIGQ9Im0yMi4yNCwxOS42MWMtNy41NSwwIC0xMy42Nyw2LjEyIC0xMy42NywxMy42N3M2LjEyLDEzLjY3IDEzLjY3LDEzLjY3czEzLjY3LC02LjEyIDEzLjY3LC0xMy42N3MtNi4xMiwtMTMuNjcgLTEzLjY3LC0xMy42N3ptMCwyNS4zOWMtMi43NiwwIC01LjMsLTAuOTcgLTcuMywtMi41N2MwLjkyLC0xLjI2IDMuMDUsLTMuMjkgNy4zLC0zLjI5YzQuMjYsMCA2LjQsMi4wMyA3LjMsMy4yOWMtMiwxLjYgLTQuNTQsMi41NyAtNy4zLDIuNTd6bTguNzMsLTMuOTJjLTEuMjUsLTEuNjIgLTMuODYsLTMuOSAtOC43MywtMy45cy03LjQ4LDIuMjggLTguNzMsMy45Yy0xLjg2LC0yLjA3IC0yLjk5LC00LjggLTIuOTksLTcuOGMwLC02LjQ3IDUuMjQsLTExLjcyIDExLjcyLC0xMS43MnMxMS43Miw1LjI0IDExLjcyLDExLjcyYzAsMyAtMS4xMyw1LjczIC0yLjk5LDcuOHoiLz4mI3hhOyAgICA8cGF0aCBpZD0ic3ZnXzEyIiBmaWxsPSIjMzk0MjQwIiBkPSJtMjcuMTMsMzIuM2wwLC0xLjk1YzAsLTIuNyAtMi4xOSwtNC44OCAtNC44OCwtNC44OHMtNC44OCwyLjE5IC00Ljg4LDQuODhsMCwxLjk1YzAsMi43IDIuMTksNC44OCA0Ljg4LDQuODhzNC44OCwtMi4xOSA0Ljg4LC00Ljg4em0tMS45NSwwYzAsMS42MiAtMS4zMSwyLjkzIC0yLjkzLDIuOTNzLTIuOTMsLTEuMzEgLTIuOTMsLTIuOTNsMCwtMS45NWMwLC0xLjYyIDEuMzEsLTIuOTMgMi45MywtMi45M3MyLjkzLDEuMzEgMi45MywyLjkzbDAsMS45NXoiLz4mI3hhOyAgIDwvZz4mI3hhOyAgPC9nPiYjeGE7IDwvZz4mI3hhOzwvc3ZnPg==;" parent="1" vertex="1">
          <mxGeometry x="249.5" y="324.14" width="22.5" height="22.5" as="geometry" />
        </mxCell>
        <mxCell id="tv07I0bE4dOHQFzYiPR3-56" value="id" style="text;html=1;strokeColor=none;fillColor=none;align=left;verticalAlign=middle;whiteSpace=wrap;rounded=0;" parent="1" vertex="1">
          <mxGeometry x="273" y="323.39" width="28.5" height="24" as="geometry" />
        </mxCell>
        <mxCell id="tv07I0bE4dOHQFzYiPR3-57" value="" style="shape=image;verticalLabelPosition=bottom;labelBackgroundColor=default;verticalAlign=top;aspect=fixed;imageAspect=0;image=data:image/svg+xml,PHN2ZyB4bWxucz0iaHR0cDovL3d3dy53My5vcmcvMjAwMC9zdmciIHhtbDpzcGFjZT0icHJlc2VydmUiIHZlcnNpb249IjEuMCIgaGVpZ2h0PSI2NCIgd2lkdGg9IjY0IiB2aWV3Qm94PSIwIDAgNjQgNjQiPiYjeGE7IDxnIGNsYXNzPSJsYXllciI+JiN4YTsgIDx0aXRsZT5MYXllciAxPC90aXRsZT4mI3hhOyAgPGcgaWQ9InN2Z18xIj4mI3hhOyAgIDxnIGlkPSJzdmdfNSI+JiN4YTsgICAgPHBhdGggaWQ9InN2Z182IiBmaWxsPSIjMzk0MjQwIiBkPSJtNTkuMzksOS44NGwtNy44MSwwbDAuMDgsMC45N2MwLC0wLjU0IDEuNzgsLTAuOTMgMS4yNCwtMC45M2wtMTAuMTIsLTAuMDRjLTAuNTQsMCAxLjA3LDAuNDQgMS4wNywwLjk4bC0wLjA4LC0wLjk3bC0yMy40NCwwbC0wLjIsMC45OGMwLC0wLjU0IDEuODYsLTAuOTggMS4zMiwtMC45OGwtMTAuMDQsMGMtMC41NCwwIDAuOSwwLjQ0IDAuOSwwLjk4bDAuMiwtMC45OGwtNy44MSwwYy0yLjE2LDAgLTMuOTEsMS43NSAtMy45MSwzLjkxbDAsMzkuMDZjMCwyLjE2IDEuNzUsMy45MSAzLjkxLDMuOTFsNTQuNjksMGMyLjE2LDAgMy45MSwtMS43NSAzLjkxLC0zLjkxbDAsLTM5LjA2YzAsLTIuMTYgLTEuNzUsLTMuOTEgLTMuOTEsLTMuOTF6bS0xMy41OSwxLjk1bDMuOTEsMGwwLjE3LC0xLjkzbC0zLjkxLDBsLTAuMTcsMS45M3ptLTMwLjIzLC0xLjIybDEuNTYsLTAuMmwxLjA3LC0wLjM5bC0zLjkxLDBsMS4yNywwLjU5em00NS43Nyw0Mi4yNGMwLDEuMDcgLTAuODgsMS45NSAtMS45NSwxLjk1bC01NC42OSwwYy0xLjA3LDAgLTEuOTUsLTAuODggLTEuOTUsLTEuOTVsMCwtMzkuMDZjMCwtMS4wNyAwLjg4LC0xLjk1IDEuOTUsLTEuOTVsNy44MSwwbC0wLjE3LC0wLjgzYzAsMC41NCAtMS4wNywwLjgxIC0wLjUzLDAuODFsOC42NiwwYzAuNTQsMCAtMC4zMiwtMC4yNyAtMC4zMiwtMC44MWwwLjE3LDAuODNsMjMuNDQsMGwwLjI1LC0wLjk2YzAsMC41NCAtMS44NiwwLjkzIC0xLjMyLDAuOTNsOS43NSwwYzAuNTQsMCAtMC42MSwtMC40IC0wLjYxLC0wLjkzbC0wLjI1LDAuOTZsNy44MSwwYzEuMDcsMCAxLjk1LDAuODggMS45NSwxLjk1bDAsMzkuMDZ6Ii8+JiN4YTsgICAgPHBhdGggaWQ9InN2Z183IiBmaWxsPSIjMzk0MjQwIiBkPSJtNDAuOCwzNy4xOGw5Ljc3LDBjMC41NCwwIDAuOTgsLTAuNDQgMC45OCwtMC45OHMtMC40NCwtMC45OCAtMC45OCwtMC45OGwtOS43NywwYy0wLjU0LDAgLTAuOTgsMC40NCAtMC45OCwwLjk4czAuNDQsMC45OCAwLjk4LDAuOTh6Ii8+JiN4YTsgICAgPHBhdGggaWQ9InN2Z184IiBmaWxsPSIjMzk0MjQwIiBkPSJtNTQuNDcsMjkuMzdsLTEzLjY3LDBjLTAuNTQsMCAtMC45OCwwLjQ0IC0wLjk4LDAuOThzMC40NCwwLjk4IDAuOTgsMC45OGwxMy42NywwYzAuNTQsMCAwLjk4LC0wLjQ0IDAuOTgsLTAuOThzLTAuNDQsLTAuOTggLTAuOTgsLTAuOTh6Ii8+JiN4YTsgICAgPHBhdGggaWQ9InN2Z185IiBmaWxsPSIjMzk0MjQwIiBkPSJtNTQuNDcsNDEuMDlsLTEzLjY3LDBjLTAuNTQsMCAtMC45OCwwLjQ0IC0wLjk4LDAuOThzMC40NCwwLjk4IDAuOTgsMC45OGwxMy42NywwYzAuNTQsMCAwLjk4LC0wLjQ0IDAuOTgsLTAuOThzLTAuNDQsLTAuOTggLTAuOTgsLTAuOTh6Ii8+JiN4YTsgICAgPHBhdGggaWQ9InN2Z18xMCIgZmlsbD0iIzM5NDI0MCIgZD0ibTQwLjgsMjUuNDdsNS44NiwwYzAuNTQsMCAwLjk4LC0wLjQ0IDAuOTgsLTAuOThzLTAuNDQsLTAuOTggLTAuOTgsLTAuOThsLTUuODYsMGMtMC41NCwwIC0wLjk4LDAuNDQgLTAuOTgsMC45OHMwLjQ0LDAuOTggMC45OCwwLjk4eiIvPiYjeGE7ICAgIDxwYXRoIGlkPSJzdmdfMTEiIGZpbGw9IiMzOTQyNDAiIGQ9Im0yMi4yNCwxOS42MWMtNy41NSwwIC0xMy42Nyw2LjEyIC0xMy42NywxMy42N3M2LjEyLDEzLjY3IDEzLjY3LDEzLjY3czEzLjY3LC02LjEyIDEzLjY3LC0xMy42N3MtNi4xMiwtMTMuNjcgLTEzLjY3LC0xMy42N3ptMCwyNS4zOWMtMi43NiwwIC01LjMsLTAuOTcgLTcuMywtMi41N2MwLjkyLC0xLjI2IDMuMDUsLTMuMjkgNy4zLC0zLjI5YzQuMjYsMCA2LjQsMi4wMyA3LjMsMy4yOWMtMiwxLjYgLTQuNTQsMi41NyAtNy4zLDIuNTd6bTguNzMsLTMuOTJjLTEuMjUsLTEuNjIgLTMuODYsLTMuOSAtOC43MywtMy45cy03LjQ4LDIuMjggLTguNzMsMy45Yy0xLjg2LC0yLjA3IC0yLjk5LC00LjggLTIuOTksLTcuOGMwLC02LjQ3IDUuMjQsLTExLjcyIDExLjcyLC0xMS43MnMxMS43Miw1LjI0IDExLjcyLDExLjcyYzAsMyAtMS4xMyw1LjczIC0yLjk5LDcuOHoiLz4mI3hhOyAgICA8cGF0aCBpZD0ic3ZnXzEyIiBmaWxsPSIjMzk0MjQwIiBkPSJtMjcuMTMsMzIuM2wwLC0xLjk1YzAsLTIuNyAtMi4xOSwtNC44OCAtNC44OCwtNC44OHMtNC44OCwyLjE5IC00Ljg4LDQuODhsMCwxLjk1YzAsMi43IDIuMTksNC44OCA0Ljg4LDQuODhzNC44OCwtMi4xOSA0Ljg4LC00Ljg4em0tMS45NSwwYzAsMS42MiAtMS4zMSwyLjkzIC0yLjkzLDIuOTNzLTIuOTMsLTEuMzEgLTIuOTMsLTIuOTNsMCwtMS45NWMwLC0xLjYyIDEuMzEsLTIuOTMgMi45MywtMi45M3MyLjkzLDEuMzEgMi45MywyLjkzbDAsMS45NXoiLz4mI3hhOyAgIDwvZz4mI3hhOyAgPC9nPiYjeGE7IDwvZz4mI3hhOzwvc3ZnPg==;" parent="1" vertex="1">
          <mxGeometry x="378.64" y="325.28" width="22.5" height="22.5" as="geometry" />
        </mxCell>
        <mxCell id="tv07I0bE4dOHQFzYiPR3-58" value="id" style="text;html=1;strokeColor=none;fillColor=none;align=left;verticalAlign=middle;whiteSpace=wrap;rounded=0;" parent="1" vertex="1">
          <mxGeometry x="402.14" y="324.53" width="28.5" height="24" as="geometry" />
        </mxCell>
        <mxCell id="tv07I0bE4dOHQFzYiPR3-59" value="" style="shape=image;verticalLabelPosition=bottom;labelBackgroundColor=default;verticalAlign=top;aspect=fixed;imageAspect=0;image=data:image/svg+xml,PHN2ZyB4bWxuczp4bGluaz0iaHR0cDovL3d3dy53My5vcmcvMTk5OS94bGluayIgeG1sbnM9Imh0dHA6Ly93d3cudzMub3JnLzIwMDAvc3ZnIiBzdHJva2U9IiMwMDAwMDAiIGZpbGw9IiMwMDAwMDAiIHhtbDpzcGFjZT0icHJlc2VydmUiIHZpZXdCb3g9IjAgMCA2NCA2NCIgaGVpZ2h0PSI4MDBweCIgd2lkdGg9IjgwMHB4IiBpZD0iTGF5ZXJfMSIgdmVyc2lvbj0iMS4wIj4mI3hhOyYjeGE7PGcgc3Ryb2tlLXdpZHRoPSIwIiBpZD0iU1ZHUmVwb19iZ0NhcnJpZXIiLz4mI3hhOyYjeGE7PGcgc3Ryb2tlLWxpbmVqb2luPSJyb3VuZCIgc3Ryb2tlLWxpbmVjYXA9InJvdW5kIiBpZD0iU1ZHUmVwb190cmFjZXJDYXJyaWVyIi8+JiN4YTsmI3hhOzxnIGlkPSJTVkdSZXBvX2ljb25DYXJyaWVyIj4gPGc+IDxyZWN0IGhlaWdodD0iNiIgd2lkdGg9IjYiIGZpbGw9IiNmZmZmZmYiIHk9IjM0IiB4PSIxNiIvPiA8cmVjdCBoZWlnaHQ9IjYiIHdpZHRoPSI2IiBmaWxsPSIjZmZmZmZmIiB5PSIzNCIgeD0iNDIiLz4gPHBhdGggZD0iTTYzLjIxMSwyOS43ODlMMzQuNDM4LDEuMDE1YzAsMC0wLjkzNy0xLjAxNS0yLjQzLTEuMDE1cy0yLjM3NiwwLjk5MS0yLjM3NiwwLjk5MUwyMCwxMC42MDRWNSBjMC0wLjU1My0wLjQ0Ny0xLTEtMWgtNmMtMC41NTMsMC0xLDAuNDQ3LTEsMXYxMy41ODlMMC43ODMsMjkuNzgzQzAuMjQsMzAuMzI2LDAsMzEuMTcyLDAsMzJjMCwxLjY1NiwxLjM0MywzLDMsMyBjMC44MjgsMCwxLjY2Mi0wLjI1MSwyLjIwNS0wLjc5NEw2LDMzLjQxMVY2MGMwLDIuMjExLDEuNzg5LDQsNCw0aDQ0YzIuMjExLDAsNC0xLjc4OSw0LTRWMzMuMzk0bDAuODA0LDAuODA0IEM1OS4zNDcsMzQuNzM5LDYwLjE3MiwzNSw2MSwzNWMxLjY1NywwLDMtMS4zNDMsMy0zQzY0LDMxLjE3MSw2My43NTQsMzAuMzMyLDYzLjIxMSwyOS43ODl6IE0yNCw0MWMwLDAuNTUzLTAuNDQ3LDEtMSwxaC04IGMtMC41NTMsMC0xLTAuNDQ3LTEtMXYtOGMwLTAuNTUzLDAuNDQ3LTEsMS0xaDhjMC41NTMsMCwxLDAuNDQ3LDEsMVY0MXogTTM4LDYyLjAwMkgyNnYtMTVjMC0wLjU1MywwLjQ0Ny0xLDEtMWgxMCBjMC41NTMsMCwxLDAuNDQ3LDEsMVY2Mi4wMDJ6IE01MCw0MWMwLDAuNTUzLTAuNDQ3LDEtMSwxaC04Yy0wLjU1MywwLTEtMC40NDctMS0xdi04YzAtMC41NTMsMC40NDctMSwxLTFoOGMwLjU1MywwLDEsMC40NDcsMSwxIFY0MXogTTYxLDMzYy0wLjI3NiwwLTAuNjAyLTAuMDM2LTAuNzgyLTAuMjE3TDMyLjcxNiw1LjI4MWMtMC4xOTUtMC4xOTUtMC40NTEtMC4yOTMtMC43MDctMC4yOTNzLTAuNTEyLDAuMDk4LTAuNzA3LDAuMjkzIEwzLjc5MSwzMi43OTNDMy42MSwzMi45NzQsMy4yNzYsMzMsMywzM2MtMC41NTMsMC0xLTAuNDQ3LTEtMWMwLTAuMjc2LDAuMDE2LTAuNjIyLDAuMTk3LTAuODAzTDMxLjAzNSwyLjQxIGMwLDAsMC4zNzMtMC40MSwwLjk3NC0wLjQxczAuOTgyLDAuMzk4LDAuOTgyLDAuMzk4bDI4LjgwNiwyOC44MDVDNjEuOTc4LDMxLjM4NCw2MiwzMS43MjQsNjIsMzJDNjIsMzIuNTUyLDYxLjU1MywzMyw2MSwzM3oiIGZpbGw9IiNmZmZmZmYiLz4gPC9nPiA8L2c+JiN4YTsmI3hhOzwvc3ZnPg==;rotation=0;" parent="1" vertex="1">
          <mxGeometry x="383.64" y="348.53" width="14.72" height="14.72" as="geometry" />
        </mxCell>
        <mxCell id="tv07I0bE4dOHQFzYiPR3-60" value="hotel_id" style="text;html=1;strokeColor=none;fillColor=none;align=left;verticalAlign=middle;whiteSpace=wrap;rounded=0;" parent="1" vertex="1">
          <mxGeometry x="402.14" y="343.89" width="56.5" height="24" as="geometry" />
        </mxCell>
        <mxCell id="tv07I0bE4dOHQFzYiPR3-61" value="" style="shape=image;verticalLabelPosition=bottom;labelBackgroundColor=default;verticalAlign=top;aspect=fixed;imageAspect=0;image=data:image/svg+xml,PHN2ZyB4bWxucz0iaHR0cDovL3d3dy53My5vcmcvMjAwMC9zdmciIHhtbDpzcGFjZT0icHJlc2VydmUiIHZlcnNpb249IjEuMCIgaGVpZ2h0PSI2NCIgd2lkdGg9IjY0IiB2aWV3Qm94PSIwIDAgNjQgNjQiPiYjeGE7IDxnIGNsYXNzPSJsYXllciI+JiN4YTsgIDx0aXRsZT5MYXllciAxPC90aXRsZT4mI3hhOyAgPGcgaWQ9InN2Z18xIj4mI3hhOyAgIDxnIGlkPSJzdmdfNSI+JiN4YTsgICAgPHBhdGggaWQ9InN2Z182IiBmaWxsPSIjMzk0MjQwIiBkPSJtNTkuMzksOS44NGwtNy44MSwwbDAuMDgsMC45N2MwLC0wLjU0IDEuNzgsLTAuOTMgMS4yNCwtMC45M2wtMTAuMTIsLTAuMDRjLTAuNTQsMCAxLjA3LDAuNDQgMS4wNywwLjk4bC0wLjA4LC0wLjk3bC0yMy40NCwwbC0wLjIsMC45OGMwLC0wLjU0IDEuODYsLTAuOTggMS4zMiwtMC45OGwtMTAuMDQsMGMtMC41NCwwIDAuOSwwLjQ0IDAuOSwwLjk4bDAuMiwtMC45OGwtNy44MSwwYy0yLjE2LDAgLTMuOTEsMS43NSAtMy45MSwzLjkxbDAsMzkuMDZjMCwyLjE2IDEuNzUsMy45MSAzLjkxLDMuOTFsNTQuNjksMGMyLjE2LDAgMy45MSwtMS43NSAzLjkxLC0zLjkxbDAsLTM5LjA2YzAsLTIuMTYgLTEuNzUsLTMuOTEgLTMuOTEsLTMuOTF6bS0xMy41OSwxLjk1bDMuOTEsMGwwLjE3LC0xLjkzbC0zLjkxLDBsLTAuMTcsMS45M3ptLTMwLjIzLC0xLjIybDEuNTYsLTAuMmwxLjA3LC0wLjM5bC0zLjkxLDBsMS4yNywwLjU5em00NS43Nyw0Mi4yNGMwLDEuMDcgLTAuODgsMS45NSAtMS45NSwxLjk1bC01NC42OSwwYy0xLjA3LDAgLTEuOTUsLTAuODggLTEuOTUsLTEuOTVsMCwtMzkuMDZjMCwtMS4wNyAwLjg4LC0xLjk1IDEuOTUsLTEuOTVsNy44MSwwbC0wLjE3LC0wLjgzYzAsMC41NCAtMS4wNywwLjgxIC0wLjUzLDAuODFsOC42NiwwYzAuNTQsMCAtMC4zMiwtMC4yNyAtMC4zMiwtMC44MWwwLjE3LDAuODNsMjMuNDQsMGwwLjI1LC0wLjk2YzAsMC41NCAtMS44NiwwLjkzIC0xLjMyLDAuOTNsOS43NSwwYzAuNTQsMCAtMC42MSwtMC40IC0wLjYxLC0wLjkzbC0wLjI1LDAuOTZsNy44MSwwYzEuMDcsMCAxLjk1LDAuODggMS45NSwxLjk1bDAsMzkuMDZ6Ii8+JiN4YTsgICAgPHBhdGggaWQ9InN2Z183IiBmaWxsPSIjMzk0MjQwIiBkPSJtNDAuOCwzNy4xOGw5Ljc3LDBjMC41NCwwIDAuOTgsLTAuNDQgMC45OCwtMC45OHMtMC40NCwtMC45OCAtMC45OCwtMC45OGwtOS43NywwYy0wLjU0LDAgLTAuOTgsMC40NCAtMC45OCwwLjk4czAuNDQsMC45OCAwLjk4LDAuOTh6Ii8+JiN4YTsgICAgPHBhdGggaWQ9InN2Z184IiBmaWxsPSIjMzk0MjQwIiBkPSJtNTQuNDcsMjkuMzdsLTEzLjY3LDBjLTAuNTQsMCAtMC45OCwwLjQ0IC0wLjk4LDAuOThzMC40NCwwLjk4IDAuOTgsMC45OGwxMy42NywwYzAuNTQsMCAwLjk4LC0wLjQ0IDAuOTgsLTAuOThzLTAuNDQsLTAuOTggLTAuOTgsLTAuOTh6Ii8+JiN4YTsgICAgPHBhdGggaWQ9InN2Z185IiBmaWxsPSIjMzk0MjQwIiBkPSJtNTQuNDcsNDEuMDlsLTEzLjY3LDBjLTAuNTQsMCAtMC45OCwwLjQ0IC0wLjk4LDAuOThzMC40NCwwLjk4IDAuOTgsMC45OGwxMy42NywwYzAuNTQsMCAwLjk4LC0wLjQ0IDAuOTgsLTAuOThzLTAuNDQsLTAuOTggLTAuOTgsLTAuOTh6Ii8+JiN4YTsgICAgPHBhdGggaWQ9InN2Z18xMCIgZmlsbD0iIzM5NDI0MCIgZD0ibTQwLjgsMjUuNDdsNS44NiwwYzAuNTQsMCAwLjk4LC0wLjQ0IDAuOTgsLTAuOThzLTAuNDQsLTAuOTggLTAuOTgsLTAuOThsLTUuODYsMGMtMC41NCwwIC0wLjk4LDAuNDQgLTAuOTgsMC45OHMwLjQ0LDAuOTggMC45OCwwLjk4eiIvPiYjeGE7ICAgIDxwYXRoIGlkPSJzdmdfMTEiIGZpbGw9IiMzOTQyNDAiIGQ9Im0yMi4yNCwxOS42MWMtNy41NSwwIC0xMy42Nyw2LjEyIC0xMy42NywxMy42N3M2LjEyLDEzLjY3IDEzLjY3LDEzLjY3czEzLjY3LC02LjEyIDEzLjY3LC0xMy42N3MtNi4xMiwtMTMuNjcgLTEzLjY3LC0xMy42N3ptMCwyNS4zOWMtMi43NiwwIC01LjMsLTAuOTcgLTcuMywtMi41N2MwLjkyLC0xLjI2IDMuMDUsLTMuMjkgNy4zLC0zLjI5YzQuMjYsMCA2LjQsMi4wMyA3LjMsMy4yOWMtMiwxLjYgLTQuNTQsMi41NyAtNy4zLDIuNTd6bTguNzMsLTMuOTJjLTEuMjUsLTEuNjIgLTMuODYsLTMuOSAtOC43MywtMy45cy03LjQ4LDIuMjggLTguNzMsMy45Yy0xLjg2LC0yLjA3IC0yLjk5LC00LjggLTIuOTksLTcuOGMwLC02LjQ3IDUuMjQsLTExLjcyIDExLjcyLC0xMS43MnMxMS43Miw1LjI0IDExLjcyLDExLjcyYzAsMyAtMS4xMyw1LjczIC0yLjk5LDcuOHoiLz4mI3hhOyAgICA8cGF0aCBpZD0ic3ZnXzEyIiBmaWxsPSIjMzk0MjQwIiBkPSJtMjcuMTMsMzIuM2wwLC0xLjk1YzAsLTIuNyAtMi4xOSwtNC44OCAtNC44OCwtNC44OHMtNC44OCwyLjE5IC00Ljg4LDQuODhsMCwxLjk1YzAsMi43IDIuMTksNC44OCA0Ljg4LDQuODhzNC44OCwtMi4xOSA0Ljg4LC00Ljg4em0tMS45NSwwYzAsMS42MiAtMS4zMSwyLjkzIC0yLjkzLDIuOTNzLTIuOTMsLTEuMzEgLTIuOTMsLTIuOTNsMCwtMS45NWMwLC0xLjYyIDEuMzEsLTIuOTMgMi45MywtMi45M3MyLjkzLDEuMzEgMi45MywyLjkzbDAsMS45NXoiLz4mI3hhOyAgIDwvZz4mI3hhOyAgPC9nPiYjeGE7IDwvZz4mI3hhOzwvc3ZnPg==;" parent="1" vertex="1">
          <mxGeometry x="511.4950000000001" y="325.28" width="22.5" height="22.5" as="geometry" />
        </mxCell>
        <mxCell id="tv07I0bE4dOHQFzYiPR3-62" value="id" style="text;html=1;strokeColor=none;fillColor=none;align=left;verticalAlign=middle;whiteSpace=wrap;rounded=0;" parent="1" vertex="1">
          <mxGeometry x="536" y="324.53" width="28.5" height="24" as="geometry" />
        </mxCell>
        <mxCell id="tv07I0bE4dOHQFzYiPR3-64" value="room_id" style="text;html=1;strokeColor=none;fillColor=none;align=left;verticalAlign=middle;whiteSpace=wrap;rounded=0;" parent="1" vertex="1">
          <mxGeometry x="536" y="347.39" width="56.5" height="24" as="geometry" />
        </mxCell>
        <mxCell id="tv07I0bE4dOHQFzYiPR3-65" value="" style="shape=image;verticalLabelPosition=bottom;labelBackgroundColor=default;verticalAlign=top;aspect=fixed;imageAspect=0;image=data:image/svg+xml,PHN2ZyB4bWxuczp4bGluaz0iaHR0cDovL3d3dy53My5vcmcvMTk5OS94bGluayIgeG1sbnM9Imh0dHA6Ly93d3cudzMub3JnLzIwMDAvc3ZnIiBzdHJva2U9IiMwMDAwMDAiIGZpbGw9IiMwMDAwMDAiIHhtbDpzcGFjZT0icHJlc2VydmUiIHZlcnNpb249IjEuMSIgaWQ9IkxheWVyXzEiIHZpZXdCb3g9IjAgMCA1MTIgNTEyIiBoZWlnaHQ9IjgwMHB4IiB3aWR0aD0iODAwcHgiPiYjeGE7JiN4YTs8ZyBzdHJva2Utd2lkdGg9IjAiIGlkPSJTVkdSZXBvX2JnQ2FycmllciIvPiYjeGE7JiN4YTs8ZyBzdHJva2UtbGluZWpvaW49InJvdW5kIiBzdHJva2UtbGluZWNhcD0icm91bmQiIGlkPSJTVkdSZXBvX3RyYWNlckNhcnJpZXIiLz4mI3hhOyYjeGE7PGcgaWQ9IlNWR1JlcG9faWNvbkNhcnJpZXIiPiA8Zz4gPGc+ICYjeGE7PHBhdGggZmlsbD0iIzY5NzI3MCIgZD0iTTM5Mi4wNzUsNDIyLjAyN2gtMjcyLjE1Yy01LjUyMywwLTEwLTQuNDc4LTEwLTEwdi0xNzMuMjdjMC01LjUyMiw0LjQ3Ny0xMCwxMC0xMGgyNzIuMTUgYzUuNTIzLDAsMTAsNC40NzgsMTAsMTB2MTczLjI3QzQwMi4wNzUsNDE3LjU1LDM5Ny41OTgsNDIyLjAyNywzOTIuMDc1LDQyMi4wMjd6IE0xMjkuOTI1LDQwMi4wMjdoMjUyLjE1di0xNTMuMjdoLTI1Mi4xNSBWNDAyLjAyN3oiLz4gJiN4YTs8L2c+ICYjeGE7PGc+ICYjeGE7PGc+ICYjeGE7PGxpbmUgeTI9IjE1NS45MDYiIHkxPSIyMzguMjc1IiB4Mj0iMjU2Ljk3MSIgeDE9IjI1Ni45NzEiIGZpbGw9IiNmZmZmZmYiLz4gJiN4YTs8cGF0aCBmaWxsPSIjNjk3MjcwIiBkPSJNMjU2Ljk3MSwyNDguMjc1Yy01LjUyMywwLTEwLTQuNDc4LTEwLTEwdi04Mi4zNjljMC01LjUyMiw0LjQ3Ny0xMCwxMC0xMHMxMCw0LjQ3OCwxMCwxMHY4Mi4zNjkgQzI2Ni45NzEsMjQzLjc5OCwyNjIuNDk0LDI0OC4yNzUsMjU2Ljk3MSwyNDguMjc1eiIvPiAmI3hhOzwvZz4gPGc+ICYjeGE7JiN4YTs8cGF0aCBmaWxsPSIjNjk3MjcwIiBkPSJNMzEyLjc4LDE2NS45MDZjLTAuMDA3LDAtMC4wMTMsMC0wLjAyLDBIMjAxLjE4Yy0yLjgzNCwwLTUuNTM2LTEuMjAzLTcuNDMyLTMuMzEgcy0yLjgxLTQuOTE5LTIuNTEzLTcuNzM3TDIwMi4zLDQ5Ljc3MWMwLjUzNi01LjA5LDQuODI3LTguOTUzLDkuOTQ1LTguOTUzaDg5LjQ1MWM1LjExOCwwLDkuNDA5LDMuODYzLDkuOTQ1LDguOTUzIGwxMC45OTYsMTA0LjQzOGMwLjA5NCwwLjU1MSwwLjE0NCwxLjExOCwwLjE0NCwxLjY5NkMzMjIuNzgsMTYxLjQyOSwzMTguMzAzLDE2NS45MDYsMzEyLjc4LDE2NS45MDZ6IE0yMTIuMjg5LDE0NS45MDZoODkuMzYzIGwtOC45NTgtODUuMDg4aC03MS40NDZMMjEyLjI4OSwxNDUuOTA2eiIvPiA8L2c+IDwvZz4gPGc+ICYjeGE7PHBhdGggZmlsbD0iIzY5NzI3MCIgZD0iTTI4NC42MzIsMTk5LjI0OGMtNS41MjMsMC0xMC00LjQ3OC0xMC0xMHYtMzMuMzQyYzAtNS41MjIsNC40NzctMTAsMTAtMTBzMTAsNC40NzgsMTAsMTB2MzMuMzQyIEMyOTQuNjMyLDE5NC43NzEsMjkwLjE1NSwxOTkuMjQ4LDI4NC42MzIsMTk5LjI0OHoiLz4gPC9nPiA8Zz4gJiN4YTs8cGF0aCBmaWxsPSIjNjk3MjcwIiBkPSJNMTE5LjkyNSw0NzEuMTgyYy01LjUyMywwLTEwLTQuNDc4LTEwLTEwdi00OS4xNTRjMC01LjUyMiw0LjQ3Ny0xMCwxMC0xMHMxMCw0LjQ3OCwxMCwxMHY0OS4xNTQgQzEyOS45MjUsNDY2LjcwNCwxMjUuNDQ4LDQ3MS4xODIsMTE5LjkyNSw0NzEuMTgyeiIvPiA8L2c+IDxnPiAmI3hhOzxwYXRoIGZpbGw9IiM2OTcyNzAiIGQ9Ik0zOTIuMDc1LDQ3MS4xODJjLTUuNTIzLDAtMTAtNC40NzgtMTAtMTB2LTQ5LjE1NGMwLTUuNTIyLDQuNDc3LTEwLDEwLTEwczEwLDQuNDc4LDEwLDEwdjQ5LjE1NCBDNDAyLjA3NSw0NjYuNzA0LDM5Ny41OTgsNDcxLjE4MiwzOTIuMDc1LDQ3MS4xODJ6Ii8+IDwvZz4gPGc+ICYjeGE7PHBhdGggZmlsbD0iIzY5NzI3MCIgZD0iTTI4NC42MzIsMzM1LjM5M2gtNjQuMjgxYy01LjUyMywwLTEwLTQuNDc4LTEwLTEwczQuNDc3LTEwLDEwLTEwaDY0LjI4MWM1LjUyMywwLDEwLDQuNDc4LDEwLDEwIFMyOTAuMTU1LDMzNS4zOTMsMjg0LjYzMiwzMzUuMzkzeiIvPiA8L2c+IDxnPiAmI3hhOyYjeGE7PHBhdGggZmlsbD0iIzY5NzI3MCIgZD0iTTM5Mi4wNzUsNDIyLjAyN2gtMjcyLjE1Yy01LjUyMywwLTEwLTQuNDc4LTEwLTEwdi0xNzMuMjdjMC01LjUyMiw0LjQ3Ny0xMCwxMC0xMGgyNzIuMTUgYzUuNTIzLDAsMTAsNC40NzgsMTAsMTB2MTczLjI3QzQwMi4wNzUsNDE3LjU1LDM5Ny41OTgsNDIyLjAyNywzOTIuMDc1LDQyMi4wMjd6IE0xMjkuOTI1LDQwMi4wMjdoMjUyLjE1di0xNTMuMjdoLTI1Mi4xNSBWNDAyLjAyN3oiLz4gPC9nPiA8Zz4gPGc+ICYjeGE7PGxpbmUgeTI9IjE1NS45MDYiIHkxPSIyMzguMjc1IiB4Mj0iMjU2Ljk3MSIgeDE9IjI1Ni45NzEiIGZpbGw9IiNmZmZmZmYiLz4gJiN4YTs8cGF0aCBmaWxsPSIjNjk3MjcwIiBkPSJNMjU2Ljk3MSwyNDguMjc1Yy01LjUyMywwLTEwLTQuNDc4LTEwLTEwdi04Mi4zNjljMC01LjUyMiw0LjQ3Ny0xMCwxMC0xMHMxMCw0LjQ3OCwxMCwxMHY4Mi4zNjkgQzI2Ni45NzEsMjQzLjc5OCwyNjIuNDk0LDI0OC4yNzUsMjU2Ljk3MSwyNDguMjc1eiIvPiA8L2c+IDxnPiAmI3hhOyYjeGE7PHBhdGggZmlsbD0iIzY5NzI3MCIgZD0iTTMxMi43OCwxNjUuOTA2Yy0wLjAwNywwLTAuMDEzLDAtMC4wMiwwSDIwMS4xOGMtMi44MzQsMC01LjUzNi0xLjIwMy03LjQzMi0zLjMxIHMtMi44MS00LjkxOS0yLjUxMy03LjczN0wyMDIuMyw0OS43NzFjMC41MzYtNS4wOSw0LjgyNy04Ljk1Myw5Ljk0NS04Ljk1M2g4OS40NTFjNS4xMTgsMCw5LjQwOSwzLjg2Myw5Ljk0NSw4Ljk1MyBsMTAuOTk2LDEwNC40MzhjMC4wOTQsMC41NTEsMC4xNDQsMS4xMTgsMC4xNDQsMS42OTZDMzIyLjc4LDE2MS40MjksMzE4LjMwMywxNjUuOTA2LDMxMi43OCwxNjUuOTA2eiBNMjEyLjI4OSwxNDUuOTA2aDg5LjM2MyBsLTguOTU4LTg1LjA4OGgtNzEuNDQ2TDIxMi4yODksMTQ1LjkwNnoiLz4gPC9nPiA8L2c+IDxnPiAmI3hhOzxwYXRoIGZpbGw9IiM2OTcyNzAiIGQ9Ik0yODQuNjMyLDE5OS4yNDhjLTUuNTIzLDAtMTAtNC40NzgtMTAtMTB2LTMzLjM0MmMwLTUuNTIyLDQuNDc3LTEwLDEwLTEwczEwLDQuNDc4LDEwLDEwdjMzLjM0MiBDMjk0LjYzMiwxOTQuNzcxLDI5MC4xNTUsMTk5LjI0OCwyODQuNjMyLDE5OS4yNDh6Ii8+IDwvZz4gPGc+ICYjeGE7PHBhdGggZmlsbD0iIzY5NzI3MCIgZD0iTTExOS45MjUsNDcxLjE4MmMtNS41MjMsMC0xMC00LjQ3OC0xMC0xMHYtNDkuMTU0YzAtNS41MjIsNC40NzctMTAsMTAtMTBzMTAsNC40NzgsMTAsMTB2NDkuMTU0IEMxMjkuOTI1LDQ2Ni43MDQsMTI1LjQ0OCw0NzEuMTgyLDExOS45MjUsNDcxLjE4MnoiLz4gPC9nPiA8Zz4gJiN4YTs8cGF0aCBmaWxsPSIjNjk3MjcwIiBkPSJNMzkyLjA3NSw0NzEuMTgyYy01LjUyMywwLTEwLTQuNDc4LTEwLTEwdi00OS4xNTRjMC01LjUyMiw0LjQ3Ny0xMCwxMC0xMHMxMCw0LjQ3OCwxMCwxMHY0OS4xNTQgQzQwMi4wNzUsNDY2LjcwNCwzOTcuNTk4LDQ3MS4xODIsMzkyLjA3NSw0NzEuMTgyeiIvPiA8L2c+IDxnPiAmI3hhOzxwYXRoIGZpbGw9IiM2OTcyNzAiIGQ9Ik0yODQuNjMyLDMzNS4zOTNoLTY0LjI4MWMtNS41MjMsMC0xMC00LjQ3OC0xMC0xMHM0LjQ3Ny0xMCwxMC0xMGg2NC4yODFjNS41MjMsMCwxMCw0LjQ3OCwxMCwxMCBTMjkwLjE1NSwzMzUuMzkzLDI4NC42MzIsMzM1LjM5M3oiLz4gPC9nPiA8L2c+IDwvZz4mI3hhOyYjeGE7PC9zdmc+;" parent="1" vertex="1">
          <mxGeometry x="513.815" y="350.39" width="17.86" height="17.86" as="geometry" />
        </mxCell>
        <mxCell id="tv07I0bE4dOHQFzYiPR3-68" value="" style="shape=image;verticalLabelPosition=bottom;labelBackgroundColor=default;verticalAlign=top;aspect=fixed;imageAspect=0;image=data:image/svg+xml,PHN2ZyB4bWxucz0iaHR0cDovL3d3dy53My5vcmcvMjAwMC9zdmciIGZpbGw9IiMwMDAwMDAiIHZpZXdCb3g9Ii0wLjUgMCAxNSAxNSIgaGVpZ2h0PSI4MDBweCIgd2lkdGg9IjgwMHB4Ij4mI3hhOyYjeGE7PGcgc3Ryb2tlLXdpZHRoPSIwIiBpZD0iU1ZHUmVwb19iZ0NhcnJpZXIiLz4mI3hhOyYjeGE7PGcgc3Ryb2tlLWxpbmVqb2luPSJyb3VuZCIgc3Ryb2tlLWxpbmVjYXA9InJvdW5kIiBpZD0iU1ZHUmVwb190cmFjZXJDYXJyaWVyIi8+JiN4YTsmI3hhOzxnIGlkPSJTVkdSZXBvX2ljb25DYXJyaWVyIj4gPHBhdGggdHJhbnNmb3JtPSJ0cmFuc2xhdGUoLTEwNyAtMTUyKSIgZD0iTTEwNywxNTQuMDA2ODQ1IEMxMDcsMTUzLjQ1MDc4IDEwNy40NDk5NDksMTUzIDEwOC4wMDY4NDUsMTUzIEwxMTkuOTkzMTU1LDE1MyBDMTIwLjU0OTIyLDE1MyAxMjEsMTUzLjQ0OTk0OSAxMjEsMTU0LjAwNjg0NSBMMTIxLDE2NS45OTMxNTUgQzEyMSwxNjYuNTQ5MjIgMTIwLjU1MDA1MSwxNjcgMTE5Ljk5MzE1NSwxNjcgTDEwOC4wMDY4NDUsMTY3IEMxMDcuNDUwNzgsMTY3IDEwNywxNjYuNTUwMDUxIDEwNywxNjUuOTkzMTU1IEwxMDcsMTU0LjAwNjg0NSBaIE0xMDgsMTU3IEwxMjAsMTU3IEwxMjAsMTY2IEwxMDgsMTY2IEwxMDgsMTU3IFogTTExNi41LDE2My41IEwxMTYuNSwxNTkuNSBMMTE1Ljc1NzQ4NSwxNTkuNSBMMTE0LjUsMTYwLjc2NTM2NyBMMTE0Ljk4NTAzLDE2MS4yNzUxMTIgTDExNS42NDk3MDEsMTYwLjU5NzQ1MSBMMTE1LjY0OTcwMSwxNjMuNSBMMTE2LjUsMTYzLjUgWiBNMTEyLjUsMTYzLjUgQzExMy40MTI1NDgsMTYzLjUgMTE0LDE2My4wMjk3NTMgMTE0LDE2Mi4zNjIxMTkgQzExNCwxNjEuNzgxNTY3IDExMy40OTgwOTksMTYxLjQ3Mzg3NSAxMTMuMTEwMjY2LDE2MS40MzMyMzcgQzExMy41MzIzMTksMTYxLjM1Nzc2NSAxMTMuOTQyOTY2LDE2MS4wMzg0NjIgMTEzLjk0Mjk2NiwxNjAuNTUwNzk4IEMxMTMuOTQyOTY2LDE1OS45MDYzODYgMTEzLjM5NTQzNywxNTkuNSAxMTIuNTA1NzAzLDE1OS41IEMxMTEuODM4NDAzLDE1OS41IDExMS4zNTkzMTYsMTU5Ljc2MTI0OCAxMTEuMDUxMzMxLDE2MC4xMTUzODUgTDExMS40NTYyNzQsMTYwLjYzMjA3NSBDMTExLjcyNDMzNSwxNjAuMzcwODI3IDExMi4wNTUxMzMsMTYwLjIzMTQ5NSAxMTIuNDI1ODU2LDE2MC4yMzE0OTUgQzExMi44MTkzOTIsMTYwLjIzMTQ5NSAxMTMuMTMzMDgsMTYwLjM4MjQzOCAxMTMuMTMzMDgsMTYwLjY5MDEzMSBDMTEzLjEzMzA4LDE2MC45NzQ2MDEgMTEyLjg0NzkwOSwxNjEuMTAyMzIyIDExMi40MjU4NTYsMTYxLjEwMjMyMiBDMTEyLjI4MzI3LDE2MS4xMDIzMjIgMTEyLjAyMDkxMywxNjEuMTAyMzIyIDExMS45NTI0NzEsMTYxLjA5NjUxNyBMMTExLjk1MjQ3MSwxNjEuODM5NjIzIEMxMTIuMDA5NTA2LDE2MS44MzM4MTcgMTEyLjI2NjE2LDE2MS44MjgwMTIgMTEyLjQyNTg1NiwxNjEuODI4MDEyIEMxMTIuOTU2Mjc0LDE2MS44MjgwMTIgMTEzLjE5MDExNCwxNjEuOTY3MzQ0IDExMy4xOTAxMTQsMTYyLjI3NTAzNiBDMTEzLjE5MDExNCwxNjIuNTY1MzEyIDExMi45MzM0NiwxNjIuNzY4NTA1IDExMi40NzE0ODMsMTYyLjc2ODUwNSBDMTEyLjEwMDc2LDE2Mi43Njg1MDUgMTExLjY4NDQxMSwxNjIuNjA1OTUxIDExMS40Mjc3NTcsMTYyLjMyNzI4NiBMMTExLDE2Mi44Nzg4MSBDMTExLjI3OTQ2OCwxNjMuMjI3MTQxIDExMS44MDQxODMsMTYzLjUgMTEyLjUsMTYzLjUgWiBNMTEwLDE1Mi41IEMxMTAsMTUyLjIyMzg1OCAxMTAuMjE0MDM1LDE1MiAxMTAuNTA0Njg0LDE1MiBMMTExLjQ5NTMxNiwxNTIgQzExMS43NzQwNDUsMTUyIDExMiwxNTIuMjMxOTM0IDExMiwxNTIuNSBMMTEyLDE1MyBMMTEwLDE1MyBMMTEwLDE1Mi41IFogTTExNiwxNTIuNSBDMTE2LDE1Mi4yMjM4NTggMTE2LjIxNDAzNSwxNTIgMTE2LjUwNDY4NCwxNTIgTDExNy40OTUzMTYsMTUyIEMxMTcuNzc0MDQ1LDE1MiAxMTgsMTUyLjIzMTkzNCAxMTgsMTUyLjUgTDExOCwxNTMgTDExNiwxNTMgTDExNiwxNTIuNSBaIiBmaWxsLXJ1bGU9ImV2ZW5vZGQiIGZpbGw9IiM5ZTllOWUiLz4gPC9nPiYjeGE7JiN4YTs8L3N2Zz4=;" parent="1" vertex="1">
          <mxGeometry x="514.6200000000001" y="373.39" width="16.25" height="16.25" as="geometry" />
        </mxCell>
        <mxCell id="tv07I0bE4dOHQFzYiPR3-69" value="start_date" style="text;html=1;strokeColor=none;fillColor=none;align=left;verticalAlign=middle;whiteSpace=wrap;rounded=0;" parent="1" vertex="1">
          <mxGeometry x="536" y="369.39" width="56.5" height="24" as="geometry" />
        </mxCell>
        <mxCell id="tv07I0bE4dOHQFzYiPR3-70" value="" style="shape=image;verticalLabelPosition=bottom;labelBackgroundColor=default;verticalAlign=top;aspect=fixed;imageAspect=0;image=data:image/svg+xml,PHN2ZyB4bWxucz0iaHR0cDovL3d3dy53My5vcmcvMjAwMC9zdmciIGZpbGw9IiMwMDAwMDAiIHZpZXdCb3g9Ii0wLjUgMCAxNSAxNSIgaGVpZ2h0PSI4MDBweCIgd2lkdGg9IjgwMHB4Ij4mI3hhOyYjeGE7PGcgc3Ryb2tlLXdpZHRoPSIwIiBpZD0iU1ZHUmVwb19iZ0NhcnJpZXIiLz4mI3hhOyYjeGE7PGcgc3Ryb2tlLWxpbmVqb2luPSJyb3VuZCIgc3Ryb2tlLWxpbmVjYXA9InJvdW5kIiBpZD0iU1ZHUmVwb190cmFjZXJDYXJyaWVyIi8+JiN4YTsmI3hhOzxnIGlkPSJTVkdSZXBvX2ljb25DYXJyaWVyIj4gPHBhdGggdHJhbnNmb3JtPSJ0cmFuc2xhdGUoLTEwNyAtMTUyKSIgZD0iTTEwNywxNTQuMDA2ODQ1IEMxMDcsMTUzLjQ1MDc4IDEwNy40NDk5NDksMTUzIDEwOC4wMDY4NDUsMTUzIEwxMTkuOTkzMTU1LDE1MyBDMTIwLjU0OTIyLDE1MyAxMjEsMTUzLjQ0OTk0OSAxMjEsMTU0LjAwNjg0NSBMMTIxLDE2NS45OTMxNTUgQzEyMSwxNjYuNTQ5MjIgMTIwLjU1MDA1MSwxNjcgMTE5Ljk5MzE1NSwxNjcgTDEwOC4wMDY4NDUsMTY3IEMxMDcuNDUwNzgsMTY3IDEwNywxNjYuNTUwMDUxIDEwNywxNjUuOTkzMTU1IEwxMDcsMTU0LjAwNjg0NSBaIE0xMDgsMTU3IEwxMjAsMTU3IEwxMjAsMTY2IEwxMDgsMTY2IEwxMDgsMTU3IFogTTExNi41LDE2My41IEwxMTYuNSwxNTkuNSBMMTE1Ljc1NzQ4NSwxNTkuNSBMMTE0LjUsMTYwLjc2NTM2NyBMMTE0Ljk4NTAzLDE2MS4yNzUxMTIgTDExNS42NDk3MDEsMTYwLjU5NzQ1MSBMMTE1LjY0OTcwMSwxNjMuNSBMMTE2LjUsMTYzLjUgWiBNMTEyLjUsMTYzLjUgQzExMy40MTI1NDgsMTYzLjUgMTE0LDE2My4wMjk3NTMgMTE0LDE2Mi4zNjIxMTkgQzExNCwxNjEuNzgxNTY3IDExMy40OTgwOTksMTYxLjQ3Mzg3NSAxMTMuMTEwMjY2LDE2MS40MzMyMzcgQzExMy41MzIzMTksMTYxLjM1Nzc2NSAxMTMuOTQyOTY2LDE2MS4wMzg0NjIgMTEzLjk0Mjk2NiwxNjAuNTUwNzk4IEMxMTMuOTQyOTY2LDE1OS45MDYzODYgMTEzLjM5NTQzNywxNTkuNSAxMTIuNTA1NzAzLDE1OS41IEMxMTEuODM4NDAzLDE1OS41IDExMS4zNTkzMTYsMTU5Ljc2MTI0OCAxMTEuMDUxMzMxLDE2MC4xMTUzODUgTDExMS40NTYyNzQsMTYwLjYzMjA3NSBDMTExLjcyNDMzNSwxNjAuMzcwODI3IDExMi4wNTUxMzMsMTYwLjIzMTQ5NSAxMTIuNDI1ODU2LDE2MC4yMzE0OTUgQzExMi44MTkzOTIsMTYwLjIzMTQ5NSAxMTMuMTMzMDgsMTYwLjM4MjQzOCAxMTMuMTMzMDgsMTYwLjY5MDEzMSBDMTEzLjEzMzA4LDE2MC45NzQ2MDEgMTEyLjg0NzkwOSwxNjEuMTAyMzIyIDExMi40MjU4NTYsMTYxLjEwMjMyMiBDMTEyLjI4MzI3LDE2MS4xMDIzMjIgMTEyLjAyMDkxMywxNjEuMTAyMzIyIDExMS45NTI0NzEsMTYxLjA5NjUxNyBMMTExLjk1MjQ3MSwxNjEuODM5NjIzIEMxMTIuMDA5NTA2LDE2MS44MzM4MTcgMTEyLjI2NjE2LDE2MS44MjgwMTIgMTEyLjQyNTg1NiwxNjEuODI4MDEyIEMxMTIuOTU2Mjc0LDE2MS44MjgwMTIgMTEzLjE5MDExNCwxNjEuOTY3MzQ0IDExMy4xOTAxMTQsMTYyLjI3NTAzNiBDMTEzLjE5MDExNCwxNjIuNTY1MzEyIDExMi45MzM0NiwxNjIuNzY4NTA1IDExMi40NzE0ODMsMTYyLjc2ODUwNSBDMTEyLjEwMDc2LDE2Mi43Njg1MDUgMTExLjY4NDQxMSwxNjIuNjA1OTUxIDExMS40Mjc3NTcsMTYyLjMyNzI4NiBMMTExLDE2Mi44Nzg4MSBDMTExLjI3OTQ2OCwxNjMuMjI3MTQxIDExMS44MDQxODMsMTYzLjUgMTEyLjUsMTYzLjUgWiBNMTEwLDE1Mi41IEMxMTAsMTUyLjIyMzg1OCAxMTAuMjE0MDM1LDE1MiAxMTAuNTA0Njg0LDE1MiBMMTExLjQ5NTMxNiwxNTIgQzExMS43NzQwNDUsMTUyIDExMiwxNTIuMjMxOTM0IDExMiwxNTIuNSBMMTEyLDE1MyBMMTEwLDE1MyBMMTEwLDE1Mi41IFogTTExNiwxNTIuNSBDMTE2LDE1Mi4yMjM4NTggMTE2LjIxNDAzNSwxNTIgMTE2LjUwNDY4NCwxNTIgTDExNy40OTUzMTYsMTUyIEMxMTcuNzc0MDQ1LDE1MiAxMTgsMTUyLjIzMTkzNCAxMTgsMTUyLjUgTDExOCwxNTMgTDExNiwxNTMgTDExNiwxNTIuNSBaIiBmaWxsLXJ1bGU9ImV2ZW5vZGQiIGZpbGw9IiM5ZTllOWUiLz4gPC9nPiYjeGE7JiN4YTs8L3N2Zz4=;" parent="1" vertex="1">
          <mxGeometry x="514.6200000000001" y="395.53" width="16.25" height="16.25" as="geometry" />
        </mxCell>
        <mxCell id="tv07I0bE4dOHQFzYiPR3-71" value="end_date" style="text;html=1;strokeColor=none;fillColor=none;align=left;verticalAlign=middle;whiteSpace=wrap;rounded=0;" parent="1" vertex="1">
          <mxGeometry x="536" y="391.65999999999997" width="56.5" height="24" as="geometry" />
        </mxCell>
        <mxCell id="tv07I0bE4dOHQFzYiPR3-72" value="" style="shape=image;verticalLabelPosition=bottom;labelBackgroundColor=default;verticalAlign=top;aspect=fixed;imageAspect=0;image=data:image/svg+xml,PHN2ZyB4bWxucz0iaHR0cDovL3d3dy53My5vcmcvMjAwMC9zdmciIHhtbDpzcGFjZT0icHJlc2VydmUiIHZlcnNpb249IjEuMCIgaGVpZ2h0PSI2NCIgd2lkdGg9IjY0IiB2aWV3Qm94PSIwIDAgNjQgNjQiPiYjeGE7IDxnIGNsYXNzPSJsYXllciI+JiN4YTsgIDx0aXRsZT5MYXllciAxPC90aXRsZT4mI3hhOyAgPGcgaWQ9InN2Z18xIj4mI3hhOyAgIDxnIGlkPSJzdmdfNSI+JiN4YTsgICAgPHBhdGggaWQ9InN2Z182IiBmaWxsPSIjMzk0MjQwIiBkPSJtNTkuMzksOS44NGwtNy44MSwwbDAuMDgsMC45N2MwLC0wLjU0IDEuNzgsLTAuOTMgMS4yNCwtMC45M2wtMTAuMTIsLTAuMDRjLTAuNTQsMCAxLjA3LDAuNDQgMS4wNywwLjk4bC0wLjA4LC0wLjk3bC0yMy40NCwwbC0wLjIsMC45OGMwLC0wLjU0IDEuODYsLTAuOTggMS4zMiwtMC45OGwtMTAuMDQsMGMtMC41NCwwIDAuOSwwLjQ0IDAuOSwwLjk4bDAuMiwtMC45OGwtNy44MSwwYy0yLjE2LDAgLTMuOTEsMS43NSAtMy45MSwzLjkxbDAsMzkuMDZjMCwyLjE2IDEuNzUsMy45MSAzLjkxLDMuOTFsNTQuNjksMGMyLjE2LDAgMy45MSwtMS43NSAzLjkxLC0zLjkxbDAsLTM5LjA2YzAsLTIuMTYgLTEuNzUsLTMuOTEgLTMuOTEsLTMuOTF6bS0xMy41OSwxLjk1bDMuOTEsMGwwLjE3LC0xLjkzbC0zLjkxLDBsLTAuMTcsMS45M3ptLTMwLjIzLC0xLjIybDEuNTYsLTAuMmwxLjA3LC0wLjM5bC0zLjkxLDBsMS4yNywwLjU5em00NS43Nyw0Mi4yNGMwLDEuMDcgLTAuODgsMS45NSAtMS45NSwxLjk1bC01NC42OSwwYy0xLjA3LDAgLTEuOTUsLTAuODggLTEuOTUsLTEuOTVsMCwtMzkuMDZjMCwtMS4wNyAwLjg4LC0xLjk1IDEuOTUsLTEuOTVsNy44MSwwbC0wLjE3LC0wLjgzYzAsMC41NCAtMS4wNywwLjgxIC0wLjUzLDAuODFsOC42NiwwYzAuNTQsMCAtMC4zMiwtMC4yNyAtMC4zMiwtMC44MWwwLjE3LDAuODNsMjMuNDQsMGwwLjI1LC0wLjk2YzAsMC41NCAtMS44NiwwLjkzIC0xLjMyLDAuOTNsOS43NSwwYzAuNTQsMCAtMC42MSwtMC40IC0wLjYxLC0wLjkzbC0wLjI1LDAuOTZsNy44MSwwYzEuMDcsMCAxLjk1LDAuODggMS45NSwxLjk1bDAsMzkuMDZ6Ii8+JiN4YTsgICAgPHBhdGggaWQ9InN2Z183IiBmaWxsPSIjMzk0MjQwIiBkPSJtNDAuOCwzNy4xOGw5Ljc3LDBjMC41NCwwIDAuOTgsLTAuNDQgMC45OCwtMC45OHMtMC40NCwtMC45OCAtMC45OCwtMC45OGwtOS43NywwYy0wLjU0LDAgLTAuOTgsMC40NCAtMC45OCwwLjk4czAuNDQsMC45OCAwLjk4LDAuOTh6Ii8+JiN4YTsgICAgPHBhdGggaWQ9InN2Z184IiBmaWxsPSIjMzk0MjQwIiBkPSJtNTQuNDcsMjkuMzdsLTEzLjY3LDBjLTAuNTQsMCAtMC45OCwwLjQ0IC0wLjk4LDAuOThzMC40NCwwLjk4IDAuOTgsMC45OGwxMy42NywwYzAuNTQsMCAwLjk4LC0wLjQ0IDAuOTgsLTAuOThzLTAuNDQsLTAuOTggLTAuOTgsLTAuOTh6Ii8+JiN4YTsgICAgPHBhdGggaWQ9InN2Z185IiBmaWxsPSIjMzk0MjQwIiBkPSJtNTQuNDcsNDEuMDlsLTEzLjY3LDBjLTAuNTQsMCAtMC45OCwwLjQ0IC0wLjk4LDAuOThzMC40NCwwLjk4IDAuOTgsMC45OGwxMy42NywwYzAuNTQsMCAwLjk4LC0wLjQ0IDAuOTgsLTAuOThzLTAuNDQsLTAuOTggLTAuOTgsLTAuOTh6Ii8+JiN4YTsgICAgPHBhdGggaWQ9InN2Z18xMCIgZmlsbD0iIzM5NDI0MCIgZD0ibTQwLjgsMjUuNDdsNS44NiwwYzAuNTQsMCAwLjk4LC0wLjQ0IDAuOTgsLTAuOThzLTAuNDQsLTAuOTggLTAuOTgsLTAuOThsLTUuODYsMGMtMC41NCwwIC0wLjk4LDAuNDQgLTAuOTgsMC45OHMwLjQ0LDAuOTggMC45OCwwLjk4eiIvPiYjeGE7ICAgIDxwYXRoIGlkPSJzdmdfMTEiIGZpbGw9IiMzOTQyNDAiIGQ9Im0yMi4yNCwxOS42MWMtNy41NSwwIC0xMy42Nyw2LjEyIC0xMy42NywxMy42N3M2LjEyLDEzLjY3IDEzLjY3LDEzLjY3czEzLjY3LC02LjEyIDEzLjY3LC0xMy42N3MtNi4xMiwtMTMuNjcgLTEzLjY3LC0xMy42N3ptMCwyNS4zOWMtMi43NiwwIC01LjMsLTAuOTcgLTcuMywtMi41N2MwLjkyLC0xLjI2IDMuMDUsLTMuMjkgNy4zLC0zLjI5YzQuMjYsMCA2LjQsMi4wMyA3LjMsMy4yOWMtMiwxLjYgLTQuNTQsMi41NyAtNy4zLDIuNTd6bTguNzMsLTMuOTJjLTEuMjUsLTEuNjIgLTMuODYsLTMuOSAtOC43MywtMy45cy03LjQ4LDIuMjggLTguNzMsMy45Yy0xLjg2LC0yLjA3IC0yLjk5LC00LjggLTIuOTksLTcuOGMwLC02LjQ3IDUuMjQsLTExLjcyIDExLjcyLC0xMS43MnMxMS43Miw1LjI0IDExLjcyLDExLjcyYzAsMyAtMS4xMyw1LjczIC0yLjk5LDcuOHoiLz4mI3hhOyAgICA8cGF0aCBpZD0ic3ZnXzEyIiBmaWxsPSIjMzk0MjQwIiBkPSJtMjcuMTMsMzIuM2wwLC0xLjk1YzAsLTIuNyAtMi4xOSwtNC44OCAtNC44OCwtNC44OHMtNC44OCwyLjE5IC00Ljg4LDQuODhsMCwxLjk1YzAsMi43IDIuMTksNC44OCA0Ljg4LDQuODhzNC44OCwtMi4xOSA0Ljg4LC00Ljg4em0tMS45NSwwYzAsMS42MiAtMS4zMSwyLjkzIC0yLjkzLDIuOTNzLTIuOTMsLTEuMzEgLTIuOTMsLTIuOTNsMCwtMS45NWMwLC0xLjYyIDEuMzEsLTIuOTMgMi45MywtMi45M3MyLjkzLDEuMzEgMi45MywyLjkzbDAsMS45NXoiLz4mI3hhOyAgIDwvZz4mI3hhOyAgPC9nPiYjeGE7IDwvZz4mI3hhOzwvc3ZnPg==;" parent="1" vertex="1">
          <mxGeometry x="392.6399999999999" y="516.51" width="22.5" height="22.5" as="geometry" />
        </mxCell>
        <mxCell id="tv07I0bE4dOHQFzYiPR3-73" value="car_id" style="text;html=1;strokeColor=none;fillColor=none;align=left;verticalAlign=middle;whiteSpace=wrap;rounded=0;" parent="1" vertex="1">
          <mxGeometry x="417.5" y="537.39" width="56.5" height="24" as="geometry" />
        </mxCell>
        <mxCell id="tv07I0bE4dOHQFzYiPR3-75" value="" style="shape=image;verticalLabelPosition=bottom;labelBackgroundColor=default;verticalAlign=top;aspect=fixed;imageAspect=0;image=data:image/svg+xml,PHN2ZyB4bWxucz0iaHR0cDovL3d3dy53My5vcmcvMjAwMC9zdmciIGZpbGw9IiMwMDAwMDAiIHZpZXdCb3g9Ii0wLjUgMCAxNSAxNSIgaGVpZ2h0PSI4MDBweCIgd2lkdGg9IjgwMHB4Ij4mI3hhOyYjeGE7PGcgc3Ryb2tlLXdpZHRoPSIwIiBpZD0iU1ZHUmVwb19iZ0NhcnJpZXIiLz4mI3hhOyYjeGE7PGcgc3Ryb2tlLWxpbmVqb2luPSJyb3VuZCIgc3Ryb2tlLWxpbmVjYXA9InJvdW5kIiBpZD0iU1ZHUmVwb190cmFjZXJDYXJyaWVyIi8+JiN4YTsmI3hhOzxnIGlkPSJTVkdSZXBvX2ljb25DYXJyaWVyIj4gPHBhdGggdHJhbnNmb3JtPSJ0cmFuc2xhdGUoLTEwNyAtMTUyKSIgZD0iTTEwNywxNTQuMDA2ODQ1IEMxMDcsMTUzLjQ1MDc4IDEwNy40NDk5NDksMTUzIDEwOC4wMDY4NDUsMTUzIEwxMTkuOTkzMTU1LDE1MyBDMTIwLjU0OTIyLDE1MyAxMjEsMTUzLjQ0OTk0OSAxMjEsMTU0LjAwNjg0NSBMMTIxLDE2NS45OTMxNTUgQzEyMSwxNjYuNTQ5MjIgMTIwLjU1MDA1MSwxNjcgMTE5Ljk5MzE1NSwxNjcgTDEwOC4wMDY4NDUsMTY3IEMxMDcuNDUwNzgsMTY3IDEwNywxNjYuNTUwMDUxIDEwNywxNjUuOTkzMTU1IEwxMDcsMTU0LjAwNjg0NSBaIE0xMDgsMTU3IEwxMjAsMTU3IEwxMjAsMTY2IEwxMDgsMTY2IEwxMDgsMTU3IFogTTExNi41LDE2My41IEwxMTYuNSwxNTkuNSBMMTE1Ljc1NzQ4NSwxNTkuNSBMMTE0LjUsMTYwLjc2NTM2NyBMMTE0Ljk4NTAzLDE2MS4yNzUxMTIgTDExNS42NDk3MDEsMTYwLjU5NzQ1MSBMMTE1LjY0OTcwMSwxNjMuNSBMMTE2LjUsMTYzLjUgWiBNMTEyLjUsMTYzLjUgQzExMy40MTI1NDgsMTYzLjUgMTE0LDE2My4wMjk3NTMgMTE0LDE2Mi4zNjIxMTkgQzExNCwxNjEuNzgxNTY3IDExMy40OTgwOTksMTYxLjQ3Mzg3NSAxMTMuMTEwMjY2LDE2MS40MzMyMzcgQzExMy41MzIzMTksMTYxLjM1Nzc2NSAxMTMuOTQyOTY2LDE2MS4wMzg0NjIgMTEzLjk0Mjk2NiwxNjAuNTUwNzk4IEMxMTMuOTQyOTY2LDE1OS45MDYzODYgMTEzLjM5NTQzNywxNTkuNSAxMTIuNTA1NzAzLDE1OS41IEMxMTEuODM4NDAzLDE1OS41IDExMS4zNTkzMTYsMTU5Ljc2MTI0OCAxMTEuMDUxMzMxLDE2MC4xMTUzODUgTDExMS40NTYyNzQsMTYwLjYzMjA3NSBDMTExLjcyNDMzNSwxNjAuMzcwODI3IDExMi4wNTUxMzMsMTYwLjIzMTQ5NSAxMTIuNDI1ODU2LDE2MC4yMzE0OTUgQzExMi44MTkzOTIsMTYwLjIzMTQ5NSAxMTMuMTMzMDgsMTYwLjM4MjQzOCAxMTMuMTMzMDgsMTYwLjY5MDEzMSBDMTEzLjEzMzA4LDE2MC45NzQ2MDEgMTEyLjg0NzkwOSwxNjEuMTAyMzIyIDExMi40MjU4NTYsMTYxLjEwMjMyMiBDMTEyLjI4MzI3LDE2MS4xMDIzMjIgMTEyLjAyMDkxMywxNjEuMTAyMzIyIDExMS45NTI0NzEsMTYxLjA5NjUxNyBMMTExLjk1MjQ3MSwxNjEuODM5NjIzIEMxMTIuMDA5NTA2LDE2MS44MzM4MTcgMTEyLjI2NjE2LDE2MS44MjgwMTIgMTEyLjQyNTg1NiwxNjEuODI4MDEyIEMxMTIuOTU2Mjc0LDE2MS44MjgwMTIgMTEzLjE5MDExNCwxNjEuOTY3MzQ0IDExMy4xOTAxMTQsMTYyLjI3NTAzNiBDMTEzLjE5MDExNCwxNjIuNTY1MzEyIDExMi45MzM0NiwxNjIuNzY4NTA1IDExMi40NzE0ODMsMTYyLjc2ODUwNSBDMTEyLjEwMDc2LDE2Mi43Njg1MDUgMTExLjY4NDQxMSwxNjIuNjA1OTUxIDExMS40Mjc3NTcsMTYyLjMyNzI4NiBMMTExLDE2Mi44Nzg4MSBDMTExLjI3OTQ2OCwxNjMuMjI3MTQxIDExMS44MDQxODMsMTYzLjUgMTEyLjUsMTYzLjUgWiBNMTEwLDE1Mi41IEMxMTAsMTUyLjIyMzg1OCAxMTAuMjE0MDM1LDE1MiAxMTAuNTA0Njg0LDE1MiBMMTExLjQ5NTMxNiwxNTIgQzExMS43NzQwNDUsMTUyIDExMiwxNTIuMjMxOTM0IDExMiwxNTIuNSBMMTEyLDE1MyBMMTEwLDE1MyBMMTEwLDE1Mi41IFogTTExNiwxNTIuNSBDMTE2LDE1Mi4yMjM4NTggMTE2LjIxNDAzNSwxNTIgMTE2LjUwNDY4NCwxNTIgTDExNy40OTUzMTYsMTUyIEMxMTcuNzc0MDQ1LDE1MiAxMTgsMTUyLjIzMTkzNCAxMTgsMTUyLjUgTDExOCwxNTMgTDExNiwxNTMgTDExNiwxNTIuNSBaIiBmaWxsLXJ1bGU9ImV2ZW5vZGQiIGZpbGw9IiM5ZTllOWUiLz4gPC9nPiYjeGE7JiN4YTs8L3N2Zz4=;" parent="1" vertex="1">
          <mxGeometry x="395.7649999999999" y="563.39" width="16.25" height="16.25" as="geometry" />
        </mxCell>
        <mxCell id="tv07I0bE4dOHQFzYiPR3-76" value="start_date" style="text;html=1;strokeColor=none;fillColor=none;align=left;verticalAlign=middle;whiteSpace=wrap;rounded=0;" parent="1" vertex="1">
          <mxGeometry x="417.5" y="559.39" width="56.5" height="24" as="geometry" />
        </mxCell>
        <mxCell id="tv07I0bE4dOHQFzYiPR3-77" value="" style="shape=image;verticalLabelPosition=bottom;labelBackgroundColor=default;verticalAlign=top;aspect=fixed;imageAspect=0;image=data:image/svg+xml,PHN2ZyB4bWxucz0iaHR0cDovL3d3dy53My5vcmcvMjAwMC9zdmciIGZpbGw9IiMwMDAwMDAiIHZpZXdCb3g9Ii0wLjUgMCAxNSAxNSIgaGVpZ2h0PSI4MDBweCIgd2lkdGg9IjgwMHB4Ij4mI3hhOyYjeGE7PGcgc3Ryb2tlLXdpZHRoPSIwIiBpZD0iU1ZHUmVwb19iZ0NhcnJpZXIiLz4mI3hhOyYjeGE7PGcgc3Ryb2tlLWxpbmVqb2luPSJyb3VuZCIgc3Ryb2tlLWxpbmVjYXA9InJvdW5kIiBpZD0iU1ZHUmVwb190cmFjZXJDYXJyaWVyIi8+JiN4YTsmI3hhOzxnIGlkPSJTVkdSZXBvX2ljb25DYXJyaWVyIj4gPHBhdGggdHJhbnNmb3JtPSJ0cmFuc2xhdGUoLTEwNyAtMTUyKSIgZD0iTTEwNywxNTQuMDA2ODQ1IEMxMDcsMTUzLjQ1MDc4IDEwNy40NDk5NDksMTUzIDEwOC4wMDY4NDUsMTUzIEwxMTkuOTkzMTU1LDE1MyBDMTIwLjU0OTIyLDE1MyAxMjEsMTUzLjQ0OTk0OSAxMjEsMTU0LjAwNjg0NSBMMTIxLDE2NS45OTMxNTUgQzEyMSwxNjYuNTQ5MjIgMTIwLjU1MDA1MSwxNjcgMTE5Ljk5MzE1NSwxNjcgTDEwOC4wMDY4NDUsMTY3IEMxMDcuNDUwNzgsMTY3IDEwNywxNjYuNTUwMDUxIDEwNywxNjUuOTkzMTU1IEwxMDcsMTU0LjAwNjg0NSBaIE0xMDgsMTU3IEwxMjAsMTU3IEwxMjAsMTY2IEwxMDgsMTY2IEwxMDgsMTU3IFogTTExNi41LDE2My41IEwxMTYuNSwxNTkuNSBMMTE1Ljc1NzQ4NSwxNTkuNSBMMTE0LjUsMTYwLjc2NTM2NyBMMTE0Ljk4NTAzLDE2MS4yNzUxMTIgTDExNS42NDk3MDEsMTYwLjU5NzQ1MSBMMTE1LjY0OTcwMSwxNjMuNSBMMTE2LjUsMTYzLjUgWiBNMTEyLjUsMTYzLjUgQzExMy40MTI1NDgsMTYzLjUgMTE0LDE2My4wMjk3NTMgMTE0LDE2Mi4zNjIxMTkgQzExNCwxNjEuNzgxNTY3IDExMy40OTgwOTksMTYxLjQ3Mzg3NSAxMTMuMTEwMjY2LDE2MS40MzMyMzcgQzExMy41MzIzMTksMTYxLjM1Nzc2NSAxMTMuOTQyOTY2LDE2MS4wMzg0NjIgMTEzLjk0Mjk2NiwxNjAuNTUwNzk4IEMxMTMuOTQyOTY2LDE1OS45MDYzODYgMTEzLjM5NTQzNywxNTkuNSAxMTIuNTA1NzAzLDE1OS41IEMxMTEuODM4NDAzLDE1OS41IDExMS4zNTkzMTYsMTU5Ljc2MTI0OCAxMTEuMDUxMzMxLDE2MC4xMTUzODUgTDExMS40NTYyNzQsMTYwLjYzMjA3NSBDMTExLjcyNDMzNSwxNjAuMzcwODI3IDExMi4wNTUxMzMsMTYwLjIzMTQ5NSAxMTIuNDI1ODU2LDE2MC4yMzE0OTUgQzExMi44MTkzOTIsMTYwLjIzMTQ5NSAxMTMuMTMzMDgsMTYwLjM4MjQzOCAxMTMuMTMzMDgsMTYwLjY5MDEzMSBDMTEzLjEzMzA4LDE2MC45NzQ2MDEgMTEyLjg0NzkwOSwxNjEuMTAyMzIyIDExMi40MjU4NTYsMTYxLjEwMjMyMiBDMTEyLjI4MzI3LDE2MS4xMDIzMjIgMTEyLjAyMDkxMywxNjEuMTAyMzIyIDExMS45NTI0NzEsMTYxLjA5NjUxNyBMMTExLjk1MjQ3MSwxNjEuODM5NjIzIEMxMTIuMDA5NTA2LDE2MS44MzM4MTcgMTEyLjI2NjE2LDE2MS44MjgwMTIgMTEyLjQyNTg1NiwxNjEuODI4MDEyIEMxMTIuOTU2Mjc0LDE2MS44MjgwMTIgMTEzLjE5MDExNCwxNjEuOTY3MzQ0IDExMy4xOTAxMTQsMTYyLjI3NTAzNiBDMTEzLjE5MDExNCwxNjIuNTY1MzEyIDExMi45MzM0NiwxNjIuNzY4NTA1IDExMi40NzE0ODMsMTYyLjc2ODUwNSBDMTEyLjEwMDc2LDE2Mi43Njg1MDUgMTExLjY4NDQxMSwxNjIuNjA1OTUxIDExMS40Mjc3NTcsMTYyLjMyNzI4NiBMMTExLDE2Mi44Nzg4MSBDMTExLjI3OTQ2OCwxNjMuMjI3MTQxIDExMS44MDQxODMsMTYzLjUgMTEyLjUsMTYzLjUgWiBNMTEwLDE1Mi41IEMxMTAsMTUyLjIyMzg1OCAxMTAuMjE0MDM1LDE1MiAxMTAuNTA0Njg0LDE1MiBMMTExLjQ5NTMxNiwxNTIgQzExMS43NzQwNDUsMTUyIDExMiwxNTIuMjMxOTM0IDExMiwxNTIuNSBMMTEyLDE1MyBMMTEwLDE1MyBMMTEwLDE1Mi41IFogTTExNiwxNTIuNSBDMTE2LDE1Mi4yMjM4NTggMTE2LjIxNDAzNSwxNTIgMTE2LjUwNDY4NCwxNTIgTDExNy40OTUzMTYsMTUyIEMxMTcuNzc0MDQ1LDE1MiAxMTgsMTUyLjIzMTkzNCAxMTgsMTUyLjUgTDExOCwxNTMgTDExNiwxNTMgTDExNiwxNTIuNSBaIiBmaWxsLXJ1bGU9ImV2ZW5vZGQiIGZpbGw9IiM5ZTllOWUiLz4gPC9nPiYjeGE7JiN4YTs8L3N2Zz4=;" parent="1" vertex="1">
          <mxGeometry x="395.7649999999999" y="585.27" width="16.25" height="16.25" as="geometry" />
        </mxCell>
        <mxCell id="tv07I0bE4dOHQFzYiPR3-78" value="end_date" style="text;html=1;strokeColor=none;fillColor=none;align=left;verticalAlign=middle;whiteSpace=wrap;rounded=0;" parent="1" vertex="1">
          <mxGeometry x="417.5" y="581.39" width="56.5" height="24" as="geometry" />
        </mxCell>
        <mxCell id="tv07I0bE4dOHQFzYiPR3-79" value="id" style="text;html=1;strokeColor=none;fillColor=none;align=left;verticalAlign=middle;whiteSpace=wrap;rounded=0;" parent="1" vertex="1">
          <mxGeometry x="417.5" y="515.76" width="28.5" height="24" as="geometry" />
        </mxCell>
        <mxCell id="tv07I0bE4dOHQFzYiPR3-80" value="" style="shape=image;verticalLabelPosition=bottom;labelBackgroundColor=default;verticalAlign=top;aspect=fixed;imageAspect=0;image=data:image/svg+xml,PHN2ZyB4bWxucz0iaHR0cDovL3d3dy53My5vcmcvMjAwMC9zdmciIHhtbDpzcGFjZT0icHJlc2VydmUiIHZlcnNpb249IjEuMCIgaGVpZ2h0PSI2NCIgd2lkdGg9IjY0IiB2aWV3Qm94PSIwIDAgNjQgNjQiPiYjeGE7IDxnIGNsYXNzPSJsYXllciI+JiN4YTsgIDx0aXRsZT5MYXllciAxPC90aXRsZT4mI3hhOyAgPGcgaWQ9InN2Z18xIj4mI3hhOyAgIDxnIGlkPSJzdmdfNSI+JiN4YTsgICAgPHBhdGggaWQ9InN2Z182IiBmaWxsPSIjMzk0MjQwIiBkPSJtNTkuMzksOS44NGwtNy44MSwwbDAuMDgsMC45N2MwLC0wLjU0IDEuNzgsLTAuOTMgMS4yNCwtMC45M2wtMTAuMTIsLTAuMDRjLTAuNTQsMCAxLjA3LDAuNDQgMS4wNywwLjk4bC0wLjA4LC0wLjk3bC0yMy40NCwwbC0wLjIsMC45OGMwLC0wLjU0IDEuODYsLTAuOTggMS4zMiwtMC45OGwtMTAuMDQsMGMtMC41NCwwIDAuOSwwLjQ0IDAuOSwwLjk4bDAuMiwtMC45OGwtNy44MSwwYy0yLjE2LDAgLTMuOTEsMS43NSAtMy45MSwzLjkxbDAsMzkuMDZjMCwyLjE2IDEuNzUsMy45MSAzLjkxLDMuOTFsNTQuNjksMGMyLjE2LDAgMy45MSwtMS43NSAzLjkxLC0zLjkxbDAsLTM5LjA2YzAsLTIuMTYgLTEuNzUsLTMuOTEgLTMuOTEsLTMuOTF6bS0xMy41OSwxLjk1bDMuOTEsMGwwLjE3LC0xLjkzbC0zLjkxLDBsLTAuMTcsMS45M3ptLTMwLjIzLC0xLjIybDEuNTYsLTAuMmwxLjA3LC0wLjM5bC0zLjkxLDBsMS4yNywwLjU5em00NS43Nyw0Mi4yNGMwLDEuMDcgLTAuODgsMS45NSAtMS45NSwxLjk1bC01NC42OSwwYy0xLjA3LDAgLTEuOTUsLTAuODggLTEuOTUsLTEuOTVsMCwtMzkuMDZjMCwtMS4wNyAwLjg4LC0xLjk1IDEuOTUsLTEuOTVsNy44MSwwbC0wLjE3LC0wLjgzYzAsMC41NCAtMS4wNywwLjgxIC0wLjUzLDAuODFsOC42NiwwYzAuNTQsMCAtMC4zMiwtMC4yNyAtMC4zMiwtMC44MWwwLjE3LDAuODNsMjMuNDQsMGwwLjI1LC0wLjk2YzAsMC41NCAtMS44NiwwLjkzIC0xLjMyLDAuOTNsOS43NSwwYzAuNTQsMCAtMC42MSwtMC40IC0wLjYxLC0wLjkzbC0wLjI1LDAuOTZsNy44MSwwYzEuMDcsMCAxLjk1LDAuODggMS45NSwxLjk1bDAsMzkuMDZ6Ii8+JiN4YTsgICAgPHBhdGggaWQ9InN2Z183IiBmaWxsPSIjMzk0MjQwIiBkPSJtNDAuOCwzNy4xOGw5Ljc3LDBjMC41NCwwIDAuOTgsLTAuNDQgMC45OCwtMC45OHMtMC40NCwtMC45OCAtMC45OCwtMC45OGwtOS43NywwYy0wLjU0LDAgLTAuOTgsMC40NCAtMC45OCwwLjk4czAuNDQsMC45OCAwLjk4LDAuOTh6Ii8+JiN4YTsgICAgPHBhdGggaWQ9InN2Z184IiBmaWxsPSIjMzk0MjQwIiBkPSJtNTQuNDcsMjkuMzdsLTEzLjY3LDBjLTAuNTQsMCAtMC45OCwwLjQ0IC0wLjk4LDAuOThzMC40NCwwLjk4IDAuOTgsMC45OGwxMy42NywwYzAuNTQsMCAwLjk4LC0wLjQ0IDAuOTgsLTAuOThzLTAuNDQsLTAuOTggLTAuOTgsLTAuOTh6Ii8+JiN4YTsgICAgPHBhdGggaWQ9InN2Z185IiBmaWxsPSIjMzk0MjQwIiBkPSJtNTQuNDcsNDEuMDlsLTEzLjY3LDBjLTAuNTQsMCAtMC45OCwwLjQ0IC0wLjk4LDAuOThzMC40NCwwLjk4IDAuOTgsMC45OGwxMy42NywwYzAuNTQsMCAwLjk4LC0wLjQ0IDAuOTgsLTAuOThzLTAuNDQsLTAuOTggLTAuOTgsLTAuOTh6Ii8+JiN4YTsgICAgPHBhdGggaWQ9InN2Z18xMCIgZmlsbD0iIzM5NDI0MCIgZD0ibTQwLjgsMjUuNDdsNS44NiwwYzAuNTQsMCAwLjk4LC0wLjQ0IDAuOTgsLTAuOThzLTAuNDQsLTAuOTggLTAuOTgsLTAuOThsLTUuODYsMGMtMC41NCwwIC0wLjk4LDAuNDQgLTAuOTgsMC45OHMwLjQ0LDAuOTggMC45OCwwLjk4eiIvPiYjeGE7ICAgIDxwYXRoIGlkPSJzdmdfMTEiIGZpbGw9IiMzOTQyNDAiIGQ9Im0yMi4yNCwxOS42MWMtNy41NSwwIC0xMy42Nyw2LjEyIC0xMy42NywxMy42N3M2LjEyLDEzLjY3IDEzLjY3LDEzLjY3czEzLjY3LC02LjEyIDEzLjY3LC0xMy42N3MtNi4xMiwtMTMuNjcgLTEzLjY3LC0xMy42N3ptMCwyNS4zOWMtMi43NiwwIC01LjMsLTAuOTcgLTcuMywtMi41N2MwLjkyLC0xLjI2IDMuMDUsLTMuMjkgNy4zLC0zLjI5YzQuMjYsMCA2LjQsMi4wMyA3LjMsMy4yOWMtMiwxLjYgLTQuNTQsMi41NyAtNy4zLDIuNTd6bTguNzMsLTMuOTJjLTEuMjUsLTEuNjIgLTMuODYsLTMuOSAtOC43MywtMy45cy03LjQ4LDIuMjggLTguNzMsMy45Yy0xLjg2LC0yLjA3IC0yLjk5LC00LjggLTIuOTksLTcuOGMwLC02LjQ3IDUuMjQsLTExLjcyIDExLjcyLC0xMS43MnMxMS43Miw1LjI0IDExLjcyLDExLjcyYzAsMyAtMS4xMyw1LjczIC0yLjk5LDcuOHoiLz4mI3hhOyAgICA8cGF0aCBpZD0ic3ZnXzEyIiBmaWxsPSIjMzk0MjQwIiBkPSJtMjcuMTMsMzIuM2wwLC0xLjk1YzAsLTIuNyAtMi4xOSwtNC44OCAtNC44OCwtNC44OHMtNC44OCwyLjE5IC00Ljg4LDQuODhsMCwxLjk1YzAsMi43IDIuMTksNC44OCA0Ljg4LDQuODhzNC44OCwtMi4xOSA0Ljg4LC00Ljg4em0tMS45NSwwYzAsMS42MiAtMS4zMSwyLjkzIC0yLjkzLDIuOTNzLTIuOTMsLTEuMzEgLTIuOTMsLTIuOTNsMCwtMS45NWMwLC0xLjYyIDEuMzEsLTIuOTMgMi45MywtMi45M3MyLjkzLDEuMzEgMi45MywyLjkzbDAsMS45NXoiLz4mI3hhOyAgIDwvZz4mI3hhOyAgPC9nPiYjeGE7IDwvZz4mI3hhOzwvc3ZnPg==;" parent="1" vertex="1">
          <mxGeometry x="249.86" y="516.51" width="22.5" height="22.5" as="geometry" />
        </mxCell>
        <mxCell id="tv07I0bE4dOHQFzYiPR3-81" value="id" style="text;html=1;strokeColor=none;fillColor=none;align=left;verticalAlign=middle;whiteSpace=wrap;rounded=0;" parent="1" vertex="1">
          <mxGeometry x="273.36" y="515.76" width="28.5" height="24" as="geometry" />
        </mxCell>
        <mxCell id="tv07I0bE4dOHQFzYiPR3-84" value="" style="shape=image;verticalLabelPosition=bottom;labelBackgroundColor=default;verticalAlign=top;aspect=fixed;imageAspect=0;image=data:image/svg+xml,PHN2ZyB4bWxuczp4bGluaz0iaHR0cDovL3d3dy53My5vcmcvMTk5OS94bGluayIgeG1sbnM9Imh0dHA6Ly93d3cudzMub3JnLzIwMDAvc3ZnIiB4bWw6c3BhY2U9InByZXNlcnZlIiB2aWV3Qm94PSIwIDAgNjQgNjQiIGhlaWdodD0iODAwcHgiIHdpZHRoPSI4MDBweCIgaWQ9IkxheWVyXzEiIHZlcnNpb249IjEuMCI+JiN4YTs8Zz4mI3hhOwk8cGF0aCBkPSJNNTguOTgyLDMyLjA4OEM1OC45ODUsMzIuMDU3LDU5LDMyLjAzMSw1OSwzMmMwLTIuODY2LTAuNTg5LTI4LTIxLTI4SDI2QzEyLjY1NCw0LDUsMTQuMjA2LDUsMzImIzEwOyYjOTsmIzk7YzAsMC4wMzEsMC4wMTUsMC4wNTcsMC4wMTgsMC4wODhDMi4xNzYsMzIuNTU5LDAsMzUuMDI3LDAsMzh2MTBjMCwzLjMwOSwyLjY5MSw2LDYsNnY1YzAsMC41NTMsMC40NDcsMSwxLDFoOGMwLjU1MywwLDEtMC40NDcsMS0xJiMxMDsmIzk7JiM5O3YtNWgzMnY1YzAsMC41NTMsMC40NDcsMSwxLDFoOGMwLjU1MywwLDEtMC40NDcsMS0xdi01YzMuMzA5LDAsNi0yLjY5MSw2LTZWMzhDNjQsMzUuMDI3LDYxLjgyNCwzMi41NTksNTguOTgyLDMyLjA4OHogTTI2LDZoMTImIzEwOyYjOTsmIzk7YzE4LjQ2NywwLDE5LDIzLjMzOSwxOSwyNmgtMmMwLTIuNDU2LTAuNTA1LTI0LTE4LTI0SDI3QzE1LjM5Myw4LDksMTYuNTIzLDksMzJIN0M3LDkuMzc4LDE4LjkwNCw2LDI2LDZ6IE0yNCwyNCYjMTA7JiM5OyYjOTtjLTQuNDE4LDAtOCwzLjU4Mi04LDhoLTVjMC0xOC4xODQsOC43MDEtMjIsMTYtMjJoMTBjNi4zNCwwLDEwLjkwOSwzLjE2LDEzLjU4MSw5LjM5NEM1Mi44MjUsMjQuNjMyLDUzLDMwLjM2Nyw1MywzMkgzMiYjMTA7JiM5OyYjOTtDMzIsMjcuNTgyLDI4LjQxOCwyNCwyNCwyNHogTTMwLDMySDE4YzAtMy4zMTMsMi42ODctNiw2LTZTMzAsMjguNjg3LDMwLDMyeiBNMTQsNThIOHYtNGg2VjU4eiBNNTYsNThoLTZ2LTRoNlY1OHogTTYyLDQ4JiMxMDsmIzk7JiM5O2MwLDIuMjA2LTEuNzk0LDQtNCw0SDZjLTIuMjA2LDAtNC0xLjc5NC00LTRWMzhjMC0yLjIwNiwxLjc5NC00LDQtNGg1MmMyLjIwNiwwLDQsMS43OTQsNCw0VjQ4eiIgZmlsbD0iIzIzMUYyMCIvPiYjeGE7CTxwYXRoIGQ9Ik0xMSwzOWMtMi4yMDYsMC00LDEuNzk0LTQsNHMxLjc5NCw0LDQsNHM0LTEuNzk0LDQtNFMxMy4yMDYsMzksMTEsMzl6IE0xMSw0NWMtMS4xMDMsMC0yLTAuODk3LTItMiYjMTA7JiM5OyYjOTtzMC44OTctMiwyLTJzMiwwLjg5NywyLDJTMTIuMTAzLDQ1LDExLDQ1eiIgZmlsbD0iIzIzMUYyMCIvPiYjeGE7CTxwYXRoIGQ9Ik01MywzOWMtMi4yMDYsMC00LDEuNzk0LTQsNHMxLjc5NCw0LDQsNHM0LTEuNzk0LDQtNFM1NS4yMDYsMzksNTMsMzl6IE01Myw0NWMtMS4xMDMsMC0yLTAuODk3LTItMiYjMTA7JiM5OyYjOTtzMC44OTctMiwyLTJzMiwwLjg5NywyLDJTNTQuMTAzLDQ1LDUzLDQ1eiIgZmlsbD0iIzIzMUYyMCIvPiYjeGE7CTxwYXRoIGQ9Ik00Myw0MEgyMWMtMC41NTMsMC0xLDAuNDQ3LTEsMXMwLjQ0NywxLDEsMWgyMmMwLjU1MywwLDEtMC40NDcsMS0xUzQzLjU1Myw0MCw0Myw0MHoiIGZpbGw9IiMyMzFGMjAiLz4mI3hhOwk8cGF0aCBkPSJNNDMsNDRIMjFjLTAuNTUzLDAtMSwwLjQ0Ny0xLDFzMC40NDcsMSwxLDFoMjJjMC41NTMsMCwxLTAuNDQ3LDEtMVM0My41NTMsNDQsNDMsNDR6IiBmaWxsPSIjMjMxRjIwIi8+JiN4YTsJPHBhdGggZD0iTTQyLjcwNywxNS4yOTRjLTAuMzkxLTAuMzkxLTEuMDIzLTAuMzkxLTEuNDE0LDBzLTAuMzkxLDEuMDIzLDAsMS40MTRsMiwyJiMxMDsmIzk7JiM5O2MwLjE5NSwwLjE5NSwwLjQ1MSwwLjI5MywwLjcwNywwLjI5M3MwLjUxMi0wLjA5OCwwLjcwNy0wLjI5M2MwLjM5MS0wLjM5MSwwLjM5MS0xLjAyMywwLTEuNDE0TDQyLjcwNywxNS4yOTR6IiBmaWxsPSIjMjMxRjIwIi8+JiN4YTsJPHBhdGggZD0iTTM3LjcwNywxNS4yOTNjLTAuMzkxLTAuMzkxLTEuMDIzLTAuMzkxLTEuNDE0LDBzLTAuMzkxLDEuMDIzLDAsMS40MTRsNyw3QzQzLjQ4OCwyMy45MDIsNDMuNzQ0LDI0LDQ0LDI0JiMxMDsmIzk7JiM5O3MwLjUxMi0wLjA5OCwwLjcwNy0wLjI5M2MwLjM5MS0wLjM5MSwwLjM5MS0xLjAyMywwLTEuNDE0TDM3LjcwNywxNS4yOTN6IiBmaWxsPSIjMjMxRjIwIi8+JiN4YTs8L2c+JiN4YTs8L3N2Zz4=;rotation=0;" parent="1" vertex="1">
          <mxGeometry x="395.88" y="541.88" width="17.51" height="17.51" as="geometry" />
        </mxCell>
        <mxCell id="1lhrnWLmMYFC0F2s1kMj-1" value="Reservation" style="text;html=1;align=center;verticalAlign=middle;resizable=0;points=[];autosize=1;strokeColor=none;fillColor=none;fontStyle=5" parent="1" vertex="1">
          <mxGeometry x="718.5" y="88.38999999999999" width="87" height="26" as="geometry" />
        </mxCell>
        <mxCell id="1lhrnWLmMYFC0F2s1kMj-2" value="Reservation" style="text;html=1;align=center;verticalAlign=middle;resizable=0;points=[];autosize=1;strokeColor=none;fillColor=none;fontStyle=5" parent="1" vertex="1">
          <mxGeometry x="718.5" y="241.39" width="87" height="26" as="geometry" />
        </mxCell>
        <mxCell id="1lhrnWLmMYFC0F2s1kMj-3" value="Reservation" style="text;html=1;align=center;verticalAlign=middle;resizable=0;points=[];autosize=1;strokeColor=none;fillColor=none;fontStyle=5" parent="1" vertex="1">
          <mxGeometry x="718.5" y="433.39" width="87" height="26" as="geometry" />
        </mxCell>
        <mxCell id="1lhrnWLmMYFC0F2s1kMj-4" value="Reservation" style="text;html=1;align=center;verticalAlign=middle;resizable=0;points=[];autosize=1;strokeColor=none;fillColor=none;fontStyle=5" parent="1" vertex="1">
          <mxGeometry x="718.5" y="633.3199999999999" width="87" height="26" as="geometry" />
        </mxCell>
        <mxCell id="1lhrnWLmMYFC0F2s1kMj-10" value="" style="edgeStyle=none;orthogonalLoop=1;jettySize=auto;html=1;rounded=0;endArrow=none;endFill=0;dashed=1;dashPattern=1 4;fillColor=#d5e8d4;strokeColor=#82b366;" parent="1" edge="1">
          <mxGeometry width="100" relative="1" as="geometry">
            <mxPoint x="129.5" y="429" as="sourcePoint" />
            <mxPoint x="895" y="428" as="targetPoint" />
            <Array as="points" />
          </mxGeometry>
        </mxCell>
        <mxCell id="1lhrnWLmMYFC0F2s1kMj-12" value="" style="edgeStyle=none;orthogonalLoop=1;jettySize=auto;html=1;rounded=0;endArrow=none;endFill=0;dashed=1;dashPattern=1 4;fillColor=#d5e8d4;strokeColor=#82b366;" parent="1" edge="1">
          <mxGeometry width="100" relative="1" as="geometry">
            <mxPoint x="131.5" y="236" as="sourcePoint" />
            <mxPoint x="897" y="235" as="targetPoint" />
            <Array as="points" />
          </mxGeometry>
        </mxCell>
        <mxCell id="1lhrnWLmMYFC0F2s1kMj-13" value="" style="edgeStyle=none;orthogonalLoop=1;jettySize=auto;html=1;rounded=0;endArrow=none;endFill=0;dashed=1;dashPattern=1 4;fillColor=#d5e8d4;strokeColor=#82b366;" parent="1" edge="1">
          <mxGeometry width="100" relative="1" as="geometry">
            <mxPoint x="130" y="627" as="sourcePoint" />
            <mxPoint x="895.5" y="626" as="targetPoint" />
            <Array as="points" />
          </mxGeometry>
        </mxCell>
      </root>
    </mxGraphModel>
  </diagram>
</mxfile>
